<svg version="1.1" id="Layer_1" xmlns="http://www.w3.org/2000/svg" xmlns:xlink="http://www.w3.org/1999/xlink" x="0px" y="0px"
	 width="100%" viewBox="0 0 1024 1024" enable-background="new 0 0 1024 1024" xml:space="preserve">
<path fill="#000000" opacity="1.000000" stroke="none" 
	d="
M929.176514,731.053223 
	C915.037720,757.013062 899.489746,781.653564 881.503906,804.646851 
	C865.254089,825.420715 846.857788,844.295105 827.245117,861.881348 
	C795.601624,890.255188 760.910645,914.214844 722.672485,933.018188 
	C680.063599,953.970764 635.450562,968.154602 588.501709,975.508118 
	C558.915405,980.142273 529.243835,981.873718 499.401703,981.081665 
	C476.249573,980.467163 453.313324,977.687012 430.457703,973.709167 
	C397.649078,967.999146 365.990540,958.527222 335.272034,945.950378 
	C315.246094,937.751343 295.971893,927.911987 277.373718,916.743164 
	C255.340652,903.511597 234.327850,888.858276 214.663452,872.350098 
	C200.647827,860.584106 187.451202,847.929260 174.746735,834.694824 
	C143.569458,802.216858 118.436150,765.523560 97.925247,725.651062 
	C85.199562,700.912781 75.055603,675.051514 67.143250,648.306763 
	C54.788643,606.546631 48.580097,563.955444 47.479347,520.432861 
	C46.298161,473.729858 52.713863,428.064606 64.962318,383.197784 
	C71.935371,357.655121 81.791985,333.095825 93.178856,309.125458 
	C103.496887,287.405060 115.296783,266.578979 129.012619,246.892639 
	C149.534973,217.436935 173.043488,190.581467 199.653534,166.368271 
	C222.662415,145.431854 247.354202,126.845444 273.915222,110.765610 
	C300.763702,94.511765 329.035767,81.140312 358.661652,70.717010 
	C384.940887,61.471161 411.873840,55.061554 439.364471,50.303501 
	C472.937042,44.492794 506.642120,44.021400 540.437683,45.110031 
	C575.036926,46.224545 608.931274,52.439732 642.213135,61.813450 
	C699.125977,77.842789 751.118225,103.836388 798.124268,139.711624 
	C835.732483,168.414444 868.405029,201.984482 895.688232,240.623199 
	C913.872681,266.376190 929.319397,293.711060 942.205383,322.590546 
	C955.494507,352.373444 965.828003,383.030945 972.461060,414.888489 
	C980.090454,451.530701 983.326294,488.636047 981.977112,526.067444 
	C981.419678,541.532104 981.521423,557.097412 979.010742,572.393494 
	C975.403198,594.371704 971.328613,616.240173 965.499573,637.823364 
	C956.769592,670.148071 943.906616,700.734863 929.176514,731.053223 
M67.452133,547.065125 
	C68.044197,552.186890 68.698524,557.302429 69.218063,562.431519 
	C72.264526,592.507324 78.465714,621.942688 87.461624,650.774719 
	C95.319954,675.960693 105.855011,700.008484 118.263168,723.313599 
	C140.191299,764.499329 167.472534,801.594299 200.793076,834.296143 
	C220.711746,853.845093 242.207077,871.477966 265.414764,886.858093 
	C307.780609,914.934692 353.299713,935.988159 402.870178,948.343323 
	C439.118652,957.378052 475.725983,962.512512 513.011047,962.601562 
	C539.346558,962.664490 565.509033,960.362976 591.525085,955.908752 
	C624.329529,950.292419 656.242188,941.685974 686.919128,928.818420 
	C728.981018,911.175598 767.605347,887.839478 802.496155,858.331238 
	C821.881592,841.936279 840.030823,824.287781 856.322083,804.887695 
	C881.033997,775.460083 902.254089,743.635742 918.981812,708.937195 
	C932.037781,681.855042 941.915833,653.658264 949.406799,624.538818 
	C956.275452,597.838440 960.944092,570.738098 962.503662,543.320679 
	C965.443542,491.638641 961.072449,440.548615 946.766296,390.530609 
	C938.681091,362.262421 927.989929,335.089813 914.862976,308.775513 
	C898.323181,275.620087 877.886963,245.093323 853.441589,217.376175 
	C827.903137,188.419540 799.321228,162.782166 767.188171,141.133011 
	C746.971802,127.512497 726.100708,115.042809 703.902100,105.122658 
	C678.686279,93.854172 652.905273,83.915581 625.918274,77.425911 
	C592.465454,69.381355 558.627014,64.205109 524.211548,63.382450 
	C484.368500,62.430046 445.259003,67.603279 406.481842,76.818001 
	C366.247467,86.379005 328.720947,102.398674 292.745117,122.247025 
	C273.495667,132.867188 255.401733,145.427444 238.080338,159.041138 
	C210.716949,180.547348 186.164368,204.956757 164.264313,231.916214 
	C142.550751,258.646088 124.977631,288.015503 109.944199,319.055542 
	C94.009186,351.957092 82.727142,386.318542 75.371155,421.970795 
	C66.917854,462.941467 63.753082,504.354584 67.452133,547.065125 
z"/>
<path fill="#000000" opacity="1.000000" stroke="none" 
	d="
M221.792145,595.000183 
	C222.183823,579.683289 222.511749,564.860779 222.974823,550.042542 
	C223.294739,539.805298 227.181259,531.479492 235.747681,525.293701 
	C248.713547,515.931030 261.420013,506.208710 274.213013,496.607574 
	C275.916870,495.328796 277.838257,494.254150 279.160309,492.067230 
	C277.619629,490.782135 275.930267,490.537537 274.084320,490.948578 
	C263.203735,493.371674 252.169907,491.732788 241.215530,492.192566 
	C238.615234,492.301727 236.938797,490.623505 235.300919,488.912354 
	C229.655716,483.014587 223.901794,477.216827 218.390518,471.196747 
	C216.004486,468.590454 213.394897,467.323914 209.854935,466.796143 
	C194.980072,464.578400 187.932877,450.131653 195.174408,437.269226 
	C197.735596,432.720062 201.730804,429.943237 206.661911,429.261871 
	C211.479019,428.596191 213.225067,425.821442 214.648239,421.718475 
	C226.647751,387.124176 243.647202,355.091400 266.112793,326.235779 
	C295.270264,288.784729 330.776001,258.564728 373.479492,237.489685 
	C411.183472,218.881973 451.026428,207.637177 493.157684,204.648254 
	C536.684631,201.560318 578.986816,207.291122 619.959229,221.925018 
	C686.550598,245.709106 739.115906,287.396790 777.585632,346.861420 
	C796.393250,375.933289 809.820862,407.327484 819.234192,440.525787 
	C820.381653,444.572479 822.148438,447.024506 826.554321,448.196777 
	C836.481750,450.838196 842.244934,461.752228 839.402100,471.424744 
	C836.380737,481.704529 825.446533,488.375824 815.561035,484.765533 
	C809.746765,482.642120 806.288940,483.266571 803.146912,488.415405 
	C801.397339,491.282532 798.558655,492.320862 795.007812,492.218933 
	C782.687744,491.865326 770.351868,492.558411 758.030396,491.720032 
	C756.254028,491.599121 754.436096,492.088440 752.003723,492.368256 
	C755.828247,496.827545 760.443787,499.457245 764.521301,502.648254 
	C774.229736,510.245941 783.950989,517.872192 794.122131,524.820618 
	C803.541687,531.255615 807.791077,539.920044 808.049622,550.972778 
	C808.458679,568.460266 808.989807,585.946228 809.189331,603.436035 
	C809.232788,607.243530 810.256165,610.230225 812.888123,612.806824 
	C818.362976,618.166260 823.633850,623.755371 829.358521,628.832947 
	C835.714233,634.470215 839.101013,641.082947 839.408691,649.705383 
	C839.889587,663.178162 840.927490,676.633484 841.875000,690.085999 
	C842.304199,696.179260 840.236877,701.106323 836.004456,705.388794 
	C824.176392,717.356812 812.320190,729.300476 800.697693,741.466370 
	C796.243286,746.128967 791.167664,748.463989 784.772766,748.375061 
	C776.608093,748.261536 768.440735,748.306824 760.274658,748.322876 
	C755.579407,748.332153 751.536926,746.895691 747.990723,743.687988 
	C742.307983,738.547668 736.317261,733.745728 730.678406,728.559692 
	C724.017395,722.433411 723.116638,716.375244 727.255981,708.359131 
	C727.866821,707.176208 728.652222,706.076416 729.191284,704.864563 
	C733.439819,695.313354 740.357361,690.848694 751.082947,692.600098 
	C754.983459,693.237000 759.066284,692.789429 763.065796,692.781494 
	C771.978699,692.763855 776.294189,687.441772 774.704285,678.742310 
	C774.150696,675.713440 772.883179,673.845032 769.624817,673.714966 
	C759.476868,673.310181 749.329529,672.886719 739.182739,672.453430 
	C737.049133,672.362366 736.145813,673.489380 736.083740,675.466370 
	C735.726440,686.841248 728.796021,692.026611 718.685852,695.008545 
	C711.378601,697.163696 704.485901,701.031860 696.032104,697.991211 
	C697.154480,699.933411 698.196167,701.927734 699.413086,703.808777 
	C704.934143,712.342590 710.507751,720.842407 716.056580,729.358276 
	C724.607422,742.481262 725.526428,756.118042 718.511719,770.127991 
	C715.456848,776.229187 712.130554,782.205322 708.693298,788.101685 
	C704.138000,795.916199 697.143433,799.781006 688.136230,800.239197 
	C678.990112,800.704407 669.856934,801.613770 660.707642,801.790649 
	C637.574280,802.237915 614.458130,804.642273 591.294189,802.397339 
	C577.913208,801.100525 567.071228,796.326843 560.635986,783.421570 
	C555.888611,773.901306 549.908813,765.001221 544.658081,755.723022 
	C542.891418,752.601196 540.666992,751.297302 537.037415,751.335449 
	C522.551758,751.487732 508.062592,751.479004 493.576904,751.325867 
	C490.299408,751.291199 488.456818,752.466187 486.868622,755.288391 
	C481.804230,764.287781 475.818329,772.823303 471.379181,782.107361 
	C464.233490,797.051880 451.646088,802.332458 436.530518,802.982056 
	C413.710938,803.962769 390.897461,802.571350 368.096008,801.570129 
	C359.777924,801.204895 351.469360,800.610413 343.149811,800.295532 
	C334.109131,799.953308 327.199646,796.300232 322.697052,788.232544 
	C317.433990,778.802246 311.057739,769.868225 309.372223,758.858215 
	C307.834717,748.814514 309.291992,739.252380 314.873718,730.567688 
	C320.728668,721.457886 326.687531,712.414795 332.523407,703.292847 
	C333.563477,701.667175 334.995636,700.105713 334.684174,697.113525 
	C324.360077,701.286743 315.646301,695.728027 306.471100,692.740417 
	C299.870300,690.591187 296.282867,685.801941 295.754089,679.084839 
	C295.358917,674.064758 293.109467,672.665710 288.346893,672.997498 
	C279.877045,673.587524 271.370178,673.626831 262.883087,673.995300 
	C257.076691,674.247375 253.323181,682.127869 256.635559,687.073181 
	C259.168671,690.855103 262.276245,693.346985 267.354095,692.987427 
	C273.661346,692.540771 280.012512,692.726807 286.344147,692.608215 
	C291.801056,692.506042 296.043243,694.583313 298.817505,699.397095 
	C299.482819,700.551636 300.177582,701.690430 300.893799,702.814148 
	C311.536011,719.512390 306.008148,723.604126 295.301392,733.318970 
	C294.563416,733.988586 293.692780,734.511353 292.949524,735.175903 
	C275.258667,750.993469 279.790009,747.373230 256.912811,748.651611 
	C242.845856,749.437683 232.406113,745.501160 223.441986,734.429016 
	C215.195221,724.242920 205.293808,715.389160 196.040787,706.028137 
	C191.812576,701.750610 189.628769,696.678040 189.875702,690.732117 
	C190.469894,676.424011 191.149811,662.117981 191.976562,647.821655 
	C192.345673,641.438538 194.896683,635.979614 199.672852,631.516785 
	C205.150543,626.398438 210.185913,620.790100 215.826233,615.867615 
	C220.355209,611.915039 222.567535,607.479919 221.789093,601.488403 
	C221.533875,599.524109 221.772980,597.495544 221.792145,595.000183 
M531.621948,295.259796 
	C529.470581,299.884796 530.045105,300.785858 535.625244,300.795135 
	C564.786621,300.843628 593.949585,300.674744 623.108887,300.928192 
	C634.129211,301.023987 642.989197,305.790527 648.883667,315.471222 
	C652.847412,321.981049 653.981628,329.179199 653.888489,336.567780 
	C653.833496,340.924286 655.253967,342.604156 659.777771,343.141510 
	C674.150085,344.848755 682.257141,354.393036 682.318848,368.875916 
	C682.355774,377.540985 682.355530,386.206268 682.414795,394.871155 
	C682.427002,396.652618 682.042786,399.139771 684.423584,399.386169 
	C689.268738,399.887512 694.202393,400.255035 699.297791,398.964630 
	C698.421387,394.920227 698.792786,391.775330 701.056824,388.618011 
	C703.189514,385.643951 701.190613,382.115387 697.040405,381.382507 
	C693.013489,380.671448 690.622864,379.136414 690.716125,374.653961 
	C690.810120,370.138611 689.982422,365.694611 696.457703,364.356659 
	C701.695923,363.274323 703.255676,359.069244 700.253540,354.995605 
	C696.715088,350.194397 699.880798,347.373260 702.579834,344.172668 
	C705.270325,340.982208 708.331726,340.648376 711.922607,342.593140 
	C717.634033,345.686249 719.852356,345.091797 721.345215,338.971008 
	C722.828003,332.891296 727.464355,333.740845 731.553528,333.296570 
	C735.562927,332.860962 736.920471,335.721466 737.906555,339.005280 
	C739.386108,343.932343 741.462524,345.127411 745.944214,342.805054 
	C750.800964,340.288300 754.031738,341.947266 757.365662,345.425507 
	C760.820190,349.029755 760.955078,352.592865 758.433350,356.704315 
	C756.258484,360.250122 757.945007,362.870697 761.201233,364.377106 
	C763.443970,365.414642 767.053955,364.067383 767.796692,367.591309 
	C768.370239,370.312683 768.187683,373.213226 768.173767,376.033264 
	C768.159363,378.959625 766.469421,380.493164 763.683044,381.185150 
	C757.905212,382.619934 756.502197,385.658325 759.275024,390.725677 
	C761.032227,393.936951 761.010193,396.682770 757.926941,399.101562 
	C754.769653,401.578522 751.907471,404.592468 747.366699,401.589447 
	C742.352173,398.273132 739.695862,398.988281 738.238770,404.524292 
	C736.851868,409.793671 733.509705,410.420776 728.888977,410.480957 
	C724.195923,410.542053 721.915283,408.656738 720.770752,404.261536 
	C719.448181,399.182800 716.334656,398.831055 711.862976,401.389587 
	C706.835266,404.266296 703.383240,409.510559 696.170837,409.340759 
	C681.142334,408.986938 683.251770,406.437347 683.006165,422.937805 
	C682.946777,426.926697 684.602295,428.210541 688.373657,428.113525 
	C695.201355,427.937927 702.039062,427.923828 708.867065,428.080750 
	C712.383606,428.161530 714.726135,427.019440 716.674194,423.938263 
	C720.581909,417.757568 727.894531,415.492218 735.081482,417.738586 
	C742.841125,420.163910 747.109558,426.206146 746.801819,434.329468 
	C746.540894,441.217438 741.609070,447.305237 734.735291,449.224274 
	C727.407654,451.270020 720.900513,448.812927 716.878113,441.977631 
	C714.827820,438.493439 712.148071,437.239441 708.274841,437.307190 
	C701.112305,437.432556 693.937073,437.483643 686.782898,437.186035 
	C682.732300,437.017578 679.810181,437.953613 677.623047,441.649780 
	C675.351562,445.488434 671.661377,447.837311 667.428833,449.298065 
	C665.846191,449.844299 664.063660,450.100189 662.539917,451.738831 
	C670.293884,453.220245 677.641907,452.720703 684.942993,452.684204 
	C693.482666,452.641541 700.907532,455.312103 707.609497,460.503387 
	C716.036560,467.030884 724.598450,473.384125 733.063354,479.863281 
	C735.499817,481.728180 737.966858,483.035736 741.223206,483.015137 
	C758.386230,482.906616 775.550476,483.006134 792.713867,482.932068 
	C798.220215,482.908325 802.747742,477.430054 801.848267,472.001953 
	C800.428162,463.432068 802.534668,456.129486 809.393188,450.533356 
	C811.317871,448.962952 811.815613,447.415527 811.121338,444.914062 
	C800.967957,408.330139 785.762451,374.028961 763.914185,342.942200 
	C724.236938,286.487427 671.205933,248.010529 605.462219,227.174088 
	C557.499207,211.972961 508.583405,209.520523 459.311401,218.714630 
	C399.328644,229.907379 346.993927,256.394684 303.195770,299.353516 
	C266.110199,335.728455 239.378632,378.504822 222.343323,427.476654 
	C221.562439,429.721497 221.379959,431.267578 223.358597,433.188660 
	C232.709778,442.267548 233.455460,450.830017 225.911728,461.514160 
	C224.482193,463.538788 224.369919,464.909363 226.092056,466.682892 
	C230.501434,471.223846 234.820999,475.852448 239.149765,480.470978 
	C240.715027,482.141052 242.547302,483.022491 244.876511,483.048950 
	C259.699310,483.217255 274.522034,483.406433 289.343567,483.659180 
	C291.657471,483.698639 293.502228,482.912476 295.292999,481.542023 
	C304.686066,474.353668 314.152161,467.260529 323.532776,460.056030 
	C329.417358,455.536652 336.073669,453.241974 343.411011,452.912903 
	C348.236633,452.696472 353.074127,452.756836 357.904938,452.638550 
	C360.099182,452.584808 362.330811,452.570190 364.848114,451.443756 
	C361.392181,449.811829 358.448364,448.666718 355.760468,447.086273 
	C352.845367,445.372253 350.906647,442.573425 348.975281,439.841492 
	C347.732605,438.083801 345.829987,438.189575 343.993561,438.192169 
	C337.661346,438.201172 331.319000,438.454224 325.000092,438.173737 
	C319.998199,437.951752 316.422028,438.921906 313.400543,443.677216 
	C309.910706,449.169617 303.780273,450.617035 297.446747,449.335907 
	C290.544128,447.939606 286.294739,443.466156 284.961334,436.598328 
	C283.738647,430.300659 285.108215,424.668030 290.473511,420.514557 
	C298.686859,414.156464 308.987091,416.148285 315.027771,425.247925 
	C316.267761,427.115875 316.919556,429.523804 320.023346,429.410583 
	C327.180328,429.149536 334.344971,429.065491 341.507324,429.001465 
	C344.506287,428.974640 345.641754,427.524353 345.597717,424.648499 
	C345.519318,419.528351 345.575653,414.406158 345.575653,409.046600 
	C335.746765,409.046600 326.793182,408.961975 317.842438,409.085327 
	C313.878693,409.139984 310.876770,407.739502 308.200134,404.811646 
	C302.244934,398.297516 296.015137,392.035339 289.997498,385.577057 
	C287.111115,382.479340 284.029755,380.248291 279.696442,379.122375 
	C270.110931,376.631866 264.716461,366.647430 267.875824,358.199707 
	C270.269012,351.800720 274.560974,347.451813 281.678680,346.786072 
	C288.882080,346.112335 295.040558,348.097931 298.430237,355.014252 
	C301.675140,361.635162 301.819641,368.245483 296.571228,374.086243 
	C294.858398,375.992371 294.224731,377.394592 296.283966,379.521088 
	C301.961273,385.383759 307.476074,391.403931 313.047180,397.369232 
	C314.874268,399.325592 317.102753,400.059845 319.772430,400.024323 
	C326.436615,399.935577 333.107330,399.847839 339.766510,400.051086 
	C344.029968,400.181213 345.851440,398.612854 345.651215,394.230255 
	C345.278931,386.079712 345.022003,377.915527 345.035156,369.757538 
	C345.057556,355.855011 353.019257,346.050720 365.871124,343.712769 
	C373.683136,342.291626 374.024384,342.274658 373.624298,334.253235 
	C372.609558,313.907806 388.765137,300.441895 407.050171,300.765045 
	C432.704407,301.218414 458.373169,300.914917 484.035004,300.787354 
	C486.841400,300.773407 490.749939,302.318329 492.255798,299.075836 
	C494.011475,295.295319 489.759399,293.763580 487.700195,291.652588 
	C476.641510,280.315674 475.099884,261.612823 484.322693,248.919647 
	C494.340912,235.131729 510.971832,231.044739 526.000244,238.349579 
	C543.695129,246.950516 554.793091,275.118103 531.621948,295.259796 
M321.722473,617.071106 
	C321.738495,602.741150 321.844238,588.410278 321.709076,574.081726 
	C321.674133,570.380188 322.874695,567.852356 325.893066,565.668396 
	C334.934875,559.126160 343.804443,552.345886 352.745667,545.664429 
	C361.156891,539.379028 361.033386,539.432251 364.960449,549.335876 
	C377.360901,580.608154 389.922394,611.816772 402.286469,643.103394 
	C405.290558,650.705017 410.433533,655.462891 418.389709,657.319824 
	C419.795074,657.647827 421.901794,657.306152 422.178528,659.766052 
	C419.704163,661.127747 417.016693,660.989258 414.384552,661.014038 
	C402.718903,661.124023 391.045898,661.460693 379.389496,661.165161 
	C372.189178,660.982605 367.473114,663.943359 363.818909,669.887329 
	C358.934784,677.831787 353.617859,685.509277 348.534119,693.332153 
	C340.000122,706.464294 331.524750,719.634583 322.984467,732.762695 
	C316.220184,743.160645 314.858398,754.178345 319.739655,765.591187 
	C322.750702,772.631287 326.781769,779.196655 330.917694,785.657288 
	C333.431641,789.584290 336.998718,791.685974 341.709412,791.845093 
	C343.871765,791.918152 346.028259,792.162903 348.187469,792.328857 
	C377.947662,794.616028 407.759186,795.315308 437.583435,794.551575 
	C448.981598,794.259705 458.345825,790.192322 463.844940,778.818787 
	C468.908020,768.347107 475.464569,758.606628 481.073273,748.385010 
	C483.292816,744.339905 486.224243,742.884460 490.722748,742.923279 
	C507.387390,743.067261 524.055664,743.045532 540.719604,742.840332 
	C544.933533,742.788452 547.452576,744.349243 549.506897,747.952026 
	C555.529968,758.514832 562.383606,768.638245 567.877380,779.459045 
	C573.498901,790.531250 582.775330,794.346436 594.001465,794.582214 
	C625.995789,795.254028 657.968933,794.591370 689.865845,791.711426 
	C694.471924,791.295593 698.079102,789.246948 700.578491,785.282043 
	C704.937134,778.367981 709.229797,771.384155 712.327026,763.822449 
	C716.198364,754.371094 716.159241,744.713501 710.555420,736.000854 
	C695.954407,713.299805 680.969482,690.845764 666.160889,668.278015 
	C663.083618,663.588318 658.915283,661.253174 653.204529,661.255432 
	C640.539185,661.260498 627.873352,661.060791 615.208862,660.865356 
	C613.357849,660.836792 611.189880,661.505615 609.817627,659.456299 
	C610.366394,657.496155 612.158325,657.602051 613.473206,657.188660 
	C620.852905,654.869080 625.611938,649.943970 628.416931,642.844238 
	C641.209656,610.463623 654.056213,578.104187 666.863525,545.729309 
	C669.106812,540.058533 669.914185,539.805786 674.961731,543.565979 
	C685.117493,551.131714 695.206421,558.789185 705.457214,566.223755 
	C708.047424,568.102295 709.133728,570.244202 709.119568,573.342896 
	C709.054199,587.675110 709.038757,602.008118 709.119080,616.340210 
	C709.138245,619.760559 707.939453,622.347229 705.469543,624.698303 
	C699.556152,630.327209 693.876648,636.201111 687.995483,641.864746 
	C683.943420,645.766968 682.755493,649.966248 685.080017,655.355835 
	C689.431702,665.445251 693.370422,675.712036 697.645874,685.835449 
	C699.265564,689.670715 702.327637,691.532593 706.536804,690.208130 
	C711.460205,688.658936 716.330200,686.923401 721.162109,685.105591 
	C725.515686,683.467773 727.787231,680.268372 727.737244,675.510498 
	C727.718018,673.679565 728.005676,671.839111 727.906372,670.016479 
	C727.650696,665.323181 729.557495,663.476440 734.425171,663.806763 
	C747.048706,664.663208 759.693481,665.244324 772.337036,665.755615 
	C779.987976,666.065063 779.999634,665.913452 781.559509,673.722046 
	C782.244019,677.148743 782.856079,680.590637 783.589783,684.006592 
	C783.916016,685.525452 784.197937,687.060852 783.170715,688.323792 
	C777.442993,695.366394 772.495056,703.624268 761.105652,701.287537 
	C758.059326,700.662415 754.677856,701.639343 751.646423,700.979492 
	C742.894409,699.074402 738.198853,703.344604 735.256348,710.823547 
	C735.013367,711.441040 734.681763,712.026611 734.359558,712.609436 
	C732.296936,716.340271 732.794739,719.635193 736.027832,722.463257 
	C741.545776,727.289856 747.108398,732.066528 752.570862,736.955017 
	C755.092957,739.212036 757.931824,740.033630 761.267578,739.982971 
	C768.765564,739.869019 776.271912,739.776245 783.764343,740.011536 
	C788.436462,740.158264 792.029114,738.722290 795.282288,735.300781 
	C806.648132,723.346741 818.176331,711.545837 829.730347,699.772644 
	C832.289612,697.164795 833.131165,694.199890 832.935669,690.696411 
	C832.174805,677.061646 831.302002,663.429810 830.817627,649.784607 
	C830.627441,644.427612 828.896301,640.167480 825.047668,636.494141 
	C818.177307,629.936707 811.469238,623.209473 804.683716,616.563049 
	C802.588623,614.510864 801.425781,612.264038 801.353516,609.111145 
	C800.918396,590.127991 800.024292,571.153320 799.758972,552.169128 
	C799.634460,543.257141 796.452454,536.737610 789.154236,531.430847 
	C761.126160,511.050598 733.210999,490.508606 705.549744,469.634705 
	C697.972473,463.916718 690.126404,460.883148 680.674866,461.144531 
	C670.850647,461.416229 661.010376,461.050293 651.178467,461.131256 
	C647.028137,461.165436 645.208313,459.521790 645.007446,455.263763 
	C644.494629,444.391022 644.365784,444.396484 655.146301,442.882507 
	C655.641113,442.813019 656.139771,442.770386 656.637085,442.719574 
	C668.125305,441.545715 673.642395,435.045074 673.940369,422.883301 
	C674.360535,405.731537 673.971252,388.559723 673.915955,371.396545 
	C673.874939,358.641754 669.691711,353.809723 656.947876,351.754211 
	C644.825317,349.798859 644.865173,349.798798 644.835571,337.052795 
	C644.825134,332.581512 645.354065,328.034271 643.465820,323.738739 
	C639.027893,313.643097 630.816833,309.501465 620.301025,309.457886 
	C594.968933,309.352905 569.636047,309.396179 544.303650,309.450470 
	C538.475830,309.462952 532.649475,309.827698 526.820862,309.888550 
	C524.892212,309.908691 522.169067,310.099152 521.957764,307.538696 
	C521.548462,302.578827 521.548706,297.552338 521.839355,292.580353 
	C522.004395,289.755981 525.124207,289.053009 526.979858,287.496216 
	C538.008362,278.243805 539.083008,262.146484 529.318237,251.464249 
	C520.264709,241.560059 503.548004,241.282181 493.846100,250.874634 
	C483.374329,261.228210 484.869965,279.274445 496.947510,288.154510 
	C498.935791,289.616394 501.328003,290.682526 501.304718,293.759644 
	C501.273224,297.925232 501.328583,302.092468 501.416138,306.257538 
	C501.472504,308.938263 499.947418,309.690552 497.610199,309.702698 
	C492.287201,309.730377 486.956757,310.015076 481.642792,309.823242 
	C455.984680,308.897003 430.320740,309.507050 404.660645,309.465393 
	C391.827393,309.444580 382.412720,319.184143 382.192078,332.047180 
	C382.143494,334.879578 382.241730,337.714905 382.174042,340.546509 
	C381.960602,349.475800 384.313904,350.842194 372.631317,351.576721 
	C358.360229,352.473999 353.326904,358.560120 353.336731,372.847870 
	C353.347748,388.845001 353.209106,404.844727 353.452454,420.838470 
	C353.637848,433.022156 357.800476,441.879517 372.638306,443.547363 
	C382.396881,444.644287 382.094940,445.058105 382.378082,454.890350 
	C382.523895,459.954376 380.394989,461.186340 375.869904,461.133728 
	C366.039612,461.019409 356.201691,461.440613 346.373993,461.259033 
	C339.555511,461.133057 333.728241,463.103333 328.284973,467.159882 
	C298.765930,489.158386 269.176788,511.062988 239.572128,532.946289 
	C234.039474,537.035950 231.456482,542.534485 231.303329,549.225220 
	C230.857269,568.712830 230.386322,588.201538 230.214996,607.692383 
	C230.176331,612.092773 228.752853,615.240112 225.578583,618.148010 
	C218.822784,624.337036 212.305862,630.786682 205.689148,637.127625 
	C202.708740,639.983765 200.561478,643.306274 200.330658,647.535645 
	C199.550217,661.835693 198.865158,676.140991 198.073288,690.440430 
	C197.855896,694.366150 199.152191,697.463684 201.932098,700.286316 
	C211.520111,710.021606 221.444977,719.490479 230.288635,729.872498 
	C237.164902,737.944885 244.602417,740.647583 255.323685,740.557312 
	C268.512634,740.446167 280.024841,738.956299 288.690948,728.111694 
	C288.892609,727.859192 289.226715,727.717102 289.478333,727.499573 
	C300.934387,717.599426 300.852997,718.015503 292.267731,704.182190 
	C290.530884,701.383606 288.062042,700.427429 284.625275,700.679932 
	C277.819183,701.179871 270.974304,701.148376 264.145844,701.350098 
	C261.937225,701.415405 259.743378,701.316833 258.062256,699.666809 
	C251.867462,693.586426 243.982376,688.229126 248.636978,677.475464 
	C249.281006,675.987610 249.540787,674.222351 249.538223,672.586243 
	C249.529877,667.263428 252.516205,665.959473 257.259796,665.849426 
	C268.248413,665.594482 279.265778,665.385681 290.203033,664.399109 
	C305.298248,663.037415 302.835846,664.402832 303.245087,675.798340 
	C303.415771,680.550415 305.398071,683.713257 309.872192,685.287659 
	C314.113525,686.780151 318.321259,688.386475 322.618988,689.695862 
	C328.548004,691.502197 330.900757,690.568604 333.416229,685.002808 
	C337.806396,675.289062 341.808868,665.399963 346.212158,655.692383 
	C348.625122,650.372742 347.620300,646.106506 343.533386,642.155823 
	C337.422882,636.249023 331.410614,630.239624 325.410919,624.219666 
	C323.671539,622.474304 321.627808,620.828735 321.722473,617.071106 
M390.847168,636.572449 
	C379.737793,608.861694 368.628387,581.150940 357.123535,552.453735 
	C348.020142,559.488892 339.877350,565.749146 331.779663,572.067200 
	C330.157928,573.332520 330.225403,575.279114 330.223877,577.127258 
	C330.213837,589.280884 330.232635,601.434692 330.169708,613.588074 
	C330.156830,616.071777 330.891296,617.983765 332.744476,619.757263 
	C338.392853,625.162720 343.895966,630.721130 349.410889,636.264587 
	C356.288727,643.177917 357.501251,649.611511 353.692596,658.533203 
	C351.079132,664.655151 348.430573,670.762512 345.867798,676.905640 
	C344.977783,679.039124 344.298248,681.260376 343.522583,683.441528 
	C343.913849,683.601624 344.305115,683.761719 344.696381,683.921814 
	C349.103149,677.321045 353.598816,670.777466 357.892731,664.104126 
	C362.586060,656.810120 369.083466,652.927429 377.809082,652.886536 
	C382.636932,652.863892 387.464630,652.811584 392.292450,652.786255 
	C395.824066,652.767761 396.665924,651.030334 395.423035,647.940552 
	C393.995056,644.390564 392.562531,640.842346 390.847168,636.572449 
M653.068481,603.504883 
	C648.036377,616.192078 643.048584,628.897095 637.958557,641.561035 
	C633.628540,652.334045 633.822021,652.692139 645.213501,652.745850 
	C646.046387,652.749756 646.887817,652.837891 647.710876,652.750793 
	C660.781921,651.367920 670.239624,656.285339 676.320557,668.202148 
	C678.826050,673.112183 681.927856,677.872742 685.962341,682.198059 
	C687.135437,679.939026 685.894226,678.480225 685.346680,677.073975 
	C682.870544,670.714355 680.205444,664.427917 677.587036,658.123962 
	C673.875977,649.189026 675.036255,643.032043 681.802979,636.304932 
	C687.000000,631.138306 692.198730,625.971619 697.491882,620.904358 
	C699.545715,618.938171 700.661682,616.785828 700.605652,613.881348 
	C700.365051,601.395081 700.181519,588.907104 700.083130,576.418945 
	C700.061096,573.614685 698.850464,571.820618 696.645325,570.223206 
	C690.981934,566.120667 685.458740,561.825012 679.868591,557.620972 
	C673.854858,553.098450 673.512634,553.082642 670.567932,560.190063 
	C664.706238,574.337891 659.048035,588.570129 653.068481,603.504883 
M741.366333,380.713348 
	C746.207886,371.953308 743.919861,362.884186 735.904968,359.065826 
	C727.997009,355.298431 719.271057,358.531555 716.002502,366.440125 
	C713.396606,372.745544 715.553772,380.856781 720.745728,384.275574 
	C727.312073,388.599213 734.934570,387.481750 741.366333,380.713348 
M219.436768,441.164581 
	C215.756317,437.534302 211.436508,436.208069 206.744354,438.647461 
	C202.716476,440.741455 200.865540,444.486542 201.423950,449.052032 
	C201.956161,453.403351 204.358002,456.475708 208.746292,457.495270 
	C213.040558,458.492981 217.182663,457.997162 220.055588,454.270569 
	C223.200058,450.191772 222.543793,445.906708 219.436768,441.164581 
M810.513794,468.104431 
	C811.483154,473.129547 814.581909,476.165222 819.585571,476.558929 
	C824.456665,476.942200 828.289001,474.677460 830.430542,470.171143 
	C832.382690,466.063507 831.165222,462.342957 828.260193,459.204895 
	C825.397827,456.112976 821.607117,455.343536 817.742310,456.600403 
	C812.708557,458.237457 810.700378,462.283325 810.513794,468.104431 
M280.728394,356.058594 
	C277.029175,357.751648 275.833008,360.806396 276.199066,364.615997 
	C276.469299,367.429016 277.665833,369.691620 280.469543,370.800781 
	C284.111115,372.241394 287.376404,371.614655 289.973297,368.703003 
	C292.586853,365.772644 292.785706,362.284637 290.925385,358.994446 
	C288.831207,355.290588 285.365051,354.602844 280.728394,356.058594 
M308.409332,436.600891 
	C309.723206,432.023590 308.787872,428.294159 304.175629,426.200256 
	C300.508057,424.535248 297.272034,425.456329 294.858704,428.606323 
	C292.278992,431.973602 292.990906,436.957855 296.193604,439.379150 
	C299.709564,442.037170 304.474762,441.201141 308.409332,436.600891 
M723.792847,437.637329 
	C729.087708,442.565552 736.126770,441.347809 737.578186,435.190338 
	C738.318481,432.049652 737.744019,429.077026 734.845093,427.250458 
	C731.838684,425.356232 728.555115,424.901001 725.505066,427.233185 
	C722.096863,429.839203 721.534241,433.184143 723.792847,437.637329 
z"/>
<path fill="#000000" opacity="1.000000" stroke="none" 
	d="
M765.994507,239.993164 
	C771.775879,234.440155 777.328674,229.159607 782.798706,223.794708 
	C785.542236,221.103851 787.932983,220.685532 790.743652,223.860779 
	C795.377014,229.094925 800.411621,233.975510 805.009460,239.238968 
	C810.887085,245.967422 811.905640,253.783386 807.787048,261.553070 
	C803.649475,269.358459 796.822327,274.586823 787.720093,274.132385 
	C781.608276,273.827301 779.004517,275.906708 777.478271,281.376648 
	C776.186890,286.004944 774.040283,290.389771 772.376648,294.920746 
	C771.183350,298.170776 769.201477,300.079346 765.578796,299.061798 
	C762.053406,298.071564 760.423706,295.561401 760.707153,291.910858 
	C761.021729,287.857819 762.704285,284.199066 764.133545,280.469360 
	C765.622864,276.582703 767.008240,272.654572 768.572449,268.798737 
	C769.986816,265.312408 768.395874,262.970032 765.744629,261.143890 
	C762.961365,259.226868 761.536804,261.778229 759.918518,263.293579 
	C756.513855,266.481598 753.221619,269.790222 749.796204,272.955170 
	C746.409363,276.084473 742.975159,276.125824 740.153687,273.169006 
	C737.057251,269.924072 737.061218,266.884308 740.505554,263.728699 
	C748.978271,255.965958 757.330811,248.071976 765.994507,239.993164 
M779.777100,258.944122 
	C785.504761,262.220398 791.436584,261.051941 795.058655,255.933960 
	C798.211975,251.478363 796.870056,247.136719 790.234985,241.061264 
	C784.902161,236.178146 783.602173,243.342468 780.296143,244.539764 
	C780.010864,244.643051 779.811096,244.980728 779.569824,245.207626 
	C772.792603,251.579193 772.787537,251.763824 779.777100,258.944122 
z"/>
<path fill="#000000" opacity="1.000000" stroke="none" 
	d="
M218.461502,264.530457 
	C208.876419,253.848709 208.921188,253.889923 218.406906,243.583313 
	C221.235428,240.509979 224.137161,237.564987 227.460953,235.028091 
	C234.301987,229.806641 241.596451,228.545135 249.380600,232.653427 
	C257.369904,236.869965 262.372437,243.521744 261.994781,252.613235 
	C261.746735,258.584778 263.822083,261.111847 269.240631,262.212982 
	C273.799500,263.139435 278.283661,264.458649 282.766754,265.724884 
	C286.225159,266.701721 289.143188,268.268494 287.865997,272.714325 
	C286.784027,276.480621 282.742554,278.959656 278.883514,277.879364 
	C271.840149,275.907654 264.886627,273.616577 257.881195,271.506561 
	C255.855957,270.896606 253.883133,269.970367 251.780640,271.730103 
	C249.050644,274.015045 247.946182,276.040070 250.938950,279.077057 
	C254.556381,282.747986 258.814575,285.764099 261.911560,289.966980 
	C264.912842,294.040039 264.906860,297.176697 261.796997,300.152863 
	C258.118713,303.673004 255.092041,301.740906 252.320221,298.941498 
	C241.080582,287.590149 229.898666,276.181641 218.461502,264.530457 
M237.219070,243.859970 
	C233.477127,244.848801 231.075699,247.684952 228.406570,250.181747 
	C226.361328,252.094925 226.540146,253.728470 228.477509,255.636963 
	C231.321030,258.438141 233.977478,261.428375 236.745956,264.306946 
	C237.780518,265.382660 238.758301,266.416931 240.612778,265.731995 
	C244.596313,264.260742 250.170578,257.058319 249.838058,253.550491 
	C249.334793,248.241791 244.363297,244.118408 237.219070,243.859970 
z"/>
<path fill="#000000" opacity="1.000000" stroke="none" 
	d="
M818.000610,338.193604 
	C799.054016,347.143555 780.355042,334.688843 781.665527,314.407593 
	C782.017334,308.963348 784.040649,304.266907 788.259705,300.873993 
	C797.348145,293.565033 806.646545,286.469299 817.243103,281.452332 
	C828.399170,276.170441 839.648132,279.355408 846.263855,289.231384 
	C852.995850,299.280884 851.864258,311.283325 843.236450,319.688934 
	C835.792114,326.941559 826.964539,332.358185 818.000610,338.193604 
M820.023010,320.504944 
	C825.262634,316.686829 831.005554,313.498199 835.493164,308.733368 
	C839.116272,304.886444 839.377380,300.683685 836.406433,296.461670 
	C833.688110,292.598724 829.921143,291.141937 825.491333,293.068390 
	C814.877686,297.684082 805.316772,304.034393 796.869690,311.904663 
	C793.247559,315.279419 793.170166,319.870667 795.949158,323.721436 
	C798.748779,327.600830 802.436951,329.319550 807.237183,327.676849 
	C811.703796,326.148315 815.575195,323.548187 820.023010,320.504944 
z"/>
<path fill="#000000" opacity="1.000000" stroke="none" 
	d="
M592.098694,131.112762 
	C597.745789,141.088211 595.111755,151.209930 593.788269,161.165161 
	C593.179810,165.741806 591.765991,170.250305 590.351685,174.672760 
	C587.489258,183.623291 580.435425,188.769547 571.007874,189.243317 
	C562.929810,189.649277 555.139404,187.960266 547.371155,186.116058 
	C543.796265,185.267349 541.946960,183.130310 542.592834,179.234421 
	C545.690247,160.551529 548.719116,141.857162 551.872375,123.183777 
	C552.365479,120.263374 554.515442,118.067108 557.390808,118.293434 
	C567.485352,119.087975 577.657776,119.933891 586.510925,125.674026 
	C588.596680,127.026375 590.546265,128.620514 592.098694,131.112762 
M560.336975,151.493652 
	C559.254944,158.206589 558.160217,164.917526 557.099915,171.633881 
	C556.842468,173.264755 556.515564,174.855606 558.335022,176.047714 
	C564.799072,180.282944 576.611328,176.345337 578.486938,168.897110 
	C580.102539,162.481247 580.963440,155.872696 582.097839,149.338882 
	C584.090820,137.860352 580.347595,132.909760 568.801575,131.413544 
	C565.463806,130.981018 563.412231,131.662445 562.941101,135.465347 
	C562.309814,140.561554 561.306396,145.611649 560.336975,151.493652 
z"/>
<path fill="#000000" opacity="1.000000" stroke="none" 
	d="
M611.845947,198.248444 
	C599.140869,193.806641 598.893311,193.728867 602.824463,181.217117 
	C607.858704,165.194473 613.327759,149.308182 618.640442,133.373428 
	C620.019775,129.235977 622.554626,127.508400 627.065674,129.063736 
	C635.712646,132.045090 644.460266,134.733353 653.126709,137.659943 
	C656.163147,138.685333 659.216553,139.978577 659.054749,144.033569 
	C658.881470,148.373306 655.300354,150.920273 651.122864,149.615799 
	C645.408203,147.831268 639.675293,146.076157 634.062622,144.003876 
	C630.254700,142.597931 628.668823,143.907059 627.618958,147.552231 
	C624.359131,158.870300 624.268677,158.833710 635.169983,162.603928 
	C637.370361,163.364899 639.546326,164.200272 641.713562,165.052078 
	C645.468140,166.527786 646.026001,169.555847 644.939209,172.857269 
	C643.849182,176.168365 641.189697,176.779419 638.046570,175.738205 
	C633.625610,174.273651 629.177979,172.885178 624.787354,171.335007 
	C621.722534,170.252960 619.818787,170.775711 618.807373,174.218170 
	C614.741577,188.056702 611.604004,185.895676 627.073303,190.787003 
	C630.401917,191.839478 633.715881,192.939499 637.023804,194.055710 
	C640.583374,195.256897 642.175537,197.761368 641.197510,201.402588 
	C640.144775,205.322128 636.987366,206.017532 633.654480,205.062241 
	C626.461731,203.000641 619.362915,200.611191 611.845947,198.248444 
z"/>
<path fill="#000000" opacity="1.000000" stroke="none" 
	d="
M371.167877,180.595490 
	C370.717133,168.484863 370.533447,156.828262 369.850769,145.200989 
	C369.549255,140.065765 372.368256,138.160629 376.345215,136.522369 
	C380.641571,134.752563 383.738129,136.138046 386.308990,139.618668 
	C394.912628,151.266815 403.536896,162.899796 412.132538,174.553848 
	C415.294159,178.840424 418.444122,183.137085 421.512299,187.490524 
	C423.577728,190.421097 424.102478,193.309738 420.601440,195.671539 
	C416.888611,198.176208 412.748474,197.710571 410.560608,194.147583 
	C403.146149,182.072693 404.277039,184.714447 392.854584,187.981369 
	C384.173370,190.464279 384.203613,190.570053 384.173065,199.389969 
	C384.146515,207.054443 382.284454,210.123718 377.626678,210.180588 
	C373.293121,210.233505 371.895264,207.630859 371.743439,199.525131 
	C371.628113,193.369537 371.406433,187.215927 371.167877,180.595490 
M388.009827,177.256744 
	C389.572754,176.725327 391.154144,176.241821 392.693573,175.649292 
	C394.309326,175.027374 395.223877,173.830322 394.343567,172.158203 
	C391.169769,166.129486 387.746857,160.255264 382.641632,154.356049 
	C381.545105,162.408218 382.990814,169.246277 383.279205,176.108444 
	C383.416229,179.369202 385.713745,177.753769 388.009827,177.256744 
z"/>
<path fill="#000000" opacity="1.000000" stroke="none" 
	d="
M698.814819,200.803558 
	C700.788086,219.580521 685.422363,231.014755 668.556213,223.667725 
	C661.788330,220.719543 655.452637,216.992142 651.864319,210.068039 
	C650.406982,207.256119 649.878845,204.396225 652.355164,201.749771 
	C655.449280,198.443130 658.793396,198.488510 661.464844,202.268814 
	C664.202087,206.142029 667.164124,209.680908 671.592163,211.619568 
	C675.803894,213.463577 680.055969,213.973221 683.583923,210.275604 
	C686.712341,206.996613 686.464783,203.413452 682.757019,198.587326 
	C679.821411,194.766357 676.358948,191.342316 673.515686,187.459854 
	C667.528442,179.283997 668.043335,168.852356 674.491821,161.763748 
	C681.701843,153.838104 690.721008,152.391663 700.214172,157.648621 
	C705.651611,160.659683 710.882996,163.886597 713.397644,170.024536 
	C714.510010,172.739594 715.706482,175.709000 712.467407,177.544037 
	C709.203125,179.393372 705.712830,179.535095 703.211670,175.904434 
	C700.800415,172.404282 697.985901,169.517059 693.777466,168.131714 
	C690.593506,167.083557 687.918579,167.345535 685.634644,169.949799 
	C683.220093,172.702927 682.377319,175.654678 684.137512,179.114258 
	C685.665222,182.116806 687.678528,184.727585 690.025574,187.121368 
	C693.795593,190.966400 696.795227,195.327240 698.814819,200.803558 
z"/>
<path fill="#000000" opacity="1.000000" stroke="none" 
	d="
M190.069122,370.912079 
	C198.835251,375.082825 209.023178,369.484741 208.112671,358.603394 
	C208.017807,357.469482 208.268921,356.273438 208.537567,355.148743 
	C209.224930,352.271149 211.077194,350.183685 214.005295,350.149963 
	C217.019653,350.115265 218.577301,352.332977 219.301315,355.222229 
	C223.863510,373.427979 207.432465,390.160736 189.384964,384.875183 
	C177.249207,381.320984 165.691956,375.748291 155.764694,367.713379 
	C143.194550,357.539276 146.775131,333.858185 161.568390,327.043701 
	C164.855103,325.529694 167.849396,325.583221 169.870972,328.873566 
	C171.766098,331.958099 171.512939,334.928802 168.208633,337.112518 
	C166.356766,338.336304 165.064087,340.057190 163.851547,341.865997 
	C158.384506,350.021393 159.330887,355.049011 167.741211,360.038940 
	C174.758209,364.202209 182.131638,367.718719 190.069122,370.912079 
z"/>
<path fill="#000000" opacity="1.000000" stroke="none" 
	d="
M850.583130,341.592346 
	C854.067505,337.535278 857.244629,333.679230 860.586731,329.971863 
	C862.468384,327.884521 864.069153,324.465759 867.820679,327.139648 
	C871.683167,329.892548 872.663635,334.499115 869.810791,338.017151 
	C864.782043,344.218445 859.474121,350.193390 854.287598,356.266998 
	C853.641541,357.023529 853.023315,357.803772 851.682373,359.438171 
	C860.128357,358.950317 867.771240,358.663147 875.384644,358.023834 
	C882.425598,357.432617 885.270264,358.492523 886.999573,363.048462 
	C888.731201,367.610260 887.410828,370.056000 882.480225,370.605194 
	C873.194275,371.639557 863.832825,371.461517 854.546082,371.028320 
	C845.749207,370.617920 837.802063,372.608215 830.061523,376.454834 
	C826.948975,378.001556 823.627258,379.191406 820.302673,380.230011 
	C816.782898,381.329590 814.026489,379.994720 812.543457,376.616150 
	C810.992737,373.083405 812.675659,370.541290 815.482788,368.498291 
	C815.748779,368.304718 816.050476,368.108246 816.363464,368.038788 
	C831.782532,364.618073 841.250916,353.480438 850.583130,341.592346 
z"/>
<path fill="#000000" opacity="1.000000" stroke="none" 
	d="
M498.893127,153.338501 
	C499.299286,161.450974 499.825958,169.089920 499.974396,176.736221 
	C500.079590,182.154022 496.093506,185.254150 491.217224,183.966980 
	C487.374512,182.952652 486.843872,179.997330 486.713531,176.597748 
	C486.152832,161.971420 485.331879,147.353363 484.940948,132.723312 
	C484.825226,128.393539 483.462341,126.584396 479.077545,127.141731 
	C476.944855,127.412804 474.754578,127.202797 472.592865,127.280037 
	C469.378876,127.394882 467.022461,126.518669 466.701385,122.790298 
	C466.373932,118.987854 467.363129,115.901749 471.629669,115.575729 
	C484.056732,114.626144 496.450470,113.030617 508.933990,113.083504 
	C512.858276,113.100121 515.062561,115.615295 514.989563,119.564835 
	C514.919983,123.336395 512.758972,125.041367 508.950409,125.416634 
	C498.018341,126.493797 497.982239,126.596802 498.204010,137.417770 
	C498.309601,142.570145 498.629242,147.718155 498.893127,153.338501 
z"/>
<path fill="#000000" opacity="1.000000" stroke="none" 
	d="
M174.458099,315.021576 
	C169.021942,310.976990 168.538086,309.498413 171.863159,304.636292 
	C178.343338,295.160492 184.995621,285.800049 191.719238,276.494904 
	C193.221497,274.415894 194.837296,271.912720 198.063553,272.395599 
	C202.527527,273.063721 204.534576,277.480103 202.266830,281.465729 
	C202.021027,281.897675 201.695709,282.283844 201.416641,282.697571 
	C195.395416,291.625061 195.377808,291.650269 204.187973,297.945343 
	C214.880951,305.585785 225.661972,313.104370 236.286301,320.838593 
	C239.332748,323.056366 242.805725,325.477692 239.997025,330.234436 
	C237.445633,334.555450 234.071152,335.393646 229.560532,332.161835 
	C220.094498,325.379730 210.805740,318.350677 201.415741,311.461761 
	C197.929810,308.904388 194.328461,306.504059 190.847748,303.939850 
	C188.625900,302.303040 186.967789,302.525177 185.542526,304.954865 
	C184.112579,307.392548 182.524841,309.737122 181.052719,312.150818 
	C179.616119,314.506287 177.721771,315.832001 174.458099,315.021576 
z"/>
<path fill="#000000" opacity="1.000000" stroke="none" 
	d="
M721.693359,224.716400 
	C727.441711,217.149231 732.865967,209.780121 738.533447,202.603088 
	C740.866577,199.648560 740.579285,197.692673 737.399414,195.822083 
	C735.834534,194.901520 734.456665,193.658569 733.013000,192.537308 
	C729.679688,189.948441 728.905518,187.095810 731.913086,183.648865 
	C734.900757,180.224930 737.483826,180.782410 740.832397,183.490509 
	C749.232910,190.284378 757.950562,196.685181 766.511414,203.282074 
	C769.338013,205.460190 771.551147,207.923355 768.823303,211.652328 
	C766.083862,215.397415 763.038391,214.503052 759.708008,212.376343 
	C750.698853,206.623291 750.758789,206.739258 744.336975,215.721481 
	C736.602234,226.540100 729.104858,237.536896 720.468628,247.692368 
	C717.621887,251.039871 714.570557,252.017502 710.969299,249.303391 
	C707.201172,246.463531 707.814392,243.053421 710.313477,239.704559 
	C713.994019,234.772461 717.745789,229.893478 721.693359,224.716400 
z"/>
<path fill="#000000" opacity="1.000000" stroke="none" 
	d="
M302.334381,259.702911 
	C299.064545,260.820190 297.190521,259.232117 295.634918,257.132050 
	C284.652222,242.305389 273.620117,227.514206 262.780731,212.583191 
	C259.055847,207.452240 259.411011,205.181931 263.336121,202.476974 
	C267.023254,199.936050 269.863342,200.601334 273.373932,205.294235 
	C282.136200,217.007507 290.919525,228.710495 299.383057,240.638535 
	C302.057922,244.408325 304.126190,244.857605 307.613403,241.844589 
	C311.378448,238.591522 315.618622,235.895294 319.507935,232.777084 
	C322.763763,230.166794 325.946747,228.993088 329.058655,232.672791 
	C332.396637,236.619797 329.792206,239.558014 326.827698,241.936844 
	C319.055298,248.173691 311.098755,254.177734 302.334381,259.702911 
z"/>
<path fill="#000000" opacity="1.000000" stroke="none" 
	d="
M441.386108,165.648834 
	C444.168457,177.307297 444.171234,177.328049 455.536804,175.808640 
	C459.000610,175.345596 462.459534,174.813568 465.893738,174.169556 
	C469.938843,173.410965 471.844299,175.612473 472.705719,179.051193 
	C473.610748,182.664001 471.777924,185.137604 468.418945,185.730118 
	C458.754913,187.434738 449.042999,188.898712 439.314819,190.193954 
	C435.161682,190.746933 432.588745,188.213318 431.855164,184.349503 
	C428.377289,166.030945 425.087036,147.676865 421.683350,129.344086 
	C420.853333,124.873375 422.975861,122.782684 427.113159,122.151352 
	C431.259064,121.518700 433.441437,123.681641 434.172333,127.453499 
	C436.610565,140.035721 438.948547,152.637375 441.386108,165.648834 
z"/>
<path fill="#000000" opacity="1.000000" stroke="none" 
	d="
M355.285431,193.360687 
	C352.997803,197.326004 348.278290,197.601547 345.557892,200.990295 
	C346.887756,203.758499 348.296814,206.543701 349.572784,209.388611 
	C350.893097,212.332413 349.888947,214.544144 347.159149,216.067413 
	C344.397614,217.608383 342.068420,217.147736 340.231873,214.518677 
	C340.136719,214.382523 340.055145,214.235733 339.950653,214.107422 
	C338.076141,211.806198 337.670349,207.964722 334.830536,206.999146 
	C331.867950,205.991821 329.597473,209.282654 326.833008,210.293381 
	C323.212952,211.616943 320.706573,210.738617 319.040070,207.281387 
	C317.337616,203.749527 318.984222,201.608414 321.990631,200.003632 
	C322.723633,199.612381 323.431213,199.154999 324.199097,198.850815 
	C328.560486,197.123215 329.048248,194.419235 326.456329,190.712036 
	C324.909607,188.499771 323.571014,186.109634 325.297180,183.349030 
	C327.925171,179.146179 332.089264,179.517014 335.125397,184.197815 
	C339.039734,190.232498 339.039734,190.232483 345.305054,187.024094 
	C351.573639,183.814026 354.873047,185.773758 355.285431,193.360687 
z"/>
<path fill="#000000" opacity="1.000000" stroke="none" 
	d="
M522.498840,133.273743 
	C528.608032,133.303589 530.786072,135.259308 529.918274,140.638550 
	C529.255920,144.744766 530.670837,146.181335 534.424927,146.320511 
	C535.415344,146.357239 536.394836,146.637451 537.386353,146.710648 
	C541.243164,146.995331 542.479370,149.375549 542.257019,152.840881 
	C542.043213,156.172775 539.975769,157.260117 536.873230,157.369064 
	C529.485229,157.628479 529.446411,157.684540 528.137207,164.794693 
	C527.454041,168.504852 525.096741,169.755997 521.666443,169.378540 
	C518.232117,169.000656 516.293274,166.699890 517.107971,163.539200 
	C518.633728,157.619446 516.446777,155.723221 510.759308,155.822021 
	C506.950012,155.888199 504.350861,153.889420 504.784393,149.605652 
	C505.203949,145.460587 508.195709,144.560333 511.653107,144.938858 
	C516.514954,145.471100 519.360046,144.241486 518.880249,138.597275 
	C518.694153,136.407608 519.872375,134.415253 522.498840,133.273743 
z"/>
<path fill="#000000" opacity="1.000000" stroke="none" 
	d="
M365.959106,674.003296 
	C369.687592,666.234619 376.104706,664.879456 383.596771,664.915344 
	C409.093323,665.037476 434.591461,664.938293 460.088074,664.777710 
	C462.393860,664.763184 466.149658,666.212769 466.432190,662.075256 
	C466.684204,658.384583 463.928040,657.109802 460.498596,656.861633 
	C449.539764,656.068848 438.602417,654.731689 427.632812,654.402466 
	C415.803589,654.047607 408.482697,649.431641 404.080444,637.726135 
	C391.829681,605.151794 378.520782,572.975281 365.621155,540.645081 
	C363.040405,534.176941 362.602814,533.911743 356.965881,537.933350 
	C347.610413,544.607849 338.441833,551.544067 329.187286,558.360229 
	C325.989410,560.715454 322.963165,563.339478 318.793335,565.291138 
	C314.973511,560.565857 311.951904,555.395325 309.447144,550.081543 
	C306.501465,543.832336 302.467590,541.395996 295.400665,542.013123 
	C281.808380,543.200195 268.142700,543.565125 254.503693,544.188416 
	C250.121063,544.388733 248.292648,546.660889 248.229431,550.875488 
	C247.989594,566.866333 248.550919,582.871826 247.426514,598.846008 
	C247.161423,602.611816 249.564514,602.772339 252.269760,602.714478 
	C265.760254,602.425964 279.256989,602.304688 292.738617,601.788086 
	C297.892639,601.590576 301.290375,603.337158 304.648804,607.352173 
	C315.345795,620.140259 327.398102,631.693909 339.317810,643.329224 
	C343.105865,647.026855 344.120026,650.523560 342.018188,655.298096 
	C337.992493,664.442871 334.108368,673.650818 330.252411,682.868896 
	C328.998993,685.865295 326.993195,686.894043 323.923920,685.958801 
	C323.286438,685.764526 322.642761,685.587830 322.013000,685.371033 
	C306.036804,679.870667 307.146088,682.490723 306.760803,665.824219 
	C306.662537,661.575439 305.222107,659.929077 300.788879,660.162659 
	C284.491333,661.021118 268.180328,661.644043 251.869263,662.207153 
	C248.823944,662.312195 247.317184,663.475769 246.796661,666.440247 
	C245.732056,672.503296 244.490875,678.535156 243.353882,684.585754 
	C242.830002,687.373657 243.345474,689.890442 245.504593,691.908081 
	C245.625900,692.021423 245.732330,692.151489 245.840042,692.278564 
	C256.919098,705.352173 256.919128,705.353333 273.939850,704.978577 
	C276.938812,704.912537 279.956573,705.017639 282.931274,704.710510 
	C286.554810,704.336426 288.850677,705.781311 290.715485,708.821472 
	C295.441711,716.526611 294.966766,716.337036 288.832977,723.001038 
	C279.265991,733.395264 268.361877,737.935059 253.971695,736.723267 
	C245.981720,736.050415 239.930939,734.593506 234.470566,728.371521 
	C225.358459,717.988403 215.462860,708.284973 205.740906,698.449829 
	C202.815002,695.489807 201.582108,692.327820 201.858566,688.178894 
	C202.699966,675.551697 203.365768,662.911621 203.974548,650.270569 
	C204.195908,645.674255 205.955948,642.098755 209.336349,638.923828 
	C216.136230,632.537354 222.546234,625.735901 229.341003,619.343750 
	C232.470642,616.399475 233.850647,613.307129 233.886719,608.891357 
	C234.047256,589.237244 234.690735,569.587585 234.980759,549.933655 
	C235.080032,543.206726 238.588211,538.790771 243.626053,535.024780 
	C257.370728,524.750061 271.235931,514.625061 284.724213,504.022003 
	C300.062683,491.964600 316.364288,481.247162 331.860321,469.424927 
	C336.846069,465.621216 342.597321,465.137756 348.443085,465.033813 
	C358.939697,464.847137 369.441437,464.724335 379.937683,464.851990 
	C384.182220,464.903625 386.086670,463.519989 385.798340,459.084198 
	C385.528687,454.935242 385.508057,450.740112 385.792084,446.593658 
	C386.073975,442.478668 384.110931,440.962463 380.389404,440.500244 
	C375.939392,439.947571 371.467834,439.363892 367.104858,438.361603 
	C360.119995,436.757019 357.228851,433.622101 357.134735,426.585022 
	C356.871796,406.924561 356.841156,387.258514 356.984589,367.596588 
	C357.030640,361.280884 361.737946,356.883209 368.570801,355.908997 
	C372.030212,355.415741 375.511292,354.903351 378.994995,354.793457 
	C383.713928,354.644653 386.021301,352.769653 385.762146,347.758209 
	C385.495728,342.606415 385.649963,337.427734 385.749573,332.263306 
	C385.961761,321.260773 392.942749,314.035095 403.904938,313.829956 
	C416.233429,313.599274 428.568451,313.741821 440.899902,313.638184 
	C460.392090,313.474335 479.883575,313.140015 499.375671,313.112915 
	C503.818207,313.106750 505.398346,311.433350 505.009460,307.177917 
	C504.782837,304.698151 504.754333,302.163757 504.983154,299.685913 
	C505.593018,293.081299 504.448334,288.261780 497.977325,283.931396 
	C488.113678,277.330658 488.173859,261.983337 496.741577,253.538239 
	C505.164856,245.235504 519.950867,245.858795 527.611267,254.839462 
	C535.471375,264.054291 533.966003,278.754028 523.747192,285.112915 
	C518.809509,288.185516 517.402344,291.617004 517.937378,296.911438 
	C518.337891,300.874878 518.172546,304.903961 518.120117,308.901978 
	C518.081055,311.876587 519.421021,313.062836 522.354980,313.062653 
	C538.004578,313.061737 553.654480,313.100403 569.303711,313.209778 
	C587.462097,313.336700 605.625549,313.337250 623.775879,313.811035 
	C633.969543,314.077087 640.965149,321.758331 641.201477,332.065643 
	C641.331360,337.728668 641.312195,343.398987 641.190674,349.062378 
	C641.124329,352.159149 642.314453,353.543610 645.483643,353.842590 
	C650.449097,354.311035 655.417297,354.980896 660.308655,355.948029 
	C666.617615,357.195465 670.159973,361.476135 670.182068,367.933014 
	C670.250549,387.930573 670.199097,407.928802 670.110413,427.926422 
	C670.088379,432.896545 667.190308,436.368652 661.928528,437.927765 
	C657.119202,439.352814 652.136780,439.895233 647.157776,440.344330 
	C643.663086,440.659546 641.622925,442.087982 641.797546,445.986572 
	C641.991028,450.305450 642.095032,454.648926 641.857178,458.960693 
	C641.621765,463.230408 643.078674,464.848969 647.555542,464.760925 
	C659.548889,464.525055 671.552795,464.870758 683.548889,464.711334 
	C689.684448,464.629791 694.930908,466.507812 699.785095,470.111176 
	C729.079285,491.856781 758.393066,513.576111 787.742676,535.246887 
	C792.801147,538.981873 795.268799,543.652893 795.401917,550.080872 
	C795.822388,570.395569 796.637085,590.701904 797.216736,611.013855 
	C797.283020,613.336182 797.945312,615.129089 799.620361,616.763794 
	C807.131592,624.094543 814.469055,631.605835 822.074219,638.836365 
	C824.769409,641.398743 826.509216,644.123474 826.718384,647.851746 
	C827.520508,662.146667 828.344360,676.440491 829.214172,690.731384 
	C829.382751,693.501221 828.074768,695.549072 826.312012,697.380920 
	C814.643738,709.506409 802.932800,721.590820 791.269653,733.721130 
	C789.523499,735.537231 787.484009,736.260925 785.011169,736.247131 
	C777.178955,736.203552 769.346191,736.229553 761.513672,736.248169 
	C759.644714,736.252625 757.836365,736.086182 756.340271,734.812378 
	C750.633240,729.953552 744.920105,725.101746 739.239319,720.212402 
	C737.027649,718.308899 736.949402,716.152832 738.146606,713.491577 
	C742.080933,704.746216 742.001404,704.720215 751.472656,704.836914 
	C756.971619,704.904602 762.480530,704.754395 767.967163,705.041687 
	C772.004944,705.253113 775.025879,703.880737 777.552002,700.819580 
	C780.095276,697.737671 782.812500,694.797852 785.489014,691.827759 
	C787.406006,689.700500 788.172241,687.264221 787.645325,684.447205 
	C786.605103,678.885254 785.503845,673.334412 784.513550,667.763733 
	C783.863037,664.105103 781.925171,662.372437 778.072632,662.237244 
	C762.093750,661.676514 746.115723,661.039368 730.150269,660.187439 
	C725.705688,659.950256 724.371887,661.668152 724.204224,665.888245 
	C723.489136,683.894226 724.567505,679.642700 709.924194,685.080139 
	C702.919128,687.681335 702.577759,687.398499 699.656311,680.391968 
	C696.323853,672.399719 693.237061,664.294189 689.597778,656.444580 
	C687.075928,651.005188 687.674438,646.886658 692.079224,642.632385 
	C701.543335,633.491760 710.645447,623.976318 719.890259,614.608887 
	C721.060608,613.423096 722.542725,612.388000 723.294922,610.972107 
	C727.923645,602.259827 735.460205,601.082764 744.403381,601.633850 
	C755.366333,602.309387 766.394226,601.865356 777.388672,602.128540 
	C781.420166,602.225037 783.025208,600.935242 782.944275,596.690552 
	C782.664368,582.029419 782.733887,567.361816 782.601379,552.697327 
	C782.538635,545.759399 781.255798,544.047546 774.229919,543.673523 
	C759.596008,542.894592 744.938110,542.573059 730.291870,542.014343 
	C727.647400,541.913452 725.916077,543.051025 724.600220,545.265930 
	C721.708252,550.134033 718.693726,554.929260 715.769592,559.778564 
	C714.576233,561.757629 713.587280,563.875916 711.210022,565.785950 
	C697.096924,555.346985 682.990601,544.913025 669.097595,534.636841 
	C666.491882,536.089722 666.198364,538.221252 665.482727,540.011292 
	C652.745850,571.870117 640.011902,603.730225 627.377625,635.629822 
	C621.368225,650.802612 617.262329,653.659546 601.032288,654.313049 
	C590.888062,654.721497 580.764648,655.655518 570.633972,656.382202 
	C569.643677,656.453308 568.671021,656.744995 567.684631,656.898987 
	C564.315247,657.424805 563.285706,659.950623 563.486633,662.728149 
	C563.702637,665.715088 566.463989,664.808228 568.263855,664.813660 
	C595.594116,664.896545 622.925537,665.032776 650.254395,664.838257 
	C656.600586,664.793152 660.764771,666.960571 664.229919,672.357239 
	C677.909241,693.661194 691.940063,714.739502 705.851746,735.894104 
	C712.335510,745.753662 712.354553,755.891907 706.966553,766.126709 
	C704.175293,771.428772 700.874817,776.462280 698.070801,781.758118 
	C695.779236,786.086060 692.240234,787.852539 687.569641,788.135071 
	C658.633545,789.885132 629.687378,791.346436 600.684998,791.037598 
	C596.696533,790.995117 592.674805,790.712036 588.736084,790.103088 
	C582.094238,789.076172 576.567932,786.481262 572.986511,780.067749 
	C566.084900,767.708801 558.575745,755.690674 551.486938,743.433838 
	C549.688232,740.323792 547.501160,739.104492 543.875366,739.137024 
	C525.045288,739.305725 506.212067,739.341553 487.382477,739.158630 
	C483.491547,739.120850 481.375275,740.529297 479.507965,743.807678 
	C472.418274,756.254883 464.954193,768.488647 457.852844,780.929382 
	C453.825836,787.984131 447.035736,789.651733 440.019684,790.105774 
	C410.535583,792.013733 381.102081,789.947571 351.654266,788.591431 
	C333.041870,787.734314 337.272522,787.602905 328.495026,773.657471 
	C327.077484,771.405334 325.839386,769.036621 324.582672,766.687439 
	C318.651611,755.600525 319.701874,744.919373 326.464813,734.561462 
	C339.574860,714.482727 352.667969,694.393005 365.959106,674.003296 
M565.122803,619.751587 
	C569.216370,602.592590 571.953735,585.144470 576.307190,568.033752 
	C578.694519,558.650879 574.749268,553.453613 565.532471,553.427002 
	C531.883423,553.329834 498.233948,553.319275 464.584839,553.383972 
	C456.023376,553.400452 452.122070,558.293396 453.773529,566.747620 
	C458.334076,590.093933 462.978424,613.423828 467.630371,636.752136 
	C469.150696,644.376282 473.021515,647.514099 480.820282,647.588562 
	C491.141449,647.687195 501.462891,647.755127 511.784210,647.835022 
	C518.926514,647.890320 525.883667,648.359497 530.270203,655.305237 
	C530.680542,655.955017 531.560181,656.345520 532.278625,656.757446 
	C536.275024,659.049011 539.004761,657.847778 539.507202,653.234192 
	C539.750793,650.998169 540.895996,650.046631 542.597229,649.175720 
	C545.184937,647.851013 548.035767,647.653137 550.815186,647.178101 
	C557.639832,646.011536 560.286621,643.468750 561.632751,636.709656 
	C562.705322,631.323792 563.818848,625.946045 565.122803,619.751587 
M532.872437,459.000458 
	C533.371765,457.864258 533.200073,456.277405 535.224915,455.848755 
	C538.140259,459.210205 538.004578,463.773254 539.397766,467.725403 
	C540.435120,470.668091 541.975403,472.095673 545.181702,471.983063 
	C550.004333,471.813629 554.854553,471.656494 559.659424,471.985474 
	C564.035767,472.285126 566.434021,470.906708 567.463501,466.432343 
	C568.076721,463.767303 568.258179,460.497314 571.326660,458.707214 
	C574.080933,461.542358 573.495117,465.112000 574.146790,468.252533 
	C574.743103,471.126221 575.766663,473.011566 579.059631,472.344025 
	C582.221497,471.703003 582.948853,469.862457 582.011658,466.814606 
	C579.909790,459.979218 578.056824,453.067657 576.036804,446.206451 
	C575.534546,444.500458 575.253357,442.578827 573.317749,441.685364 
	C571.217102,441.835724 570.193054,443.502441 568.978638,444.801941 
	C565.115173,448.936249 561.221313,453.050720 557.546082,457.349701 
	C554.942322,460.395325 552.806152,460.754944 549.828003,457.677124 
	C545.086487,452.777008 539.917480,448.293488 535.068054,443.493561 
	C532.962341,441.409363 531.303589,441.350098 529.176697,443.428925 
	C524.654541,447.848907 519.816528,451.955902 515.434143,456.505402 
	C512.553650,459.495728 510.454102,459.325073 507.580872,456.536591 
	C503.046204,452.135559 498.058899,448.202911 493.485840,443.838715 
	C490.885529,441.357147 488.858551,441.282501 486.327209,443.843353 
	C481.764709,448.459015 476.850494,452.735718 472.415436,457.465546 
	C469.447571,460.630676 467.398010,460.201233 464.750122,457.170685 
	C460.810699,452.662048 456.616821,448.369293 452.416779,444.097229 
	C449.966888,441.605286 448.130096,442.037994 447.149139,445.567474 
	C445.145203,452.777161 443.108704,459.978973 440.970459,467.149658 
	C440.082001,470.129028 441.546326,471.726685 444.018311,472.420074 
	C446.617462,473.149139 448.627594,471.982300 449.414093,469.318665 
	C449.834290,467.895508 449.759491,466.325623 450.183899,464.904358 
	C450.839294,462.709503 450.367737,459.914581 453.119110,458.386108 
	C455.487061,460.932434 455.946625,463.961273 456.612366,466.810272 
	C457.515289,470.674011 459.529205,472.401276 463.648987,472.083557 
	C467.787415,471.764404 471.994781,471.696045 476.123871,472.061310 
	C481.300385,472.519257 484.043793,470.871338 485.109528,465.444153 
	C485.782776,462.015594 485.706360,457.840851 489.167816,455.144287 
	C492.901520,458.543732 492.055389,462.796387 492.144806,466.625397 
	C492.241028,470.744415 493.921265,472.199188 497.933136,472.070648 
	C504.752869,471.852203 511.583435,471.948456 518.409424,471.954132 
	C533.480286,471.966644 529.978088,473.028809 532.872437,459.000458 
M544.206299,686.066223 
	C525.044312,686.146179 505.881989,686.317505 486.720673,686.238281 
	C482.239197,686.219788 480.584869,687.946350 481.328766,692.216614 
	C483.041687,702.049316 484.744781,711.883911 486.510406,721.707153 
	C487.020233,724.543884 488.752838,725.992432 491.746582,725.979980 
	C506.741547,725.917725 521.736694,725.888733 536.731812,725.886902 
	C540.696533,725.886475 542.940247,723.939941 543.661865,720.120544 
	C545.546631,710.143799 547.343506,700.149597 549.338562,690.195007 
	C550.113342,686.329041 547.940979,685.983154 544.206299,686.066223 
M672.120483,717.228943 
	C647.086975,717.999512 622.053467,718.770081 596.020447,719.571411 
	C599.333008,725.409180 602.102234,730.296875 604.879333,735.179993 
	C606.101624,737.329163 608.029053,737.825684 610.382263,737.812988 
	C630.544373,737.704224 650.710144,737.848083 670.867371,737.493591 
	C676.543335,737.393677 682.381165,737.747742 688.904175,736.249268 
	C685.287964,729.824707 682.192322,724.013245 678.037231,718.821228 
	C676.732666,717.191223 674.872986,717.170349 672.120483,717.228943 
M427.900543,719.282715 
	C405.273071,718.569031 382.645996,717.841980 360.017456,717.163879 
	C357.905426,717.100586 355.422546,716.449402 353.889496,718.395813 
	C349.591858,723.852051 346.085144,729.815674 342.854065,735.861877 
	C344.861420,737.748962 346.935120,737.627747 348.873718,737.634399 
	C372.356842,737.715454 395.840240,737.722229 419.323364,737.801331 
	C422.068024,737.810608 424.165863,736.948853 425.572418,734.516724 
	C427.489563,731.201599 429.443726,727.907410 431.421143,724.627808 
	C433.363190,721.406860 432.533295,719.633850 427.900543,719.282715 
M278.847229,646.349426 
	C280.503632,646.226685 282.165436,646.153015 283.815491,645.972290 
	C289.598877,645.338806 290.738892,643.940430 290.137695,637.988464 
	C289.940186,636.033447 290.636261,634.389282 291.481262,632.777466 
	C293.254578,629.394836 295.234131,626.115845 296.904236,622.684875 
	C298.781494,618.828430 296.973358,615.255005 292.889771,615.232788 
	C281.596863,615.171204 270.275818,615.001465 259.016205,615.693298 
	C249.245667,616.293579 247.962875,618.625427 250.177460,628.184448 
	C251.199249,632.594971 252.112991,636.720520 249.046432,641.006531 
	C246.723099,644.253784 249.405457,647.353088 251.289780,650.020447 
	C253.126266,652.619995 256.294769,652.878845 258.446014,651.329712 
	C264.404694,647.039062 271.177399,646.948669 278.847229,646.349426 
M384.853119,389.500000 
	C384.853333,384.679779 384.865631,379.859497 384.851440,375.039307 
	C384.812439,361.782562 384.822266,361.860413 371.515869,364.291992 
	C367.587250,365.009888 365.828278,366.776489 365.881622,370.946259 
	C366.079285,386.401703 365.896912,401.862091 366.109192,417.317169 
	C366.291962,430.626831 363.942932,429.208801 378.273193,431.937256 
	C384.257904,433.076721 384.870941,432.659088 384.897156,426.402008 
	C384.947205,414.434937 384.874298,402.467377 384.853119,389.500000 
M658.984131,365.251251 
	C656.397217,364.649475 653.830444,363.935730 651.219666,363.466553 
	C642.911011,361.973480 642.259155,362.531525 642.261780,370.845367 
	C642.266907,387.322357 642.283752,403.799347 642.301392,420.276337 
	C642.315186,433.187195 642.276611,432.980957 655.230103,430.325806 
	C659.781433,429.392883 661.180176,427.338654 661.161072,422.908417 
	C661.085266,405.271545 661.279114,387.633301 661.427490,369.996033 
	C661.442444,368.218414 661.204468,366.690369 658.984131,365.251251 
M378.122772,700.171204 
	C379.614929,700.292480 381.113739,700.573120 382.598206,700.510864 
	C400.722778,699.751038 418.861816,699.651917 436.965393,700.573120 
	C444.265564,700.944519 448.444977,698.177979 451.149658,691.744263 
	C452.953796,687.452698 452.631042,686.424133 447.927887,686.195801 
	C426.670074,685.163513 405.411346,684.145935 384.148743,683.220215 
	C376.158478,682.872314 368.302490,690.713806 367.946655,699.239807 
	C370.904480,700.709778 374.124634,699.848145 378.122772,700.171204 
M628.500000,700.068115 
	C640.038330,700.068115 651.576599,700.068115 663.783691,700.068115 
	C662.377808,694.961914 659.825073,692.038940 658.065735,688.717285 
	C655.803040,684.445251 652.570984,682.742554 647.530518,683.102600 
	C629.446594,684.394104 611.342041,685.387939 593.195190,685.455566 
	C587.995667,685.474915 582.798950,686.242004 577.535156,686.671570 
	C579.719788,697.155273 583.156128,700.090088 592.549438,700.089233 
	C604.199646,700.088257 615.849792,700.075378 628.500000,700.068115 
M551.791992,388.371002 
	C547.500427,391.076569 542.282288,392.303375 538.800415,396.153442 
	C538.982056,396.769592 538.994812,397.144897 539.179443,397.391296 
	C546.083618,406.601715 560.262268,410.308838 570.677124,405.643250 
	C583.067871,400.092499 589.440002,388.141693 586.693420,375.604645 
	C585.732605,371.218719 584.197876,370.543274 579.998169,372.844025 
	C570.801575,377.882263 561.637329,382.979370 551.791992,388.371002 
M683.465393,754.831970 
	C685.795227,754.841187 688.125305,754.831177 690.454834,754.864258 
	C693.371887,754.905823 696.028931,754.491699 695.745056,750.682739 
	C695.489014,747.248718 695.675415,743.206482 690.534851,743.224548 
	C665.084473,743.314026 639.634216,743.459106 614.184082,743.607300 
	C611.309021,743.624023 610.060303,744.772888 610.554321,747.995789 
	C611.291748,752.807007 613.607849,754.715576 618.566284,754.689087 
	C639.869080,754.575256 661.173340,754.750671 683.465393,754.831970 
M400.471161,754.653687 
	C405.460327,754.462524 410.452240,754.324158 415.437897,754.065613 
	C420.701599,753.792847 419.995697,749.301453 420.292603,746.194519 
	C420.589172,743.090637 417.443665,743.473389 415.431335,743.464172 
	C391.112305,743.352661 366.792847,743.289368 342.473602,743.311523 
	C337.733368,743.315857 335.203339,746.205322 335.366272,750.958679 
	C335.529175,755.710022 339.229401,754.785461 342.012451,754.789368 
	C361.168182,754.815918 380.324127,754.718506 400.471161,754.653687 
M444.446930,398.014801 
	C454.446075,410.611542 473.179138,408.889374 482.057648,401.079712 
	C486.078674,397.542694 486.139801,395.917023 481.576385,393.394104 
	C469.228821,386.567749 456.832458,379.828369 444.402405,373.153351 
	C440.217590,370.906006 438.685486,371.781311 438.230835,376.448273 
	C437.478607,384.170135 438.909332,391.329987 444.446930,398.014801 
M365.337372,516.334045 
	C373.620331,519.069702 379.907837,517.508179 385.148468,511.413910 
	C389.557617,506.286530 390.036896,499.748138 386.515015,492.770508 
	C383.147400,486.098541 377.268463,482.615417 370.432648,483.242096 
	C363.021973,483.921509 356.819061,489.564545 355.276917,497.029846 
	C353.595490,505.169617 356.714630,511.483185 365.337372,516.334045 
M671.537415,491.075317 
	C670.680908,490.058319 669.910583,488.950958 668.954041,488.038879 
	C662.398926,481.788391 652.794739,481.522247 646.305481,487.364319 
	C639.094177,493.856384 637.950928,503.832031 643.580017,511.146179 
	C648.691589,517.787903 658.114746,519.385376 665.611816,514.881042 
	C674.282043,509.671906 676.533386,501.404663 671.537415,491.075317 
M807.026245,706.527222 
	C810.844910,702.242493 815.449646,698.613281 818.611328,693.168396 
	C814.382690,689.646545 809.600220,687.664734 805.364990,684.858032 
	C802.819458,683.171204 800.851990,683.534058 798.862915,685.776367 
	C794.680481,690.491272 790.541199,695.262268 786.095520,699.722412 
	C775.531372,710.321106 775.542053,710.201721 783.967224,722.985352 
	C786.211914,726.391235 788.084412,726.760498 790.860657,723.728333 
	C796.014404,718.099609 801.302124,712.593506 807.026245,706.527222 
M377.400269,760.973633 
	C364.678406,760.973633 351.956573,760.973633 338.831757,760.973633 
	C339.653076,766.693542 341.721893,769.043091 346.514038,769.001587 
	C369.980103,768.798279 393.447479,768.749023 416.914276,768.621826 
	C419.050018,768.610229 421.279419,768.812439 423.230347,766.956604 
	C423.049561,762.603821 421.394257,760.132935 416.293182,760.245361 
	C403.653534,760.524048 390.999786,760.075806 377.400269,760.973633 
M614.880554,760.310486 
	C609.898560,759.761230 607.956238,762.300171 607.945312,766.917419 
	C609.818604,768.380798 611.893555,767.978699 613.819763,768.006409 
	C637.087891,768.341553 660.359497,768.498779 683.623840,768.998535 
	C688.962341,769.113159 690.912109,766.386292 692.310425,761.370361 
	C666.508057,761.015503 641.153809,760.666870 614.880554,760.310486 
M760.051270,627.613159 
	C761.346741,635.253357 766.549011,640.125793 772.249268,644.564209 
	C774.064148,645.977356 776.270569,646.207336 778.292603,644.679626 
	C779.674011,643.635925 781.213928,642.034241 780.467957,640.516541 
	C777.496094,634.469666 780.634949,629.088684 782.040894,623.610229 
	C783.126648,619.379517 781.502136,616.834900 777.871155,616.047241 
	C771.496521,614.664307 764.921387,614.894958 758.470093,615.660400 
	C754.866028,616.087952 754.242859,618.576843 756.264709,621.489197 
	C757.494446,623.260620 759.106873,624.770813 760.051270,627.613159 
M655.489929,706.083435 
	C633.515930,706.185486 611.541931,706.287537 589.148010,706.391602 
	C591.279968,712.486938 591.798218,713.002258 596.585510,712.974426 
	C620.069946,712.837952 643.529175,711.326538 667.024109,711.651428 
	C668.606384,711.673401 670.832458,711.919434 670.935059,709.629333 
	C671.040771,707.270996 669.276184,706.096741 666.975952,706.060913 
	C663.479370,706.006470 659.981140,706.065369 655.489929,706.083435 
M401.931488,712.533630 
	C412.737305,712.711121 423.543121,712.886353 434.348877,713.067566 
	C437.078369,713.113342 439.632721,712.565613 439.661438,709.262695 
	C439.692566,705.679688 436.682709,706.337402 434.486450,706.319153 
	C423.845062,706.230652 413.202911,706.244690 402.561066,706.201172 
	C390.422852,706.151611 378.284729,706.065857 366.146484,706.027039 
	C363.006927,706.017029 360.022827,706.315369 360.253143,710.585327 
	C360.649567,710.901184 360.899811,711.275757 361.161255,711.283691 
	C374.439941,711.688232 387.719604,712.061401 401.931488,712.533630 
M520.344482,275.776764 
	C524.102417,270.100555 523.825806,263.872803 519.642212,259.964142 
	C515.456177,256.053253 509.008698,255.694870 504.588593,259.127380 
	C499.570679,263.024139 498.560913,269.691589 502.246674,274.591522 
	C506.456451,280.188110 513.434570,280.878418 520.344482,275.776764 
M457.318665,726.017944 
	C456.478241,727.674194 455.928619,729.424805 456.001984,731.286682 
	C456.109375,734.012817 456.487000,737.120544 459.215118,738.098022 
	C462.348877,739.220825 463.092560,735.731689 464.495514,733.887451 
	C465.692596,732.313904 466.792084,730.550232 466.656738,728.425903 
	C466.444061,725.087830 468.188416,720.339294 464.228241,719.081665 
	C460.357025,717.852173 459.483154,722.753479 457.318665,726.017944 
M566.145752,732.037415 
	C566.973816,733.474365 567.785522,734.921143 568.633362,736.346313 
	C570.521606,739.520508 572.302612,739.274109 574.016418,736.175598 
	C577.189148,730.439453 573.125854,720.638000 566.587219,718.850220 
	C564.318481,722.867432 564.966797,727.079102 566.145752,732.037415 
M616.903503,678.735657 
	C618.596680,678.542053 620.389221,678.696899 623.132629,676.799988 
	C606.948975,677.686218 592.204895,675.563354 577.391663,676.246033 
	C575.746826,676.321777 573.932800,676.231689 573.514404,679.429199 
	C587.771362,680.801819 601.908508,678.998657 616.903503,678.735657 
M402.746490,521.320007 
	C398.799011,522.016296 397.096222,524.564819 397.294647,528.359619 
	C397.451416,531.357666 399.225403,533.277710 402.200836,533.750793 
	C406.018585,534.357910 408.711639,532.859436 409.658569,528.971863 
	C410.621094,525.020142 408.432373,522.366211 402.746490,521.320007 
M633.331726,529.622803 
	C634.606018,525.853882 633.381226,522.865967 629.791443,521.562988 
	C626.725708,520.450195 623.350281,520.715881 621.695007,524.268188 
	C620.305420,527.250366 620.779541,530.261963 623.528870,532.277588 
	C627.248230,535.004517 630.338196,533.449646 633.331726,529.622803 
M454.458466,751.822937 
	C454.720551,751.215454 455.071960,750.630188 455.229950,749.996765 
	C456.162354,746.258362 454.316559,740.908875 451.624847,740.700745 
	C447.434448,740.376648 447.269318,744.373718 446.015778,747.042358 
	C445.676514,747.764648 445.450439,748.679932 445.563446,749.449158 
	C445.940125,752.013245 445.692322,755.241028 448.567444,756.322510 
	C451.649109,757.481750 452.602600,754.302307 454.458466,751.822937 
M585.651794,748.738098 
	C584.843079,745.156250 583.242065,742.020691 580.294067,739.030334 
	C576.873962,742.139221 574.927795,745.468506 576.397766,749.952759 
	C577.324646,752.780457 578.695251,756.309143 581.913940,756.159424 
	C585.228882,756.005127 585.217468,752.237061 585.651794,748.738098 
M536.804443,668.528320 
	C537.377075,669.338562 537.812195,670.313782 538.548645,670.927429 
	C540.570984,672.612427 542.463562,676.173645 545.504395,673.555054 
	C548.354675,671.100525 546.997253,667.759094 545.184326,664.966064 
	C544.654541,664.149841 543.935303,663.352234 543.116760,662.848511 
	C541.116089,661.617004 539.179504,658.940613 536.574768,661.046997 
	C534.189697,662.975830 535.336304,665.563477 536.804443,668.528320 
M426.765991,637.625671 
	C430.365845,637.995300 432.332153,635.922913 433.314819,632.870056 
	C434.135559,630.320190 432.831024,628.335083 430.648285,627.102783 
	C427.578003,625.369324 424.697083,625.999451 423.011444,629.027649 
	C420.961731,632.709900 422.232117,635.659851 426.765991,637.625671 
M597.787292,630.144531 
	C597.241516,631.488525 597.507507,632.761841 598.171448,633.974243 
	C599.957764,637.235962 602.900879,637.665527 605.882263,636.410645 
	C608.692810,635.227539 609.707947,632.519714 608.461365,629.739868 
	C607.034729,626.558533 604.191772,625.746521 600.926025,626.825623 
	C599.632812,627.252930 598.695435,628.242493 597.787292,630.144531 
M411.853119,676.902710 
	C410.894043,676.999023 409.934937,677.095337 408.975830,677.191650 
	C418.107117,679.051331 427.235168,679.925781 436.465424,678.627258 
	C428.604401,676.527161 420.610291,676.393127 411.853119,676.902710 
z"/>
<path fill="#000000" opacity="1.000000" stroke="none" 
	d="
M473.896881,579.485352 
	C470.841766,577.687012 469.609436,575.494812 470.848846,571.744263 
	C474.059113,574.232849 476.992065,574.944458 480.681824,572.812012 
	C482.692749,571.649841 483.337799,574.329407 482.707825,575.935730 
	C481.183105,579.823608 478.186981,580.942383 473.896881,579.485352 
z"/>
</svg>