<?xml version="1.0" standalone="no"?>
<!DOCTYPE svg PUBLIC "-//W3C//DTD SVG 20010904//EN"
 "http://www.w3.org/TR/2001/REC-SVG-20010904/DTD/svg10.dtd">
<svg version="1.0" xmlns="http://www.w3.org/2000/svg"
 width="1600.000000pt" height="1600.000000pt" viewBox="0 0 1600.000000 1600.000000"
 preserveAspectRatio="xMidYMid meet">

<g transform="translate(0.000000,1600.000000) scale(0.100000,-0.100000)"
fill="#000000" stroke="none">
<path d="M7905 13491 c-94 -24 -146 -53 -200 -113 -62 -69 -90 -134 -100 -233
-16 -163 66 -318 206 -386 28 -14 52 -33 55 -44 2 -11 3 -103 2 -205 l-3 -185
-825 -5 c-822 -5 -825 -5 -865 -27 -58 -31 -100 -77 -132 -141 -28 -56 -28
-60 -33 -289 -3 -135 -9 -236 -15 -242 -6 -5 -109 -11 -230 -13 -137 -3 -231
-9 -248 -16 -56 -24 -57 -32 -57 -599 0 -285 3 -535 7 -557 8 -51 56 -98 121
-119 40 -13 90 -17 231 -17 l181 0 6 -26 c11 -43 -3 -296 -16 -304 -6 -4 -179
-10 -383 -12 -265 -4 -381 -9 -402 -18 -80 -33 -136 -64 -172 -94 -21 -18 -58
-46 -83 -63 -25 -17 -54 -40 -65 -50 -11 -11 -39 -33 -61 -49 -22 -16 -46 -35
-54 -42 -28 -24 -165 -133 -220 -175 -30 -22 -64 -49 -75 -60 -11 -10 -80 -64
-153 -120 -73 -56 -159 -122 -191 -147 -32 -25 -110 -84 -172 -131 -135 -102
-212 -181 -239 -244 -18 -42 -19 -74 -21 -542 -1 -413 -4 -503 -16 -530 -8
-17 -85 -100 -170 -185 -179 -175 -269 -268 -292 -300 -18 -26 -25 -126 -37
-518 -6 -212 -5 -249 9 -275 13 -26 322 -340 457 -465 25 -23 74 -69 110 -104
107 -102 84 -96 373 -96 l254 0 44 31 c24 18 76 60 114 93 39 34 87 73 107 86
21 14 38 30 38 36 0 13 -68 174 -93 222 -21 39 -45 41 -84 8 -48 -41 -176 -52
-323 -30 -40 6 -150 54 -150 65 0 4 -8 10 -18 13 -27 9 -147 134 -184 191 -46
72 -88 199 -88 265 0 236 184 467 418 524 106 26 348 11 382 -24 7 -7 43 -29
60 -37 16 -7 103 -93 135 -134 32 -41 44 -60 78 -129 28 -57 32 -75 32 -145 0
-44 -3 -94 -7 -110 -4 -17 -4 -36 0 -42 4 -7 53 -25 110 -41 56 -17 118 -39
138 -51 55 -33 82 -28 100 17 9 20 42 91 74 157 32 66 68 143 80 170 22 50 54
114 84 170 9 17 16 40 16 52 0 16 -77 101 -265 290 -146 147 -266 274 -266
283 -1 8 -1 132 0 275 2 240 4 261 21 275 10 8 51 40 90 70 40 30 78 60 84 65
6 6 31 26 56 45 25 19 47 37 50 40 3 3 26 22 52 43 26 21 53 43 60 50 7 7 38
31 68 54 30 23 64 50 75 60 11 10 43 33 70 50 l50 33 17 -23 c10 -12 20 -35
23 -52 3 -16 10 -39 14 -50 4 -11 27 -67 50 -125 24 -58 63 -159 87 -225 25
-66 51 -133 58 -150 19 -43 41 -100 72 -185 15 -41 30 -79 34 -85 4 -5 25 -59
45 -120 21 -60 48 -132 61 -159 13 -28 24 -54 24 -59 0 -5 6 -23 14 -40 7 -18
21 -52 31 -77 10 -25 25 -63 35 -85 9 -22 36 -94 60 -160 67 -184 120 -247
223 -266 28 -5 219 -12 424 -17 204 -4 374 -10 378 -13 3 -4 7 -26 8 -50 l2
-44 -720 -5 c-396 -3 -725 -9 -732 -13 -16 -10 -92 -111 -123 -162 -31 -52
-141 -222 -403 -622 -48 -73 -87 -135 -87 -138 0 -3 -5 -11 -10 -18 -30 -35
-160 -240 -160 -252 0 -8 -4 -17 -10 -20 -6 -4 -10 -59 -10 -132 0 -126 0
-127 37 -202 21 -42 43 -82 50 -89 7 -8 36 -52 65 -98 56 -92 107 -150 144
-164 57 -22 274 -30 809 -30 314 0 642 5 729 10 141 9 164 13 207 36 64 35 98
74 149 169 23 44 46 85 50 90 4 6 22 37 40 70 18 33 56 96 85 140 28 44 71
113 96 152 l44 73 497 0 497 0 48 -76 c27 -42 64 -102 84 -133 20 -31 66 -103
102 -161 56 -92 78 -128 131 -225 14 -26 80 -85 114 -103 15 -7 68 -20 117
-29 77 -13 182 -14 730 -8 774 8 862 11 894 32 46 30 105 109 234 315 37 58
47 111 47 241 0 127 0 130 -35 198 -19 38 -76 132 -127 209 -51 76 -124 189
-163 250 -218 345 -397 618 -428 653 l-28 32 -735 3 -734 2 0 44 c0 67 1 68
410 73 195 2 376 9 402 15 88 19 156 87 191 189 23 66 76 209 91 244 7 16 21
50 31 75 10 25 24 59 31 77 8 17 14 36 14 42 0 6 4 19 9 29 17 32 39 87 60
147 21 64 43 119 68 174 8 18 26 65 39 103 14 39 33 89 43 111 11 23 36 85 56
137 49 124 114 287 131 327 8 17 14 38 14 46 0 9 4 18 9 21 4 3 11 23 15 45 3
21 14 49 24 61 17 21 20 22 48 7 28 -15 165 -123 252 -197 22 -19 55 -46 73
-60 18 -14 37 -30 43 -35 6 -6 56 -47 111 -90 55 -44 102 -83 103 -87 2 -5 9
-8 16 -8 7 0 20 -8 29 -18 15 -16 17 -50 17 -278 -1 -196 -4 -263 -14 -276 -7
-9 -124 -130 -259 -269 -145 -147 -250 -262 -254 -277 -4 -19 3 -43 25 -86 17
-34 46 -97 65 -141 19 -44 44 -100 55 -125 61 -135 79 -178 85 -202 11 -44 32
-59 67 -46 17 5 30 14 30 19 0 5 7 9 15 9 8 0 23 5 33 10 9 6 62 23 117 39
l100 28 -3 90 c-6 133 35 265 103 339 6 6 25 27 42 48 36 40 139 116 159 116
7 0 14 3 16 8 9 20 120 42 217 42 90 0 214 -21 231 -40 3 -3 23 -14 45 -25 61
-30 151 -122 201 -203 24 -40 44 -79 44 -87 0 -7 4 -16 9 -19 5 -3 15 -44 22
-91 15 -105 4 -166 -52 -280 -91 -187 -242 -310 -412 -337 -104 -16 -236 2
-284 37 -55 43 -72 33 -116 -70 -71 -161 -71 -161 -45 -185 12 -11 26 -20 31
-20 9 0 52 -36 137 -115 19 -18 53 -44 74 -59 l39 -26 263 0 262 0 83 78 c46
42 111 104 146 137 34 33 68 65 75 71 55 47 351 361 360 382 8 19 11 135 10
386 -3 335 -4 362 -22 391 -22 36 -63 80 -280 300 -86 88 -164 174 -172 190
-13 25 -17 110 -22 510 -8 586 -9 590 -100 680 -34 33 -76 71 -94 85 -19 14
-39 30 -45 35 -7 6 -50 39 -97 75 -47 35 -108 82 -136 104 -28 23 -66 52 -84
66 -18 14 -62 48 -96 75 -94 75 -196 156 -248 195 -26 19 -75 58 -110 85 -35
28 -106 82 -156 120 -51 39 -125 95 -164 125 -39 31 -91 64 -116 74 -25 10
-56 23 -70 29 -15 6 -175 12 -406 15 l-381 4 -7 67 c-9 102 -7 259 4 266 5 3
94 7 197 9 237 3 277 16 324 106 l24 45 3 505 c3 528 1 560 -40 610 l-20 25
-241 7 c-182 5 -242 10 -248 20 -5 7 -9 111 -9 230 0 251 -7 283 -76 364 -24
28 -65 62 -91 75 l-48 24 -815 5 -815 5 -3 185 c-3 190 1 230 19 230 10 0 58
34 107 75 72 60 122 180 122 292 0 108 -30 188 -97 263 -66 72 -123 105 -218
125 -88 18 -82 18 -170 -4z m176 -257 c53 -33 73 -67 73 -123 0 -55 -27 -106
-63 -120 -97 -38 -164 -35 -206 7 -32 31 -39 58 -33 127 5 58 41 118 82 135
32 14 104 1 147 -26z m1661 -1171 c7 -35 9 -218 12 -1313 3 -753 1 -1259 -5
-1281 -9 -38 -29 -52 -94 -68 -26 -6 -636 -11 -1693 -12 -1608 -2 -1653 -1
-1673 17 -12 10 -26 30 -31 44 -10 28 -14 2593 -3 2610 7 12 3484 14 3487 3z
m-3748 -2369 c13 -13 16 -42 16 -157 0 -178 10 -208 95 -302 34 -37 107 -72
180 -85 56 -11 380 -13 1610 -11 849 1 1607 6 1688 11 192 13 262 35 332 108
68 69 76 98 82 280 6 156 7 163 28 168 11 3 174 4 361 2 l339 -3 47 -28 c36
-21 173 -124 273 -205 6 -4 37 -28 70 -52 33 -25 62 -48 65 -51 3 -3 60 -48
128 -100 68 -52 167 -128 221 -169 54 -41 124 -95 156 -120 33 -25 66 -51 75
-58 8 -7 44 -35 80 -63 36 -27 70 -52 75 -57 6 -4 36 -27 68 -51 32 -23 62
-54 68 -67 5 -15 9 -215 9 -475 l0 -449 -364 0 c-339 0 -365 1 -368 18 -2 9
-2 116 0 238 l5 221 -34 63 c-37 70 -100 138 -186 201 -32 24 -64 49 -71 56
-7 7 -16 13 -20 13 -4 0 -23 14 -42 31 -19 16 -69 55 -110 86 -41 32 -77 60
-80 63 -3 4 -39 32 -80 62 -41 31 -84 65 -94 77 -11 11 -25 21 -33 21 -7 0
-13 4 -13 8 0 22 -134 65 -181 59 -54 -7 -129 -46 -163 -86 -29 -32 -76 -115
-89 -157 -3 -10 -20 -57 -37 -104 -17 -47 -34 -96 -37 -110 -3 -14 -9 -27 -13
-30 -4 -3 -18 -39 -33 -80 -26 -75 -46 -128 -72 -185 -7 -16 -25 -59 -39 -95
-15 -36 -31 -73 -36 -82 -6 -10 -10 -26 -10 -37 0 -11 -4 -21 -8 -23 -5 -1
-24 -46 -42 -98 -18 -52 -46 -126 -62 -165 -16 -38 -43 -106 -61 -150 -17 -44
-34 -82 -38 -85 -3 -3 -9 -16 -13 -30 -7 -25 -14 -42 -34 -90 -24 -57 -70
-187 -76 -216 l-7 -31 -202 -7 c-111 -4 -294 -6 -407 -6 -185 1 -210 -1 -252
-19 -76 -32 -138 -133 -167 -270 l-16 -76 -472 -3 -471 -2 -10 47 c-6 27 -14
66 -18 88 -15 84 -86 175 -168 215 -40 19 -61 20 -434 20 l-391 0 -15 33 c-8
17 -31 73 -51 122 -21 50 -45 108 -55 130 -10 22 -20 51 -24 65 -4 14 -14 43
-23 65 -8 22 -19 49 -23 60 -4 11 -19 49 -33 85 -14 36 -47 119 -72 185 -26
66 -55 138 -64 160 -10 22 -24 56 -31 75 -7 19 -19 49 -26 67 -8 17 -14 36
-14 42 0 6 -13 39 -29 73 -15 35 -36 88 -46 118 -10 30 -21 60 -25 65 -4 6
-11 21 -15 35 -4 14 -16 43 -26 65 -19 41 -66 165 -76 200 -8 27 -65 114 -94
145 -30 31 -107 69 -154 77 -39 6 -101 -10 -150 -39 -16 -10 -40 -22 -52 -27
-11 -5 -24 -15 -28 -20 -3 -6 -43 -39 -88 -73 -45 -34 -84 -65 -87 -68 -3 -3
-41 -33 -85 -67 -44 -33 -93 -72 -110 -87 -16 -14 -33 -26 -36 -26 -3 0 -17
-10 -30 -21 -13 -12 -44 -38 -69 -58 -25 -20 -50 -41 -56 -47 -7 -6 -25 -21
-40 -35 -35 -29 -75 -82 -97 -128 -15 -29 -17 -70 -17 -278 l0 -243 -327 0
c-181 0 -345 -3 -365 -6 l-38 -7 0 469 0 469 43 30 c23 16 49 35 57 42 19 15
174 136 220 171 19 15 57 45 85 67 27 22 66 52 85 66 19 15 44 36 56 47 11 11
38 31 60 45 21 14 50 36 64 49 14 13 66 55 115 93 50 38 119 92 155 119 36 28
70 54 75 59 6 4 37 28 71 55 33 26 76 58 94 72 18 14 38 30 44 35 29 27 96 64
122 68 16 2 178 5 361 6 289 1 334 -1 347 -15z m356 -3223 c129 -5 344 -10
478 -10 189 -1 244 -4 248 -14 4 -12 -3 -28 -72 -154 -42 -75 -69 -103 -101
-103 -16 0 -269 -1 -563 -4 -294 -2 -550 -1 -567 1 -18 3 -33 12 -33 19 0 7
30 56 68 109 37 53 72 103 77 113 6 9 16 22 23 30 6 7 12 18 12 24 0 7 32 8
98 4 53 -3 203 -10 332 -15z m3838 -117 c51 -75 92 -142 92 -149 0 -21 -234
-27 -739 -19 -524 7 -487 1 -530 85 -28 53 -45 83 -51 89 -11 11 -40 72 -40
84 0 20 123 26 570 27 223 0 414 4 425 9 11 5 56 9 101 9 l81 1 91 -136z m255
-406 c9 -5 17 -12 17 -16 0 -5 9 -18 20 -30 39 -42 170 -243 170 -262 0 -10
-7 -21 -16 -24 -9 -3 -278 -6 -598 -6 l-583 0 -27 26 c-14 15 -36 43 -48 63
-12 20 -26 41 -31 46 -29 35 -106 163 -107 177 0 16 31 17 423 18 384 0 691
11 705 24 6 7 49 -3 75 -16z m-4218 -4 c392 -4 552 -9 557 -17 3 -6 -1 -22
-11 -36 -10 -15 -41 -68 -71 -119 -29 -52 -68 -110 -87 -129 l-35 -34 -593 3
c-451 2 -597 6 -606 15 -10 10 -8 20 7 48 10 20 27 45 37 55 9 11 17 22 17 25
0 3 14 24 30 48 17 23 38 53 48 67 9 13 30 39 46 58 27 31 33 33 70 27 23 -4
288 -9 591 -11z m342 -629 c6 -7 22 -34 35 -61 13 -27 39 -75 57 -107 18 -32
30 -65 27 -73 -4 -11 -105 -13 -647 -11 l-641 2 -43 83 c-24 45 -53 95 -64
111 -34 47 -28 57 37 65 31 4 185 4 342 1 157 -3 326 -2 375 3 126 12 506 2
522 -13z m4171 1 c7 -4 -13 -44 -57 -109 -38 -56 -71 -111 -73 -122 -3 -20
-12 -20 -651 -23 -717 -2 -674 -7 -623 61 12 18 40 61 61 97 21 36 45 76 53
89 l14 23 633 -5 c348 -2 637 -7 643 -11z"/>
<path d="M6681 11621 c-9 -6 -13 -82 -14 -302 l-2 -294 26 -55 c65 -139 208
-218 454 -251 214 -28 452 66 593 235 17 21 15 50 -5 68 -19 16 -292 178 -300
178 -3 0 -19 10 -36 23 -18 12 -48 30 -67 39 -19 10 -44 23 -55 30 -30 20 -89
55 -191 114 -52 30 -138 80 -191 111 -163 94 -199 112 -212 104z"/>
<path d="M9275 11607 c-11 -7 -22 -15 -25 -18 -3 -4 -50 -32 -104 -63 -54 -32
-115 -68 -135 -82 -20 -13 -40 -24 -45 -24 -5 0 -24 -11 -42 -25 -18 -14 -35
-25 -37 -25 -2 0 -71 -39 -153 -86 -82 -47 -174 -100 -205 -117 -243 -137
-249 -141 -249 -170 0 -48 118 -160 228 -216 66 -34 225 -70 307 -71 61 0 228
37 305 68 14 5 53 30 87 55 50 37 67 58 95 114 l33 68 0 300 c0 293 0 300 -20
302 -11 1 -29 -3 -40 -10z"/>
<path d="M6962 10383 c-5 -10 -15 -43 -21 -73 -12 -55 -42 -161 -85 -300 -13
-41 -28 -93 -34 -115 -6 -22 -15 -59 -21 -81 -6 -23 -11 -51 -11 -63 l0 -21
1206 0 1207 0 -7 61 c-4 34 -11 69 -16 78 -4 9 -16 45 -25 81 -10 36 -21 74
-25 85 -11 26 -56 190 -65 235 -15 78 -26 110 -39 110 -17 0 -112 -95 -174
-174 -26 -33 -70 -84 -98 -115 -80 -86 -86 -84 -255 87 -77 78 -146 142 -154
142 -7 0 -53 -39 -101 -86 -49 -48 -120 -112 -158 -142 l-68 -56 -34 19 c-31
19 -136 110 -249 218 -63 60 -92 69 -117 36 -41 -54 -244 -262 -263 -269 -32
-12 -66 12 -136 97 -104 126 -209 242 -229 253 -15 8 -21 6 -28 -7z"/>
<path d="M1940 4166 c-161 -55 -264 -160 -341 -351 -39 -97 -51 -368 -24 -514
18 -92 66 -215 105 -264 79 -103 154 -158 263 -194 125 -41 327 -31 444 23 17
8 34 14 37 14 18 0 122 91 158 139 72 95 130 253 97 266 -19 7 -175 27 -224
29 -36 1 -40 -2 -43 -24 -2 -14 -7 -34 -12 -45 -4 -11 -11 -32 -14 -48 -8 -35
-68 -102 -104 -114 -106 -39 -145 -41 -227 -18 -90 27 -167 116 -196 227 -39
153 -32 330 19 478 45 128 135 200 252 200 140 -1 195 -31 246 -136 18 -39 34
-82 34 -96 0 -41 19 -49 86 -38 32 6 84 10 115 10 78 0 84 10 63 96 -46 191
-168 318 -347 365 -106 28 -299 25 -387 -5z"/>
<path d="M8367 4175 c-10 -25 -8 -1298 2 -1313 6 -11 61 -12 272 -9 292 5 349
12 459 59 183 77 305 221 355 418 26 103 27 319 1 405 -49 165 -162 301 -309
372 -137 67 -178 73 -503 80 -248 5 -272 4 -277 -12z m547 -230 c133 -31 203
-82 254 -185 26 -53 27 -61 27 -226 0 -123 -4 -179 -14 -200 -7 -16 -21 -45
-30 -64 -38 -82 -134 -149 -244 -171 -57 -11 -240 -14 -257 -4 -6 4 -10 153
-10 436 l0 429 104 0 c58 0 134 -7 170 -15z"/>
<path d="M4287 4147 c-16 -11 -17 -54 -15 -617 3 -565 4 -607 21 -638 31 -54
60 -63 205 -60 l127 3 3 70 c4 100 -1 115 -41 115 -18 0 -38 5 -45 12 -9 9
-12 147 -12 558 0 411 -3 549 -12 558 -17 17 -208 16 -231 -1z"/>
<path d="M5992 4143 c-5 -10 -15 -36 -21 -58 -7 -22 -16 -49 -21 -60 -9 -22
-48 -131 -75 -210 -9 -27 -21 -59 -25 -70 -5 -11 -25 -67 -45 -125 -40 -117
-112 -306 -126 -332 -5 -10 -9 -23 -9 -29 0 -6 -6 -25 -14 -42 -7 -18 -21 -52
-31 -77 -9 -25 -21 -54 -25 -65 -31 -77 -61 -179 -58 -198 3 -21 7 -22 131
-25 148 -3 127 -20 178 148 17 58 38 113 47 123 14 15 38 17 242 17 170 0 230
-3 237 -12 6 -7 27 -67 48 -133 21 -66 42 -126 48 -132 14 -19 227 -18 252 1
18 13 18 16 2 77 -19 66 -62 193 -76 219 -5 9 -12 31 -16 50 -4 19 -10 40 -14
45 -4 6 -13 28 -20 50 -7 22 -18 56 -26 75 -7 19 -26 69 -41 110 -15 41 -35
94 -45 117 -11 23 -19 46 -19 52 0 9 -51 149 -71 196 -5 11 -28 79 -51 150
-24 72 -47 136 -51 143 -6 9 -48 12 -152 12 -127 0 -145 -2 -153 -17z m194
-428 c20 -55 45 -125 55 -155 10 -30 23 -64 28 -75 52 -115 49 -117 -105 -114
-156 3 -174 6 -174 30 0 26 101 323 114 336 3 4 6 12 6 19 0 24 20 66 31 62 5
-2 26 -48 45 -103z"/>
<path d="M6858 3518 c-2 -362 1 -648 6 -655 9 -14 199 -19 230 -7 14 6 16 71
16 639 0 348 -3 640 -6 649 -5 13 -26 16 -124 16 l-118 0 -4 -642z"/>
<path d="M2968 4033 c-15 -4 -18 -16 -19 -71 0 -37 -4 -87 -7 -112 l-7 -45
-90 -5 -90 -5 -3 -97 -3 -98 83 0 c46 0 88 -4 95 -8 8 -5 12 -87 15 -287 3
-309 6 -321 69 -384 60 -59 103 -71 259 -71 76 0 141 4 144 8 8 14 10 177 2
190 -6 9 -20 11 -47 7 -55 -10 -134 11 -153 40 -28 43 -40 177 -30 340 l9 150
105 5 c58 3 111 9 118 13 13 9 17 132 6 175 -6 21 -11 22 -104 22 -54 0 -105
3 -114 6 -13 5 -16 24 -16 104 0 128 -3 130 -118 129 -48 -1 -95 -3 -104 -6z"/>
<path d="M7393 4033 c-9 -3 -13 -28 -14 -71 0 -37 -4 -87 -7 -112 l-7 -45 -90
-5 -90 -5 -5 -58 c-3 -32 -4 -76 -2 -97 l4 -39 87 -3 86 -3 6 -265 c3 -146 10
-281 16 -300 5 -20 21 -53 35 -75 57 -90 97 -105 284 -105 170 0 166 -3 162
122 l-3 83 -80 0 c-104 0 -128 14 -149 89 -17 57 -22 321 -8 401 l7 40 105 3
c57 1 110 8 117 14 10 8 13 35 11 102 l-3 91 -110 3 c-72 2 -112 7 -117 15 -4
7 -8 55 -8 108 0 65 -4 100 -13 107 -12 10 -191 15 -214 5z"/>
<path d="M11622 4031 c-9 -5 -15 -40 -18 -107 -3 -54 -7 -104 -9 -111 -3 -8
-34 -13 -92 -15 l-88 -3 -3 -97 -3 -98 84 0 c64 0 88 -4 97 -15 10 -12 12 -54
7 -178 -9 -219 4 -390 33 -443 26 -46 78 -94 103 -94 9 0 17 -5 17 -10 0 -7
56 -10 163 -8 l162 3 3 98 c2 73 0 97 -10 98 -7 0 -33 0 -56 -1 -65 -2 -128
19 -144 49 -9 19 -14 92 -16 258 l-3 232 113 3 113 3 0 100 0 100 -90 2 c-145
5 -135 -4 -135 118 0 104 0 106 -26 115 -31 12 -184 13 -202 1z"/>
<path d="M9905 3826 c-152 -40 -240 -128 -301 -301 -23 -65 -27 -340 -5 -395
83 -212 207 -300 425 -300 191 0 344 79 403 208 39 83 36 87 -90 90 l-108 3
-61 -41 c-48 -32 -69 -40 -105 -40 -105 0 -176 47 -206 136 -23 70 -15 74 143
74 70 0 202 3 293 7 l167 6 0 98 c0 210 -100 380 -260 440 -70 26 -223 34
-295 15z m220 -216 c39 -24 80 -109 71 -146 l-7 -24 -167 2 -167 3 2 34 c2 54
31 106 71 129 51 29 151 30 197 2z"/>
<path d="M10839 3831 c-161 -30 -259 -141 -259 -292 0 -154 78 -237 265 -283
262 -64 295 -79 295 -136 0 -50 -42 -70 -145 -70 -97 0 -131 12 -165 60 l-21
30 -119 0 c-65 0 -121 -4 -124 -8 -7 -11 17 -99 37 -138 24 -46 97 -106 154
-126 111 -39 318 -42 403 -6 66 27 97 46 130 78 33 31 47 52 81 122 17 35 10
156 -11 198 -29 56 -74 105 -118 126 -37 17 -156 53 -262 79 -133 31 -171 60
-156 118 9 39 41 51 132 51 91 0 123 -14 149 -64 l16 -31 112 3 112 3 3 28 c4
36 -37 123 -78 166 -18 18 -61 46 -96 63 -56 26 -76 30 -176 33 -62 2 -134 0
-159 -4z"/>
<path d="M13178 3830 c-113 -18 -204 -76 -267 -171 -138 -206 -114 -582 46
-732 80 -75 174 -107 316 -107 242 0 374 93 450 315 31 91 30 302 -3 400 -53
160 -123 236 -252 276 -72 23 -210 32 -290 19z m191 -221 c39 -16 54 -30 73
-67 29 -54 52 -178 45 -237 -18 -143 -37 -188 -94 -232 -33 -25 -45 -28 -112
-28 -74 0 -78 1 -117 37 -59 55 -77 124 -73 275 4 106 7 124 33 175 22 44 38
62 70 77 53 26 115 26 175 0z"/>
<path d="M3934 3795 c-27 -13 -73 -45 -102 -71 -31 -27 -57 -43 -62 -38 -5 5
-10 32 -12 59 l-3 50 -97 3 c-54 1 -98 -1 -98 -5 -1 -12 -1 -916 -1 -931 1
-10 29 -12 124 -10 l122 3 6 240 c7 280 13 326 48 397 39 78 75 98 175 98 l82
0 12 70 c17 98 16 146 -4 154 -41 16 -141 6 -190 -19z"/>
<path d="M12582 3794 c-28 -14 -74 -46 -102 -71 -53 -48 -76 -49 -66 -2 3 16
1 40 -4 54 -9 24 -12 25 -110 25 l-100 0 2 -472 3 -473 125 0 125 0 6 260 c6
279 9 303 45 380 31 69 67 89 174 95 l85 5 6 95 c4 52 2 103 -3 113 -15 28
-121 24 -186 -9z"/>
<path d="M13788 3793 c-39 -6 -37 -25 11 -138 5 -11 28 -67 51 -125 23 -58 48
-119 56 -137 8 -17 14 -37 14 -45 0 -8 4 -18 9 -24 8 -9 41 -91 121 -304 24
-63 47 -119 51 -125 22 -31 20 -75 -5 -118 -43 -72 -68 -90 -149 -102 l-72
-11 -3 -77 c-3 -76 -3 -77 25 -88 20 -8 57 -8 132 1 121 13 178 37 233 98 34
38 89 142 118 222 6 19 16 44 20 55 5 11 25 72 45 135 50 154 65 201 76 225 5
11 34 97 64 190 31 94 59 177 64 185 21 44 54 159 48 174 -6 15 -21 16 -124
14 l-118 -3 -25 -90 c-15 -49 -29 -97 -32 -105 -9 -23 -33 -95 -63 -195 -79
-260 -86 -272 -105 -193 -4 18 -23 71 -40 118 -18 47 -60 166 -94 265 -34 99
-66 186 -70 193 -7 12 -171 15 -238 5z"/>
<path d="M5049 3724 c-9 -11 -16 -55 -19 -128 l-5 -111 -120 -5 -120 -5 -3
-90 c-5 -142 -11 -135 117 -135 60 0 116 -3 125 -6 13 -5 16 -25 16 -119 0
-79 4 -116 12 -121 18 -11 181 -15 197 -4 11 6 16 37 19 122 2 62 6 115 9 118
2 3 54 7 114 8 132 4 131 3 127 135 l-3 92 -122 5 c-67 3 -125 9 -130 13 -4 5
-10 59 -11 120 -3 70 -8 115 -15 119 -7 4 -49 8 -93 8 -64 0 -85 -4 -95 -16z"/>
<path d="M8008 3538 l-3 -83 -77 -3 -78 -3 0 -59 0 -60 74 0 c86 0 86 0 86
-96 l0 -64 60 0 59 0 3 78 3 77 77 3 c86 3 93 10 86 83 l-3 34 -80 5 -80 5 -3
83 -3 82 -59 0 -59 0 -3 -82z"/>
</g>
</svg>
