<?xml version="1.0" standalone="no"?>
<!DOCTYPE svg PUBLIC "-//W3C//DTD SVG 20010904//EN"
 "http://www.w3.org/TR/2001/REC-SVG-20010904/DTD/svg10.dtd">
<svg version="1.0" xmlns="http://www.w3.org/2000/svg"
 width="3072.000000pt" height="3072.000000pt" viewBox="0 0 3072.000000 3072.000000"
 preserveAspectRatio="xMidYMid meet">

<g transform="translate(0.000000,3072.000000) scale(0.100000,-0.100000)"
fill="#000000" stroke="none">
<path d="M14885 29370 c-198 -4 -414 -10 -480 -14 -254 -15 -598 -46 -609 -55
-11 -9 -54 -16 -156 -27 -30 -3 -80 -9 -110 -14 -30 -5 -84 -12 -120 -15 -36
-3 -90 -10 -120 -15 -30 -5 -118 -16 -195 -25 -77 -9 -142 -20 -146 -26 -3 -5
-17 -12 -30 -14 -125 -20 -278 -45 -344 -55 -44 -6 -99 -16 -122 -21 -23 -5
-55 -9 -70 -9 -16 0 -44 -8 -63 -19 -19 -10 -53 -21 -75 -25 -22 -4 -51 -11
-65 -16 -14 -4 -92 -23 -175 -40 -82 -18 -161 -38 -175 -46 -14 -7 -47 -18
-75 -24 -27 -6 -97 -22 -155 -36 -58 -13 -127 -29 -155 -35 -27 -6 -55 -17
-61 -25 -6 -8 -51 -26 -100 -40 -49 -14 -118 -34 -153 -45 -35 -10 -70 -19
-76 -19 -7 0 -18 -6 -25 -14 -6 -8 -18 -12 -26 -9 -8 3 -14 0 -14 -6 0 -6 -7
-11 -16 -11 -10 0 -42 -8 -73 -19 -31 -10 -103 -34 -161 -52 -58 -19 -106 -37
-108 -41 -2 -5 -11 -8 -21 -8 -9 0 -21 -4 -26 -8 -6 -5 -30 -14 -55 -21 -60
-17 -133 -44 -261 -97 -59 -24 -113 -44 -120 -44 -8 0 -27 -7 -44 -16 -16 -9
-54 -24 -83 -35 -29 -10 -65 -27 -80 -37 -15 -11 -38 -23 -52 -27 -14 -3 -47
-17 -75 -30 -106 -50 -211 -93 -241 -100 -18 -3 -51 -18 -75 -33 -44 -28 -162
-87 -339 -169 -52 -25 -108 -52 -125 -61 -144 -76 -181 -96 -185 -102 -3 -3
-36 -22 -75 -42 -38 -19 -92 -48 -120 -63 -27 -15 -84 -45 -125 -67 -41 -22
-97 -56 -124 -75 -27 -19 -92 -58 -145 -85 -53 -28 -103 -56 -111 -63 -8 -7
-33 -22 -55 -34 -22 -12 -78 -48 -125 -81 -47 -33 -89 -60 -94 -60 -12 0 -226
-141 -226 -149 0 -4 -20 -17 -45 -31 -25 -14 -45 -28 -45 -32 0 -3 -24 -21
-52 -38 -109 -65 -210 -137 -282 -201 -23 -20 -65 -48 -94 -63 -29 -15 -69
-41 -90 -59 -54 -47 -120 -100 -214 -169 -46 -34 -85 -64 -88 -68 -3 -4 -34
-30 -70 -57 -36 -27 -81 -64 -100 -83 -19 -18 -49 -42 -66 -54 -18 -12 -65
-50 -105 -84 -41 -35 -114 -98 -163 -140 -49 -43 -133 -120 -188 -172 -55 -52
-109 -100 -121 -106 -34 -18 -638 -608 -666 -651 -8 -12 -56 -64 -105 -116
-50 -52 -102 -109 -116 -126 -14 -18 -66 -76 -116 -129 -50 -53 -115 -126
-145 -162 -29 -36 -93 -111 -141 -166 -48 -56 -88 -105 -88 -109 0 -6 -40 -55
-157 -193 -20 -24 -54 -69 -77 -100 -22 -31 -63 -87 -91 -123 -27 -36 -59 -78
-70 -94 -11 -15 -32 -42 -46 -59 -14 -17 -34 -47 -45 -65 -17 -31 -92 -131
-174 -233 -16 -20 -39 -53 -52 -75 -12 -21 -36 -56 -53 -78 -18 -22 -42 -58
-54 -80 -12 -22 -49 -78 -82 -125 -33 -47 -73 -110 -90 -140 -28 -52 -54 -94
-156 -252 -23 -37 -43 -71 -43 -76 0 -5 -28 -56 -62 -114 -35 -57 -72 -122
-83 -144 -10 -21 -32 -58 -48 -82 -16 -24 -42 -73 -59 -110 -17 -37 -38 -78
-48 -92 -9 -14 -45 -79 -80 -145 -89 -170 -97 -184 -108 -198 -5 -7 -12 -25
-16 -42 -7 -31 -40 -103 -152 -330 -35 -71 -71 -151 -79 -176 -8 -26 -35 -90
-60 -142 -25 -53 -45 -101 -45 -107 0 -6 -18 -46 -39 -88 -22 -42 -46 -98 -54
-123 -9 -25 -25 -65 -35 -90 -11 -24 -30 -75 -42 -113 -11 -38 -30 -88 -40
-112 -11 -24 -20 -48 -20 -54 0 -7 -7 -26 -15 -43 -8 -18 -35 -88 -61 -157
-25 -69 -50 -129 -54 -135 -4 -5 -16 -46 -25 -90 -10 -44 -23 -87 -30 -95 -12
-14 -33 -82 -89 -291 -13 -47 -31 -97 -40 -111 -9 -13 -25 -68 -36 -121 -11
-53 -25 -109 -31 -124 -6 -15 -19 -59 -29 -98 -10 -38 -27 -104 -38 -145 -11
-41 -23 -97 -26 -125 -4 -27 -14 -75 -21 -105 -8 -30 -26 -104 -40 -165 -14
-60 -34 -146 -45 -190 -10 -44 -21 -111 -25 -149 -4 -38 -11 -79 -15 -90 -9
-24 -30 -115 -35 -148 -1 -13 -7 -43 -13 -68 -15 -64 -50 -287 -62 -405 -19
-173 -32 -268 -47 -335 -22 -101 -27 -144 -69 -615 -13 -148 -16 -336 -17
-1070 0 -848 1 -900 22 -1110 12 -121 26 -285 31 -365 5 -80 16 -176 25 -215
28 -121 31 -138 64 -420 26 -218 43 -333 52 -360 10 -30 40 -181 60 -305 16
-100 27 -159 44 -230 8 -36 20 -87 25 -115 6 -27 20 -79 31 -115 11 -35 27
-107 34 -160 8 -52 21 -120 31 -150 9 -30 20 -73 24 -95 4 -22 20 -75 34 -118
14 -43 28 -101 32 -130 3 -29 13 -62 20 -74 8 -12 14 -27 14 -34 0 -6 9 -22
20 -36 11 -14 20 -39 20 -55 0 -16 11 -62 24 -101 13 -40 29 -105 36 -145 7
-40 19 -77 27 -83 7 -6 10 -15 7 -20 -3 -5 1 -12 9 -15 10 -3 18 -27 22 -67 4
-34 16 -78 26 -97 10 -19 30 -73 44 -120 14 -47 34 -96 44 -110 10 -14 23 -45
30 -70 23 -85 30 -105 66 -200 41 -108 42 -110 84 -206 17 -39 31 -76 31 -83
0 -7 13 -39 29 -70 16 -31 46 -96 66 -146 20 -49 45 -106 55 -125 10 -19 25
-61 34 -92 9 -31 21 -60 27 -64 6 -4 25 -36 41 -73 16 -36 38 -84 49 -107 10
-22 19 -45 19 -51 0 -6 11 -24 24 -40 14 -16 28 -43 32 -59 4 -16 18 -49 31
-73 12 -24 23 -52 23 -61 0 -9 9 -25 20 -35 10 -9 32 -49 47 -89 26 -67 63
-137 105 -199 10 -15 27 -47 38 -71 10 -24 47 -88 82 -142 36 -55 77 -126 92
-159 15 -33 36 -71 46 -85 10 -14 34 -58 55 -99 21 -40 50 -87 65 -105 15 -17
38 -51 50 -76 12 -25 36 -60 51 -78 16 -18 29 -41 29 -51 0 -10 17 -40 39 -67
21 -27 48 -68 60 -91 11 -23 27 -46 34 -50 7 -4 26 -30 42 -57 17 -27 37 -61
45 -75 9 -14 37 -57 63 -96 26 -38 58 -85 70 -103 12 -18 46 -62 75 -99 29
-36 64 -87 77 -112 13 -25 36 -59 50 -76 15 -16 54 -68 88 -114 34 -46 89
-117 122 -158 33 -41 74 -93 92 -116 17 -23 47 -60 66 -82 18 -22 44 -56 57
-75 13 -19 47 -59 75 -88 27 -30 54 -61 59 -70 5 -9 35 -45 67 -79 33 -34 59
-65 59 -70 0 -4 44 -53 97 -108 53 -55 112 -122 132 -150 20 -28 74 -86 121
-130 47 -44 99 -98 115 -119 15 -21 100 -109 189 -195 88 -86 217 -212 286
-281 70 -69 144 -138 166 -154 21 -16 75 -65 119 -109 44 -44 97 -91 119 -104
35 -23 119 -98 200 -179 17 -17 49 -44 71 -60 22 -16 43 -34 48 -41 4 -6 24
-22 45 -34 20 -13 54 -39 75 -59 21 -19 46 -39 55 -44 10 -5 35 -25 57 -45 39
-34 76 -62 184 -139 62 -44 96 -69 157 -119 28 -22 67 -49 85 -59 33 -16 64
-41 170 -132 27 -23 56 -42 64 -42 8 0 29 -13 47 -28 18 -15 45 -33 59 -39 15
-6 42 -25 60 -41 19 -16 48 -36 64 -45 17 -9 46 -30 65 -47 19 -17 55 -42 80
-57 25 -14 58 -37 73 -50 16 -12 35 -23 42 -23 7 0 33 -15 57 -33 111 -84 265
-177 294 -177 7 0 25 -11 41 -24 15 -13 51 -35 79 -49 27 -14 56 -32 62 -40 7
-8 27 -21 44 -28 18 -7 54 -28 81 -46 27 -18 53 -33 57 -33 5 0 61 -31 126
-70 64 -38 119 -70 121 -70 2 0 38 -20 79 -45 40 -25 77 -45 80 -45 4 0 68
-30 143 -66 342 -167 419 -203 465 -218 27 -9 56 -22 65 -29 9 -8 41 -24 71
-36 30 -12 71 -30 90 -40 19 -11 50 -22 69 -26 19 -4 52 -20 73 -35 21 -15 55
-31 75 -35 20 -4 46 -13 57 -21 11 -8 26 -14 34 -14 7 0 50 -18 95 -39 45 -21
129 -55 187 -74 58 -19 130 -46 160 -60 67 -30 165 -64 245 -83 33 -8 83 -26
110 -40 28 -13 87 -33 132 -43 45 -11 87 -22 93 -26 6 -4 47 -17 93 -30 45
-12 102 -32 127 -43 25 -11 86 -28 135 -37 50 -9 122 -27 162 -41 39 -13 77
-24 85 -24 7 0 49 -11 93 -24 44 -14 116 -33 160 -44 44 -11 157 -40 250 -65
94 -24 188 -48 210 -51 22 -4 123 -22 225 -41 287 -54 342 -64 385 -70 22 -2
146 -20 275 -40 129 -19 289 -41 355 -49 66 -9 154 -20 195 -25 198 -28 1139
-80 1525 -85 280 -4 388 1 1125 50 323 21 565 50 1145 138 351 53 1019 188
1116 225 15 5 53 14 85 20 33 6 95 22 139 36 44 14 107 32 140 40 197 52 245
66 295 85 30 11 75 25 100 30 25 6 74 21 110 34 36 13 119 40 185 61 188 59
295 95 365 122 36 14 103 40 150 58 195 75 225 88 235 95 6 4 33 15 61 23 28
8 71 24 97 36 25 12 49 21 52 21 3 0 43 17 88 39 45 21 100 44 122 51 22 7 51
20 65 29 14 10 43 24 65 33 143 56 276 115 330 147 22 13 154 81 294 152 140
71 261 135 270 143 9 8 89 51 178 96 90 45 169 88 178 96 17 17 116 76 200
119 33 16 74 39 90 51 17 11 39 24 49 28 11 4 54 31 95 62 42 30 117 80 166
111 143 89 167 105 215 143 66 52 137 100 147 100 6 0 37 21 70 48 157 123
224 173 303 227 47 32 129 94 183 137 54 43 110 86 125 95 15 9 65 49 112 88
47 40 110 89 140 111 74 53 83 60 159 128 96 86 120 107 180 156 29 24 71 60
92 81 21 20 96 90 166 156 178 166 531 517 712 708 83 88 177 187 209 220 33
33 65 69 73 81 21 31 138 163 188 211 24 23 74 84 112 135 38 51 92 119 120
150 29 32 64 75 78 96 14 21 40 56 58 78 140 171 158 195 279 374 32 47 64 90
71 95 19 15 84 108 139 200 26 44 70 107 96 139 27 32 55 73 62 90 7 18 19 38
27 47 22 23 59 77 59 86 0 8 12 27 128 200 34 50 85 136 113 190 28 54 61 112
74 129 21 28 66 107 119 209 12 22 37 65 56 95 20 30 42 71 49 90 8 19 27 52
42 72 16 20 34 49 40 65 24 57 83 179 104 213 12 19 25 46 30 60 11 36 33 89
57 135 85 164 118 232 118 246 0 9 12 34 27 55 14 21 32 57 39 79 15 48 40
106 105 243 27 57 56 127 66 155 9 29 29 77 45 108 15 31 28 65 28 75 0 11 7
33 16 49 9 17 22 51 30 77 8 26 28 76 44 110 17 35 30 72 30 83 0 11 14 47 30
80 17 33 30 67 30 75 0 9 4 20 8 26 5 5 17 36 26 69 10 33 23 76 30 95 8 19
16 52 20 74 4 21 18 61 31 90 13 28 33 84 44 125 11 40 25 79 32 87 6 7 15 45
20 84 5 39 22 101 37 138 16 37 35 102 41 145 7 43 19 90 27 105 8 15 14 41
14 58 0 59 23 149 46 180 16 21 26 56 34 114 6 45 18 92 25 104 8 12 21 70 30
130 9 65 24 129 39 160 16 35 26 79 30 138 4 48 14 111 22 140 17 62 19 78 35
223 7 61 18 119 26 130 7 11 13 39 13 63 0 26 4 41 10 37 6 -3 10 0 10 7 2 83
30 361 38 371 5 6 15 77 21 157 15 175 17 193 30 250 5 25 10 74 11 110 0 46
3 61 10 50 7 -11 10 6 10 55 1 39 3 88 5 110 3 22 9 193 15 380 27 882 -2
2075 -51 2075 -3 0 -6 12 -6 28 0 65 -25 381 -33 422 -19 91 -29 168 -40 299
-8 101 -15 141 -29 160 -10 14 -21 49 -25 76 -3 28 -13 111 -21 185 -9 74 -20
151 -25 170 -8 32 -24 138 -34 220 -5 41 -15 70 -25 70 -4 0 -18 62 -31 138
-13 75 -29 144 -35 152 -7 8 -16 49 -20 90 -4 41 -13 85 -21 97 -23 36 -43
103 -55 183 -6 41 -17 89 -24 105 -8 17 -19 62 -25 100 -6 39 -17 77 -24 85
-14 17 -42 99 -51 150 -9 48 -64 213 -76 224 -5 6 -9 19 -9 29 0 11 -8 36 -19
56 -20 39 -41 118 -41 155 0 13 -11 44 -25 69 -14 25 -32 71 -41 103 -8 32
-19 63 -24 69 -5 6 -17 40 -26 75 -9 35 -29 89 -45 120 -16 32 -29 64 -29 72
0 8 -4 18 -9 24 -5 5 -21 43 -34 85 -14 41 -37 97 -51 124 -14 26 -26 55 -26
62 0 14 -8 35 -51 129 -11 22 -19 46 -19 53 0 7 -15 40 -34 74 -19 34 -49 98
-66 142 -18 44 -36 87 -41 95 -18 31 -50 105 -56 129 -3 14 -14 37 -23 51 -10
14 -21 36 -25 50 -4 14 -18 39 -31 55 -20 27 -94 184 -94 200 0 3 -12 22 -26
40 -14 19 -34 57 -45 86 -11 29 -31 66 -45 82 -13 16 -24 34 -24 41 0 7 -14
32 -30 55 -17 22 -38 60 -47 83 -9 24 -41 83 -70 132 -29 50 -53 95 -53 101 0
6 -13 29 -30 51 -16 21 -30 43 -30 48 0 5 -10 23 -23 40 -21 28 -53 84 -119
206 -51 94 -71 126 -97 160 -16 20 -38 54 -49 77 -12 23 -26 44 -32 48 -5 3
-28 36 -50 73 -22 37 -79 121 -125 187 -47 66 -96 141 -110 168 -14 26 -55 87
-90 135 -36 48 -87 116 -113 151 -26 35 -59 82 -74 104 -38 57 -61 86 -156
200 -45 54 -87 108 -93 119 -6 10 -47 61 -92 112 -45 52 -100 120 -122 152
-22 31 -69 90 -105 129 -36 39 -87 98 -115 130 -27 33 -74 87 -105 120 -30 33
-84 94 -120 134 -127 144 -667 694 -716 728 -17 12 -48 39 -70 60 -86 83 -263
243 -324 293 -36 29 -92 80 -124 112 -33 33 -96 85 -140 116 -45 31 -119 91
-166 133 -47 42 -105 88 -130 104 -25 15 -54 37 -65 49 -11 12 -58 49 -105 83
-47 35 -107 79 -134 100 -27 21 -93 68 -145 106 -53 38 -100 74 -106 81 -13
16 -131 100 -210 149 -33 21 -100 67 -150 102 -84 59 -191 127 -289 185 -24
14 -63 40 -87 59 -24 18 -67 44 -96 58 -28 13 -57 30 -63 38 -7 8 -20 15 -29
15 -14 0 -58 27 -170 102 -14 10 -33 18 -41 18 -8 0 -27 11 -42 25 -15 14 -84
54 -154 90 -70 36 -132 69 -138 74 -6 5 -60 35 -121 66 -60 32 -143 75 -183
96 -41 22 -80 39 -88 39 -7 0 -53 23 -101 50 -48 28 -92 50 -98 50 -5 0 -68
29 -140 64 -71 35 -143 67 -160 70 -16 4 -64 24 -105 45 -41 21 -120 58 -175
82 -55 23 -111 51 -125 61 -14 10 -48 22 -76 27 -45 9 -173 54 -229 81 -29 15
-213 80 -265 95 -25 7 -58 20 -75 28 -50 25 -105 47 -118 47 -16 0 -192 56
-232 74 -16 8 -52 20 -80 29 -98 29 -191 56 -232 67 -24 6 -43 15 -43 19 0 5
-53 21 -117 36 -65 14 -153 35 -195 46 -43 10 -86 19 -97 19 -11 0 -26 7 -35
15 -8 8 -30 18 -48 21 -31 5 -179 38 -313 69 -33 8 -76 17 -97 20 -20 3 -38
12 -41 19 -3 8 -29 16 -64 19 -32 3 -150 22 -262 42 -112 19 -216 35 -230 35
-14 0 -39 7 -56 16 -31 17 -116 31 -355 59 -74 8 -180 22 -235 30 -55 8 -138
17 -185 21 -47 4 -89 10 -95 14 -38 29 -717 66 -1335 73 -212 3 -547 2 -745
-3z m1480 -529 c165 -12 314 -25 330 -30 17 -5 64 -12 105 -15 182 -15 460
-48 520 -61 36 -8 92 -17 125 -21 33 -3 86 -12 118 -20 31 -8 87 -19 125 -24
324 -45 375 -54 501 -91 35 -11 74 -19 85 -19 12 0 71 -11 131 -24 61 -13 148
-31 195 -40 47 -8 108 -24 135 -35 52 -20 206 -59 285 -71 25 -4 86 -22 135
-39 50 -17 153 -49 230 -72 77 -23 151 -49 165 -59 14 -10 46 -22 70 -28 136
-33 175 -45 208 -62 20 -11 44 -20 52 -20 8 0 26 -6 41 -13 14 -8 61 -26 104
-41 44 -15 91 -34 105 -41 32 -18 178 -74 300 -115 52 -18 122 -45 155 -60 33
-15 78 -33 100 -39 22 -6 54 -20 70 -31 17 -11 36 -20 43 -20 8 0 55 -20 105
-44 51 -24 115 -52 142 -62 40 -15 299 -142 480 -236 49 -26 122 -58 130 -58
5 0 22 -11 40 -24 17 -13 53 -35 81 -48 27 -13 94 -50 148 -82 55 -32 119 -67
143 -78 23 -10 84 -46 133 -79 50 -32 116 -72 148 -87 32 -16 71 -37 87 -48
17 -11 53 -35 80 -54 28 -19 78 -53 112 -76 34 -24 84 -54 111 -68 26 -13 55
-32 62 -42 8 -9 35 -25 59 -36 24 -10 65 -36 90 -56 25 -21 68 -52 94 -68 26
-16 62 -39 80 -51 18 -12 55 -37 82 -56 28 -19 56 -41 63 -50 8 -9 37 -31 65
-49 57 -36 56 -36 142 -105 33 -27 76 -60 95 -73 19 -13 73 -56 120 -95 47
-39 105 -83 130 -98 25 -14 77 -55 115 -90 66 -59 158 -134 226 -184 16 -12
51 -43 78 -70 76 -75 121 -117 147 -133 12 -9 110 -99 216 -201 106 -102 222
-212 258 -245 82 -75 74 -67 275 -279 94 -99 193 -202 220 -230 28 -28 91 -98
140 -154 50 -57 110 -124 133 -150 24 -25 57 -65 73 -88 16 -23 35 -46 42 -50
7 -4 28 -28 47 -53 19 -25 53 -64 75 -88 22 -24 47 -55 55 -71 20 -36 64 -92
126 -160 28 -31 79 -96 114 -146 36 -49 75 -101 88 -115 13 -13 31 -38 39 -54
9 -17 43 -67 77 -113 34 -45 81 -112 106 -149 25 -36 57 -80 71 -98 23 -28
118 -174 163 -249 10 -18 22 -35 27 -38 5 -3 19 -24 32 -47 12 -22 38 -65 58
-94 20 -29 48 -76 63 -103 15 -28 36 -59 45 -70 10 -11 35 -55 55 -97 21 -43
45 -83 54 -90 8 -7 26 -36 38 -65 13 -28 28 -54 34 -58 6 -3 24 -33 40 -65 16
-32 34 -61 39 -65 11 -6 341 -669 341 -684 0 -4 13 -26 30 -49 16 -22 32 -54
36 -69 4 -15 31 -75 60 -133 30 -58 60 -125 69 -150 9 -24 22 -51 29 -60 7 -8
19 -33 26 -55 7 -22 23 -59 36 -82 13 -22 30 -66 38 -97 8 -31 24 -70 36 -85
11 -16 20 -38 20 -48 0 -10 7 -28 14 -39 17 -24 51 -123 60 -172 3 -19 14 -46
25 -60 19 -28 77 -182 107 -287 9 -33 20 -64 24 -70 3 -5 13 -30 20 -55 8 -25
20 -54 27 -65 6 -11 19 -49 28 -85 9 -36 21 -83 26 -105 6 -22 14 -44 20 -49
5 -6 9 -18 9 -28 0 -10 4 -18 9 -18 4 0 14 -27 20 -60 7 -33 18 -75 26 -93 7
-18 20 -68 29 -112 15 -80 38 -140 49 -129 3 4 6 -2 5 -12 -2 -39 79 -374 106
-438 9 -21 14 -42 11 -46 -3 -5 -1 -10 5 -12 6 -2 19 -56 30 -121 10 -65 22
-122 25 -128 4 -5 13 -49 21 -97 26 -152 31 -176 43 -207 7 -16 22 -91 32
-165 11 -74 29 -184 40 -245 12 -60 25 -144 29 -185 4 -41 8 -68 9 -60 2 8 12
-43 22 -115 18 -125 38 -341 59 -660 6 -82 15 -175 20 -206 6 -30 10 -100 10
-155 0 -55 4 -125 9 -155 15 -87 21 -718 10 -1044 -6 -165 -11 -338 -13 -385
-1 -47 -8 -119 -14 -160 -11 -74 -33 -317 -52 -580 -10 -139 -39 -352 -64
-475 -18 -90 -54 -310 -77 -470 -18 -130 -20 -139 -30 -151 -5 -6 -9 -16 -7
-20 1 -5 -4 -34 -10 -64 -19 -89 -41 -207 -62 -330 -11 -63 -31 -143 -45 -177
-14 -34 -27 -82 -31 -105 -3 -24 -15 -70 -26 -103 -11 -33 -27 -96 -35 -140
-14 -79 -39 -161 -55 -179 -4 -6 -8 -22 -8 -36 0 -14 -13 -68 -29 -120 -16
-52 -34 -120 -41 -150 -7 -30 -19 -66 -26 -80 -16 -29 -67 -176 -93 -273 -11
-37 -24 -73 -29 -80 -5 -7 -20 -50 -32 -97 -13 -47 -27 -90 -31 -96 -5 -6 -20
-45 -33 -87 -13 -42 -33 -89 -44 -104 -11 -16 -23 -44 -27 -63 -4 -19 -13 -44
-20 -55 -7 -11 -16 -41 -20 -65 -4 -25 -18 -61 -32 -80 -13 -19 -31 -60 -40
-90 -8 -30 -19 -59 -23 -65 -4 -5 -11 -21 -15 -35 -4 -14 -20 -52 -35 -85 -16
-33 -50 -109 -76 -170 -26 -60 -50 -114 -54 -120 -4 -5 -20 -41 -35 -80 -15
-38 -40 -91 -56 -118 -16 -26 -29 -49 -29 -52 0 -12 -224 -448 -247 -482 -11
-15 -34 -59 -53 -98 -18 -38 -48 -91 -66 -116 -19 -26 -34 -49 -34 -52 0 -15
-62 -136 -82 -162 -13 -16 -34 -48 -48 -71 -101 -172 -194 -322 -233 -374 -34
-48 -88 -131 -114 -178 -14 -26 -29 -49 -33 -52 -3 -3 -17 -23 -30 -45 -14
-22 -39 -56 -55 -75 -17 -19 -44 -57 -60 -85 -15 -27 -35 -58 -44 -68 -8 -10
-24 -33 -36 -51 -11 -19 -47 -69 -80 -111 -68 -88 -104 -137 -189 -256 -32
-45 -88 -116 -124 -157 -35 -40 -79 -96 -97 -123 -18 -28 -50 -69 -71 -92 -22
-23 -77 -89 -123 -147 -46 -58 -109 -132 -140 -165 -31 -34 -75 -83 -98 -110
-155 -182 -671 -715 -818 -845 -33 -30 -125 -115 -205 -191 -80 -75 -171 -158
-202 -184 -32 -25 -58 -49 -58 -53 0 -4 -18 -18 -40 -32 -22 -14 -40 -28 -40
-32 0 -4 -12 -14 -27 -22 -16 -8 -69 -52 -119 -98 -50 -46 -123 -105 -163
-132 -39 -27 -81 -60 -91 -74 -24 -30 -153 -128 -180 -137 -11 -3 -20 -9 -20
-13 0 -4 -57 -47 -126 -97 -69 -49 -149 -108 -177 -130 -29 -23 -74 -54 -102
-70 -27 -16 -88 -58 -135 -93 -47 -35 -102 -73 -122 -83 -20 -10 -40 -23 -43
-29 -4 -6 -30 -22 -58 -37 -29 -14 -54 -28 -57 -32 -10 -12 -95 -68 -130 -86
-19 -10 -53 -32 -75 -50 -22 -17 -56 -40 -75 -50 -73 -37 -97 -51 -120 -68
-56 -40 -146 -97 -153 -97 -13 0 -243 -126 -302 -165 -28 -19 -129 -73 -225
-120 -96 -47 -182 -90 -190 -95 -8 -6 -49 -26 -90 -46 -71 -33 -101 -48 -160
-79 -14 -7 -70 -32 -125 -54 -55 -23 -126 -55 -157 -71 -32 -17 -64 -30 -70
-30 -7 0 -25 -6 -40 -14 -14 -8 -43 -19 -65 -26 -21 -7 -56 -22 -78 -35 -42
-24 -150 -69 -270 -112 -38 -14 -86 -34 -105 -44 -19 -11 -39 -19 -45 -19 -9
0 -207 -74 -280 -105 -16 -7 -46 -16 -65 -20 -19 -3 -49 -13 -67 -21 -17 -8
-53 -18 -80 -23 -27 -6 -72 -21 -99 -35 -28 -14 -82 -33 -120 -41 -38 -9 -94
-25 -124 -37 -30 -11 -70 -23 -88 -25 -18 -3 -35 -9 -38 -14 -3 -5 -18 -9 -34
-9 -16 0 -31 -4 -35 -9 -3 -5 -49 -19 -103 -31 -93 -21 -213 -51 -277 -70 -69
-20 -236 -60 -320 -75 -49 -9 -94 -20 -100 -24 -28 -21 -349 -83 -555 -107
-30 -3 -59 -10 -65 -14 -5 -4 -30 -10 -55 -14 -25 -4 -67 -11 -95 -16 -27 -5
-102 -16 -165 -25 -63 -8 -155 -21 -205 -29 -49 -9 -126 -19 -170 -25 -44 -5
-168 -20 -275 -34 -252 -33 -712 -56 -1282 -63 -365 -5 -523 -2 -895 15 -446
21 -843 53 -874 70 -9 5 -50 12 -90 16 -41 3 -121 14 -179 25 -137 25 -370 60
-395 60 -11 0 -49 8 -85 19 -36 11 -96 24 -135 30 -249 40 -445 79 -462 93 -8
6 -35 15 -61 19 -26 5 -94 20 -152 34 -58 14 -130 30 -160 36 -30 6 -70 18
-88 25 -18 8 -106 32 -195 54 -188 46 -241 61 -317 89 -30 11 -84 27 -120 36
-64 15 -95 26 -155 50 -54 23 -154 56 -212 71 -31 8 -88 30 -127 49 -76 36
-208 85 -231 85 -8 0 -57 20 -110 45 -54 25 -111 49 -129 52 -17 3 -87 31
-156 61 -69 30 -159 69 -201 86 -42 17 -82 36 -90 43 -8 6 -45 23 -84 38 -77
29 -177 76 -185 85 -3 4 -54 30 -115 59 -60 29 -117 59 -126 67 -8 8 -40 22
-70 33 -54 18 -78 30 -299 151 -63 34 -146 80 -185 100 -38 21 -92 51 -120 68
-27 17 -70 43 -95 56 -25 14 -67 41 -95 60 -27 19 -76 48 -107 64 -31 17 -88
50 -125 75 -37 24 -79 50 -92 57 -14 7 -36 24 -50 37 -14 14 -46 34 -71 45
-25 12 -47 24 -50 27 -10 12 -70 51 -78 51 -5 0 -15 7 -22 15 -7 8 -44 36 -84
61 -39 26 -81 56 -94 67 -12 11 -38 30 -56 41 -71 43 -236 158 -236 165 0 4
-15 15 -33 26 -17 10 -36 23 -42 27 -5 5 -40 30 -76 56 -102 72 -259 192 -354
269 -22 18 -80 65 -129 104 -111 89 -123 100 -265 229 -64 58 -141 126 -171
150 -132 107 -826 785 -892 872 -15 20 -43 51 -63 69 -20 19 -73 79 -117 134
-44 55 -112 134 -152 175 -39 41 -80 89 -91 105 -10 17 -29 38 -42 48 -13 10
-23 24 -23 31 0 11 -79 110 -187 233 -25 28 -56 67 -69 87 -35 51 -123 166
-140 184 -9 8 -36 47 -62 86 -25 39 -67 99 -92 132 -25 34 -61 85 -80 113 -19
29 -46 66 -60 83 -14 17 -34 46 -45 64 -11 18 -56 85 -100 150 -44 64 -109
165 -145 223 -36 58 -81 128 -100 156 -51 72 -74 111 -121 200 -22 44 -47 87
-54 95 -7 8 -32 51 -55 95 -23 44 -48 87 -54 95 -19 22 -82 150 -89 182 -4 14
-18 40 -32 57 -14 16 -40 60 -56 98 -17 37 -35 70 -39 73 -12 9 -340 667 -340
684 0 5 -19 47 -41 95 -66 137 -78 164 -85 196 -4 17 -20 55 -35 85 -31 60
-99 233 -99 251 0 6 -16 46 -35 89 -19 43 -35 86 -35 96 0 11 -9 36 -20 57
-11 20 -20 42 -20 47 0 6 -9 30 -20 52 -11 23 -20 49 -20 58 0 9 -9 33 -19 53
-11 21 -23 57 -26 80 -7 42 -20 81 -55 167 -21 53 -54 172 -71 255 -6 32 -15
66 -19 75 -44 94 -69 173 -110 358 -15 67 -35 132 -43 145 -8 12 -18 47 -21
77 -4 30 -13 78 -20 105 -8 28 -19 84 -26 125 -6 41 -16 97 -21 123 -5 26 -9
60 -9 74 0 15 -7 34 -16 44 -17 19 -29 60 -43 154 -5 33 -19 112 -30 175 -11
63 -23 144 -27 180 -4 36 -15 81 -24 100 -21 42 -26 76 -44 295 -8 94 -21 204
-30 245 -8 41 -18 131 -22 200 -3 69 -10 130 -14 135 -14 18 -19 60 -51 430
-19 212 -19 1780 -1 1945 7 63 15 142 18 175 3 33 10 69 14 80 5 11 11 38 13
60 2 22 6 45 9 50 3 6 9 71 13 145 4 74 15 180 26 235 10 55 19 122 19 148 0
68 21 240 30 252 5 6 11 33 15 60 4 28 11 57 15 65 4 8 13 64 20 125 6 60 17
121 25 135 7 14 18 72 25 130 6 58 16 110 21 116 19 23 41 104 60 219 11 66
26 140 34 165 7 25 17 65 20 90 4 25 11 50 14 55 12 16 38 113 56 210 10 50
23 104 30 120 7 17 20 53 28 80 8 28 27 91 42 140 15 50 31 108 35 130 4 22
17 65 30 95 34 84 90 260 90 284 0 12 9 40 21 61 19 37 32 73 103 281 13 39
31 82 39 95 9 13 23 51 33 84 9 33 22 69 29 80 7 11 21 45 30 75 10 30 23 62
30 70 17 21 45 96 45 121 0 12 9 32 20 46 11 14 20 32 20 39 0 7 16 43 35 81
19 37 35 73 35 79 0 14 58 138 97 209 16 28 35 68 43 90 8 21 23 53 32 70 16
28 30 58 109 221 16 33 44 86 63 117 19 32 41 74 48 95 7 20 25 52 40 70 16
18 28 38 28 44 0 6 13 36 29 67 15 31 32 67 36 81 4 14 23 43 41 64 19 22 34
48 34 57 0 10 20 47 45 83 24 36 63 103 86 148 23 45 56 101 73 125 17 23 42
61 56 84 14 23 44 71 67 108 24 36 43 70 43 74 0 4 19 34 43 65 23 31 55 77
71 102 15 25 45 68 67 96 21 27 45 66 54 85 9 18 54 86 100 149 47 63 112 156
146 205 34 50 95 130 136 178 41 49 86 105 99 125 29 42 121 155 180 221 22
25 68 82 101 126 34 44 83 103 109 130 27 28 78 84 114 125 36 41 99 111 140
155 42 44 101 109 132 145 139 161 636 648 868 850 47 41 90 80 95 86 17 19
208 178 245 204 34 23 84 67 139 120 24 23 159 134 344 283 40 31 90 67 112
78 22 12 60 38 85 58 71 57 107 83 292 208 278 188 302 203 326 209 12 4 22
10 22 15 0 8 59 50 228 161 32 21 73 45 92 54 19 9 55 30 80 47 107 75 224
143 344 203 71 35 136 70 145 78 16 14 171 93 411 209 74 36 169 84 210 106
105 56 175 89 245 116 33 13 107 45 165 70 58 26 123 54 145 62 22 8 45 19 51
24 11 9 149 64 253 100 30 10 77 30 105 43 28 13 85 36 126 51 41 15 89 33
105 40 65 30 155 65 165 65 6 0 30 9 53 19 23 11 60 22 82 26 54 9 135 35 160
51 11 7 45 20 75 28 30 8 90 27 133 41 43 14 88 25 100 25 12 0 39 9 59 20 20
11 83 29 140 40 57 11 125 28 152 37 28 9 84 24 125 34 42 9 119 28 171 42
235 60 607 142 715 156 44 6 202 33 350 60 149 27 329 54 400 61 72 7 201 23
287 36 150 22 224 28 673 54 105 6 204 13 220 15 17 1 298 2 625 0 488 -2 649
-6 895 -24z"/>
<path d="M14910 27631 c-41 -4 -56 -8 -40 -12 14 -2 -67 -8 -180 -12 -113 -4
-309 -16 -435 -26 -188 -15 -239 -22 -279 -40 l-49 -21 6 -106 c3 -59 9 -109
12 -113 4 -3 113 -6 243 -6 246 0 271 -4 288 -45 4 -8 12 -211 20 -450 27
-922 35 -1109 45 -1139 16 -45 66 -66 159 -66 41 0 89 6 106 13 54 23 59 45
57 246 -3 260 -21 660 -34 736 -13 82 -28 711 -16 725 4 6 98 12 220 15 232 6
252 11 283 71 14 29 20 149 6 149 -4 0 -18 18 -32 39 -13 22 -31 41 -39 43
-27 7 -272 6 -341 -1z"/>
<path d="M16583 27483 c-24 -4 -75 -70 -93 -118 -6 -15 -14 -55 -19 -89 -20
-135 -54 -372 -67 -466 -3 -24 -12 -59 -19 -77 -7 -17 -23 -110 -35 -205 -11
-95 -29 -227 -40 -293 -10 -66 -22 -142 -26 -170 -4 -27 -13 -64 -21 -82 -35
-86 -64 -334 -44 -385 20 -53 94 -79 341 -118 69 -11 136 -22 150 -25 156 -36
369 -31 494 10 98 33 162 63 200 95 16 14 44 37 61 52 43 37 121 177 147 263
20 69 64 281 74 360 3 22 9 49 14 60 43 102 71 538 41 630 -23 67 -79 184
-108 223 -76 103 -217 197 -325 217 -21 4 -42 13 -49 21 -6 8 -25 14 -41 14
-16 0 -37 4 -46 9 -50 27 -527 87 -589 74z m402 -324 c50 -6 105 -17 124 -25
18 -8 41 -14 50 -14 23 -1 78 -29 143 -75 44 -31 64 -54 89 -102 l32 -62 -6
-148 c-5 -150 -36 -393 -63 -493 -8 -30 -16 -64 -18 -75 -29 -138 -46 -208
-54 -218 -5 -7 -12 -23 -15 -37 -8 -31 -73 -110 -92 -110 -7 0 -15 -6 -18 -14
-16 -41 -190 -65 -348 -47 -222 25 -239 36 -227 147 14 141 32 249 44 259 13
10 34 140 60 355 8 69 21 155 29 192 8 37 15 87 15 110 0 24 4 48 9 54 12 14
29 89 41 188 6 49 16 98 21 108 12 22 52 23 184 7z"/>
<path d="M12642 27358 l-83 -41 6 -61 c4 -34 10 -77 15 -96 5 -19 14 -71 20
-115 6 -44 18 -111 25 -150 8 -38 21 -106 30 -150 29 -145 42 -219 55 -310 6
-49 18 -126 26 -170 8 -44 18 -103 23 -131 5 -28 13 -60 19 -70 17 -32 82
-393 82 -456 0 -41 38 -131 72 -170 53 -61 65 -61 478 16 74 14 205 35 290 46
207 27 279 45 320 80 l33 28 -5 78 c-5 69 -8 80 -32 101 -15 13 -36 23 -47 23
-10 0 -18 6 -17 13 4 19 -58 21 -112 3 -27 -9 -77 -20 -112 -25 -34 -5 -161
-24 -282 -41 l-218 -32 -25 25 c-19 18 -26 38 -30 86 -3 33 -10 61 -14 61 -5
0 -9 9 -9 20 0 11 -4 20 -10 20 -5 0 -10 17 -10 38 0 20 -6 64 -14 97 -8 33
-17 89 -20 125 -9 88 -48 294 -57 300 -4 3 -9 19 -12 35 -2 17 -6 37 -10 45
-3 8 -8 31 -10 50 -14 105 -61 388 -67 405 -5 11 -14 48 -21 83 -7 34 -17 62
-21 62 -4 0 -8 22 -8 49 0 35 -7 58 -24 84 -13 19 -22 37 -20 40 3 3 -8 8 -23
12 -15 3 -30 10 -33 15 -3 4 -18 10 -35 14 -23 4 -49 -4 -113 -36z"/>
<path d="M18600 27175 c-41 -22 -95 -97 -110 -150 -22 -84 -61 -197 -86 -253
-13 -29 -24 -58 -24 -65 0 -7 -9 -41 -20 -77 -11 -36 -25 -86 -30 -113 -5 -26
-27 -93 -48 -150 -55 -146 -63 -168 -73 -210 -5 -21 -21 -60 -34 -87 -14 -27
-34 -80 -46 -117 -12 -37 -28 -87 -35 -111 -8 -23 -14 -49 -14 -57 0 -9 -4
-23 -9 -33 -37 -69 -73 -181 -111 -343 -22 -95 -14 -118 53 -154 26 -14 54
-25 60 -25 7 0 30 -9 52 -20 22 -11 49 -20 61 -20 26 0 227 -62 294 -91 25
-10 113 -42 195 -70 83 -28 181 -62 219 -75 38 -13 89 -24 114 -24 40 0 50 5
84 40 38 41 43 59 38 130 -3 51 -14 66 -79 104 -68 39 -171 76 -286 101 -44
10 -96 26 -116 36 -20 10 -88 32 -150 50 -140 38 -159 53 -159 125 0 30 6 68
14 86 7 18 19 49 26 68 6 19 21 58 32 85 11 28 29 80 39 117 10 37 26 79 35
94 17 25 20 26 82 20 59 -6 128 -26 262 -74 30 -11 87 -30 125 -41 68 -21 126
-42 173 -64 53 -25 139 67 125 133 -3 18 0 36 8 46 8 10 9 18 3 22 -6 4 -13
15 -17 24 -13 36 -102 80 -252 123 -182 53 -339 111 -361 132 -18 19 -18 84 1
130 8 19 15 42 15 51 0 8 6 23 13 31 12 14 48 130 77 248 7 26 19 47 32 54 33
18 130 3 201 -29 75 -35 126 -53 237 -82 47 -13 94 -28 105 -33 48 -25 183
-67 215 -67 78 1 153 131 120 210 -14 35 -70 80 -99 80 -11 0 -22 4 -25 9 -9
14 -127 56 -241 86 -55 14 -131 39 -170 55 -38 16 -104 39 -145 50 -41 12
-100 31 -130 42 -30 11 -85 30 -122 44 -78 28 -84 28 -118 9z"/>
<path d="M15540 27031 l-34 -28 -10 -151 -9 -150 -30 -6 c-16 -3 -97 -6 -179
-6 -143 0 -150 -1 -172 -23 -36 -36 -43 -109 -17 -169 24 -52 54 -68 114 -62
58 7 196 -14 213 -31 9 -8 19 -13 24 -10 17 11 23 -36 21 -181 -3 -162 1 -178
52 -188 12 -3 34 -7 48 -10 14 -3 29 -2 33 1 4 4 15 8 24 8 9 1 26 2 37 3 11
1 31 18 44 38 22 31 25 50 31 166 9 170 -1 162 193 153 138 -6 149 -5 181 14
40 25 45 36 52 108 5 59 -13 104 -50 121 -12 5 -56 10 -98 11 -43 1 -91 6
-107 11 -17 5 -39 6 -49 3 -10 -2 -35 6 -54 19 l-36 23 5 146 6 146 -36 36
c-33 35 -39 37 -99 37 -55 0 -68 -4 -98 -29z"/>
<path d="M11210 26954 c-88 -28 -174 -77 -184 -106 -6 -16 -5 -82 1 -170 5
-79 11 -271 12 -427 1 -156 3 -287 5 -290 2 -3 7 -199 10 -436 4 -236 9 -479
12 -539 6 -109 7 -110 42 -143 32 -30 40 -33 97 -33 58 0 66 3 113 40 27 22
53 48 58 57 4 10 8 117 8 237 l1 220 70 33 c39 18 75 32 80 33 6 0 67 18 135
40 68 22 130 40 137 40 8 0 33 9 56 21 23 11 66 22 95 24 52 4 56 2 102 -41
26 -24 61 -64 76 -87 16 -23 32 -43 37 -45 4 -2 7 -7 7 -12 0 -22 94 -160 113
-166 49 -16 130 -3 178 28 80 51 110 106 81 149 -88 134 -131 196 -145 207 -9
8 -31 37 -49 65 -18 29 -37 57 -43 63 -5 6 -17 22 -25 34 -36 54 -92 128 -129
170 -21 25 -56 70 -77 100 -20 30 -51 71 -68 91 -72 84 -88 104 -101 128 -21
42 -81 128 -109 158 -15 16 -66 86 -115 156 -119 172 -193 267 -271 349 -64
67 -66 68 -115 67 -27 -1 -70 -7 -95 -15z m198 -495 c12 -24 26 -46 31 -49 12
-7 119 -166 149 -220 13 -25 34 -58 47 -75 51 -69 131 -192 143 -218 17 -39
15 -77 -3 -77 -8 0 -15 -4 -15 -9 0 -5 -15 -12 -32 -16 -51 -11 -241 -75 -263
-90 -11 -7 -35 -16 -52 -19 -26 -6 -34 -4 -43 14 -6 12 -9 28 -6 36 3 8 2 12
-3 9 -6 -3 -11 55 -14 137 -5 162 -20 351 -37 481 -7 48 -9 103 -6 122 12 62
64 49 104 -26z"/>
<path d="M11364 25855 c0 -49 1 -71 3 -48 2 23 2 64 0 90 -2 26 -3 8 -3 -42z"/>
<path d="M20517 26378 c-54 -4 -110 -13 -125 -21 -104 -55 -134 -75 -185 -125
-52 -51 -73 -83 -138 -212 -50 -98 -45 -343 8 -443 34 -64 93 -147 147 -207
205 -229 232 -262 271 -338 25 -48 27 -60 22 -126 -7 -91 -29 -137 -97 -198
-59 -54 -101 -65 -205 -54 -120 12 -161 31 -283 130 -85 68 -125 108 -160 161
-56 85 -96 125 -123 125 -26 0 -126 -53 -163 -85 -26 -24 -28 -30 -24 -83 3
-48 12 -70 56 -138 89 -139 233 -255 412 -333 30 -14 78 -35 106 -47 67 -30
125 -43 233 -51 109 -7 155 3 276 62 112 55 172 111 226 212 23 43 45 83 50
88 20 27 41 134 42 223 2 95 -16 192 -34 192 -5 0 -9 7 -9 15 0 9 -11 33 -25
55 -14 22 -25 42 -25 45 0 17 -88 131 -162 210 -47 50 -97 111 -112 137 -15
25 -34 52 -42 59 -26 22 -65 108 -71 159 -9 73 19 137 91 214 54 56 67 65 108
70 65 10 110 0 203 -44 119 -56 194 -116 249 -199 26 -39 53 -74 59 -78 19
-11 134 -3 171 12 37 15 66 53 66 85 0 42 -79 200 -124 248 -58 63 -148 128
-281 205 -119 69 -222 88 -408 75z"/>
<path d="M9745 25632 c-54 -25 -115 -90 -115 -122 0 -14 15 -48 33 -75 19 -28
54 -87 78 -131 39 -73 42 -84 31 -105 -16 -30 -126 -106 -175 -121 -20 -6 -37
-15 -37 -20 0 -4 -6 -8 -14 -8 -8 0 -31 -16 -51 -35 -34 -31 -36 -38 -31 -74
10 -72 62 -146 114 -160 17 -5 34 -6 37 -1 3 5 20 12 38 15 32 7 43 13 186
103 70 43 75 45 100 31 14 -8 30 -24 36 -35 5 -10 20 -33 31 -49 12 -17 37
-60 56 -96 41 -78 103 -149 130 -149 10 0 44 12 77 27 42 19 64 36 77 60 17
33 17 36 -1 91 -10 31 -26 68 -35 82 -9 14 -21 36 -28 50 -7 14 -26 48 -42 75
-22 36 -29 61 -27 89 2 39 3 39 81 73 85 36 194 99 213 123 35 46 15 122 -54
194 -33 35 -40 38 -75 33 -22 -3 -58 -18 -81 -33 -23 -16 -51 -33 -62 -39 -11
-6 -41 -23 -66 -37 -47 -27 -104 -44 -129 -39 -19 4 -33 24 -71 95 -17 33 -43
78 -59 100 -74 105 -99 118 -165 88z"/>
<path d="M22001 25613 c-14 -3 -51 -32 -83 -64 -55 -56 -58 -62 -58 -108 0
-44 4 -52 44 -89 24 -22 54 -45 67 -52 45 -24 201 -154 208 -174 11 -29 -11
-80 -57 -131 -23 -26 -42 -49 -42 -52 0 -3 -21 -33 -48 -67 -26 -33 -55 -73
-64 -87 -9 -14 -48 -66 -87 -114 -39 -48 -71 -93 -71 -100 0 -7 -20 -34 -45
-61 -25 -26 -45 -50 -45 -53 0 -3 -22 -31 -48 -62 -26 -30 -63 -75 -82 -99
-19 -24 -47 -58 -61 -75 -14 -16 -49 -65 -77 -107 -29 -42 -58 -81 -66 -85 -7
-4 -22 -22 -32 -39 -11 -16 -36 -52 -57 -80 -21 -27 -53 -73 -72 -102 -29 -47
-32 -57 -24 -87 10 -35 32 -66 83 -117 26 -26 34 -28 101 -28 l73 0 36 48 c34
44 67 88 221 287 33 43 80 106 105 140 25 33 61 81 81 106 20 24 46 62 59 84
24 41 143 205 189 261 25 30 34 42 69 95 9 15 40 60 67 99 28 40 65 96 82 124
67 106 101 111 200 29 162 -136 248 -191 304 -195 29 -3 38 4 80 55 56 70 65
109 35 152 -12 16 -28 35 -36 41 -8 7 -35 31 -60 54 -56 51 -181 148 -276 215
-115 80 -152 107 -214 158 -33 26 -84 64 -114 86 -30 21 -76 56 -101 77 -25
21 -68 58 -96 82 -27 23 -53 41 -57 41 -4 -1 -18 -4 -31 -6z"/>
<path d="M7836 25015 c-16 -9 -54 -40 -84 -69 -62 -61 -68 -86 -33 -153 23
-46 100 -156 186 -267 33 -43 83 -110 110 -150 28 -40 84 -117 125 -170 41
-54 95 -126 118 -160 24 -33 57 -75 73 -92 16 -17 26 -33 23 -37 -4 -4 -2 -7
4 -7 7 0 12 -5 12 -10 0 -6 5 -16 10 -23 10 -12 119 -163 175 -243 30 -43 66
-89 118 -149 15 -18 27 -35 27 -38 0 -4 12 -19 28 -36 15 -16 40 -43 55 -60
41 -44 90 -66 124 -53 32 11 127 75 258 175 50 37 157 117 238 177 254 188
341 268 351 324 10 51 -19 101 -88 154 -29 22 -86 30 -86 12 0 -5 -6 -10 -14
-10 -8 0 -16 -3 -18 -7 -1 -5 -23 -21 -48 -38 -25 -16 -53 -37 -63 -46 -9 -9
-30 -22 -45 -30 -15 -8 -30 -18 -33 -22 -3 -5 -33 -27 -66 -50 -33 -23 -91
-67 -129 -98 -116 -93 -173 -129 -209 -129 -27 0 -37 8 -71 55 -21 31 -59 81
-84 113 -25 31 -62 82 -83 112 -36 53 -83 117 -111 151 -27 33 -102 135 -121
165 -11 18 -54 76 -95 129 -41 54 -88 117 -105 142 -26 39 -127 174 -244 328
-54 71 -118 125 -150 125 -14 0 -39 -7 -55 -15z"/>
<path d="M23468 24346 c-78 -58 -116 -93 -383 -351 -238 -229 -325 -311 -435
-405 -35 -30 -86 -77 -114 -103 -28 -27 -63 -56 -78 -64 -14 -9 -32 -26 -38
-37 -6 -12 -32 -37 -56 -56 -25 -19 -96 -84 -159 -144 l-115 -108 0 -50 c0
-52 21 -87 97 -163 38 -39 93 -51 134 -30 26 14 203 178 314 291 82 84 198
174 224 174 16 0 43 -19 79 -55 30 -30 58 -55 63 -55 4 0 17 -16 29 -36 19
-30 22 -44 16 -89 -3 -30 -15 -69 -25 -87 -11 -18 -25 -53 -31 -77 -7 -25 -22
-65 -35 -90 -12 -25 -40 -91 -60 -146 -21 -55 -47 -120 -58 -145 -42 -95 -62
-263 -37 -310 17 -32 103 -87 148 -95 44 -7 92 12 92 36 0 6 16 44 35 86 20
41 54 122 76 181 22 59 47 123 56 142 28 63 66 174 82 239 22 87 45 105 121
90 95 -18 234 -22 276 -9 55 17 212 97 254 128 91 68 230 245 230 293 0 10 4
20 9 23 10 7 19 49 27 130 6 59 -9 172 -26 205 -5 9 -13 30 -19 48 -22 72
-127 209 -280 366 -221 227 -317 317 -338 317 -10 0 -44 -20 -75 -44z m187
-480 c97 -101 200 -235 215 -280 15 -46 7 -113 -17 -154 -92 -150 -209 -225
-354 -226 -72 -1 -79 1 -135 38 -103 68 -254 234 -254 279 0 25 122 152 284
296 37 34 77 73 89 87 24 30 54 44 82 37 11 -2 52 -37 90 -77z"/>
<path d="M18470 24359 c0 -5 5 -7 10 -4 6 3 10 8 10 11 0 2 -4 4 -10 4 -5 0
-10 -5 -10 -11z"/>
<path d="M7075 24141 c3 -6 -17 -9 -47 -9 -29 1 -71 -4 -93 -11 -65 -21 -195
-89 -243 -129 -97 -79 -449 -442 -469 -484 -27 -56 -34 -78 -24 -78 4 0 25
-30 47 -67 28 -49 86 -113 213 -237 96 -94 206 -205 245 -246 214 -225 826
-827 854 -839 46 -19 95 -7 127 32 14 18 39 47 55 64 25 27 30 41 30 82 0 43
-6 56 -42 103 -39 49 -313 326 -362 366 -45 37 -86 93 -86 120 0 21 19 45 88
109 74 70 92 83 121 83 39 0 195 -45 227 -65 11 -7 65 -27 120 -45 164 -53
178 -58 217 -75 50 -21 223 -59 265 -57 28 1 45 12 94 62 84 86 110 157 71
193 -29 25 -134 77 -144 71 -6 -3 -15 -1 -22 4 -7 5 -39 15 -72 22 -33 6 -96
20 -140 31 -45 10 -88 19 -97 19 -10 0 -21 7 -25 15 -9 15 -46 26 -200 60 -54
12 -83 23 -83 32 0 7 -3 13 -8 13 -4 0 -4 51 1 113 4 61 6 150 4 197 -3 74 -8
93 -38 145 -19 33 -41 73 -49 89 -19 37 -138 176 -150 176 -5 0 -25 14 -43 30
-19 17 -39 30 -45 30 -6 0 -32 11 -59 25 -26 14 -83 31 -125 37 -43 7 -78 16
-78 20 0 5 -9 8 -21 8 -11 0 -18 -4 -14 -9z m100 -378 c102 -61 134 -99 201
-234 32 -65 33 -67 18 -115 -15 -50 -60 -124 -75 -124 -5 0 -9 -6 -9 -13 0
-17 -138 -149 -191 -183 -24 -15 -50 -33 -57 -41 -9 -9 -19 -10 -30 -4 -16 9
-242 237 -360 363 -45 49 -52 61 -46 85 3 15 20 42 38 59 17 17 58 59 91 93
62 64 174 134 242 151 58 14 112 3 178 -37z"/>
<path d="M15187 23654 c-1 -1 -18 -4 -37 -6 -19 -3 -42 -7 -50 -10 -47 -16
-88 -28 -98 -28 -6 0 -35 -14 -64 -32 -154 -93 -277 -271 -297 -433 -11 -85
-10 -113 9 -240 10 -68 20 -93 62 -163 49 -79 97 -132 120 -132 6 0 9 -3 6 -6
-12 -12 71 -80 122 -99 29 -11 68 -35 87 -52 l34 -33 5 -380 4 -380 -1602 0
c-1149 0 -1620 -3 -1667 -11 -48 -9 -75 -20 -99 -40 -18 -16 -37 -29 -42 -29
-13 0 -122 -110 -159 -160 -17 -24 -31 -56 -31 -71 0 -15 -4 -31 -10 -34 -5
-3 -10 -15 -10 -26 0 -11 -4 -18 -9 -15 -16 10 -21 -87 -21 -416 0 -388 -1
-391 -75 -401 -26 -4 -73 -7 -104 -8 -38 0 -50 -3 -36 -8 11 -5 -38 -8 -112
-9 -72 0 -138 -4 -144 -8 -13 -7 -45 -14 -81 -17 -10 -1 -18 -5 -18 -9 0 -4
-12 -8 -26 -8 -51 0 -184 -94 -184 -130 0 -5 -6 -15 -12 -22 -7 -7 -21 -29
-30 -48 -16 -32 -18 -91 -19 -695 -3 -1186 -1 -1326 19 -1357 47 -72 81 -107
144 -150 69 -47 71 -48 181 -58 62 -6 155 -19 207 -29 52 -11 131 -21 175 -22
120 -4 115 9 108 -282 -3 -140 -1 -275 5 -321 11 -86 9 -103 -16 -110 -10 -3
-188 -7 -397 -10 -944 -14 -1004 -17 -1078 -52 -93 -45 -112 -56 -132 -78 -11
-13 -38 -36 -60 -52 -22 -16 -42 -31 -45 -35 -3 -3 -45 -35 -95 -72 -112 -83
-99 -73 -171 -135 -33 -28 -66 -52 -72 -52 -7 0 -12 -4 -12 -10 0 -8 -19 -23
-101 -75 -9 -5 -40 -24 -70 -42 -30 -18 -64 -41 -76 -53 -12 -11 -39 -29 -59
-41 -41 -22 -114 -82 -173 -139 -20 -20 -47 -41 -61 -48 -14 -7 -39 -25 -56
-40 -17 -15 -68 -54 -114 -87 -45 -33 -101 -75 -123 -94 -23 -19 -62 -47 -86
-62 -24 -16 -50 -37 -58 -49 -8 -11 -19 -20 -24 -20 -10 0 -105 -68 -219 -157
-30 -24 -59 -47 -65 -51 -106 -81 -135 -102 -140 -102 -11 0 -129 -84 -170
-121 -22 -20 -71 -58 -110 -84 -61 -42 -162 -121 -218 -170 -10 -9 -34 -25
-54 -36 -20 -12 -55 -35 -77 -53 -23 -18 -61 -47 -86 -63 -128 -87 -251 -244
-265 -340 -3 -21 -10 -279 -15 -573 -5 -294 -14 -616 -20 -715 -5 -99 -10
-307 -10 -463 0 -191 -4 -290 -11 -305 -11 -21 -102 -119 -161 -175 -16 -14
-28 -31 -28 -37 0 -7 -17 -25 -37 -41 -50 -38 -203 -190 -203 -202 0 -5 -21
-25 -46 -43 -50 -37 -52 -40 -169 -159 -44 -45 -95 -94 -112 -107 -18 -14 -56
-57 -85 -96 l-52 -70 -8 -176 c-23 -496 -42 -975 -45 -1128 l-4 -173 42 -61
c22 -33 93 -113 156 -177 63 -65 136 -142 161 -172 26 -30 76 -84 112 -120
121 -122 285 -294 338 -355 80 -89 314 -325 337 -338 15 -9 149 -12 498 -10
548 2 509 -4 628 100 37 32 102 87 145 123 44 36 104 88 134 116 30 28 85 72
121 97 79 56 101 94 77 135 -21 36 -40 73 -78 156 -17 38 -43 86 -56 107 -13
21 -24 45 -24 52 0 8 -9 25 -19 39 -16 19 -27 24 -50 20 -17 -2 -31 -7 -31
-11 0 -7 -23 -11 -73 -13 -16 0 -24 -4 -17 -8 39 -24 -560 -52 -667 -31 -75
14 -152 70 -285 205 -115 116 -146 155 -224 276 -42 64 -59 149 -34 165 6 3
10 24 10 46 0 21 4 39 8 39 5 0 14 44 20 98 35 280 39 296 78 387 61 139 49
135 373 136 146 0 275 2 286 5 49 10 298 25 625 39 262 10 372 18 422 31 36 9
73 14 82 11 18 -7 58 -79 69 -127 5 -19 11 -138 15 -264 l7 -228 56 -17 c30
-10 69 -25 85 -34 30 -18 246 -87 269 -87 8 0 26 -11 40 -24 33 -31 80 -42
109 -26 28 15 116 164 161 275 20 50 43 101 50 115 7 14 25 63 40 110 15 47
33 99 40 115 56 126 150 386 146 404 -1 8 3 25 10 37 30 57 -64 179 -331 430
-109 102 -360 360 -360 369 0 5 -6 16 -14 24 -8 9 -21 41 -29 71 -13 49 -15
53 -24 32 -9 -23 -10 -23 -63 25 -109 97 -319 317 -337 352 -22 44 -64 88
-101 104 -20 9 -224 13 -797 17 l-770 5 -1 360 c0 198 3 567 7 820 l8 460 35
31 c49 42 134 63 301 75 77 5 176 13 220 18 44 6 204 15 355 21 812 32 743 31
770 11 13 -10 45 -51 69 -92 24 -41 65 -105 90 -144 25 -38 51 -79 57 -90 6
-11 48 -80 93 -154 44 -73 81 -137 81 -143 0 -5 10 -22 21 -38 21 -28 22 -28
48 -12 14 9 28 19 31 23 3 3 23 19 46 35 22 16 78 57 123 92 46 34 87 62 92
62 4 0 30 19 57 43 79 68 151 125 242 188 47 33 107 79 133 102 27 23 56 47
65 52 10 6 53 37 96 70 75 57 182 135 236 172 14 10 46 34 73 55 85 66 114 60
147 -29 25 -69 39 -100 61 -133 9 -14 20 -41 24 -60 4 -19 13 -48 20 -65 7
-16 22 -57 34 -90 12 -33 35 -87 51 -120 16 -33 36 -85 45 -115 17 -59 46
-132 55 -140 10 -9 47 -102 65 -164 9 -33 34 -99 56 -147 21 -47 39 -92 39
-98 0 -6 13 -37 30 -68 16 -31 30 -61 30 -68 0 -7 20 -53 45 -102 24 -49 49
-111 55 -137 6 -26 28 -84 50 -130 22 -46 40 -92 40 -102 0 -10 11 -41 24 -69
21 -42 32 -69 41 -95 4 -11 18 -47 30 -75 6 -16 18 -46 25 -65 15 -43 20 -54
65 -160 21 -47 46 -112 57 -145 11 -33 26 -73 33 -90 50 -109 97 -223 125
-305 18 -52 40 -108 50 -125 10 -16 28 -64 40 -105 22 -75 94 -230 142 -306
53 -84 217 -194 287 -194 17 0 33 -4 36 -10 3 -5 16 -10 29 -10 12 0 26 -4 31
-9 15 -14 252 -31 575 -41 444 -14 732 -28 763 -35 21 -6 27 -13 27 -34 0 -14
9 -44 19 -66 15 -34 39 -210 29 -217 -2 -2 -648 -5 -1437 -8 l-1433 -5 -45
-50 c-48 -53 -123 -158 -123 -173 0 -4 -15 -26 -33 -48 -18 -21 -45 -59 -61
-84 -16 -25 -48 -70 -72 -100 -23 -31 -56 -83 -74 -115 -18 -33 -42 -71 -55
-85 -12 -14 -28 -36 -35 -50 -7 -14 -44 -71 -81 -127 -38 -57 -69 -109 -69
-117 0 -8 -4 -17 -9 -20 -5 -4 -30 -37 -54 -75 -25 -37 -52 -75 -60 -83 -8 -7
-22 -30 -32 -48 -10 -19 -31 -51 -46 -71 -16 -20 -29 -41 -29 -47 0 -5 -28
-49 -63 -98 -103 -146 -162 -236 -186 -284 -13 -25 -31 -54 -41 -65 -25 -27
-65 -83 -86 -120 -9 -16 -36 -55 -60 -86 -24 -30 -44 -59 -44 -65 0 -5 -27
-48 -59 -97 -32 -48 -64 -102 -71 -120 -6 -17 -22 -54 -35 -82 -54 -116 -50
-457 7 -569 11 -22 20 -42 20 -43 -1 -2 1 -11 4 -20 21 -64 40 -103 70 -144
18 -26 50 -80 70 -120 34 -68 55 -102 145 -229 18 -25 54 -77 80 -116 27 -39
58 -78 71 -86 82 -54 654 -78 1853 -78 756 0 1088 8 1255 29 204 27 356 81
405 144 64 82 125 171 125 181 0 6 24 48 53 93 96 151 130 207 194 317 35 61
74 121 87 135 14 14 32 44 42 66 9 22 31 60 48 85 30 41 49 75 153 270 19 36
41 72 48 80 7 8 22 33 33 55 11 22 31 49 44 60 23 20 39 20 999 23 l976 2 27
-21 c15 -11 38 -42 52 -67 13 -26 49 -81 79 -122 30 -41 60 -86 67 -100 6 -14
26 -50 44 -80 17 -30 57 -100 89 -155 32 -55 69 -118 82 -139 45 -70 118 -200
146 -260 16 -33 44 -78 63 -101 19 -23 34 -45 34 -48 0 -21 142 -233 187 -279
49 -50 71 -63 167 -102 170 -67 203 -69 1206 -68 470 1 896 4 945 6 50 3 209
10 355 16 279 12 582 33 713 52 97 13 140 42 200 135 130 201 163 253 199 322
23 42 51 90 63 106 12 17 43 71 68 120 42 81 48 100 57 190 30 305 6 465 -93
631 -30 49 -61 103 -69 119 -39 77 -47 89 -158 240 -37 50 -81 117 -100 150
-40 72 -122 195 -166 250 -18 22 -49 72 -69 110 -40 73 -152 238 -166 243 -5
2 -9 9 -9 17 0 7 -7 18 -15 25 -9 7 -32 43 -52 79 -44 79 -112 184 -148 228
-15 18 -49 69 -76 114 -27 45 -61 98 -76 118 -39 50 -141 203 -186 277 -39 65
-83 116 -131 152 l-29 22 -1422 0 c-1648 0 -1470 -14 -1440 112 10 40 21 80
25 88 4 8 14 35 21 60 24 77 24 77 429 95 195 8 369 17 385 20 17 2 104 5 195
6 296 3 494 37 600 104 69 44 136 128 185 231 26 54 55 115 65 134 10 19 25
60 35 90 9 30 30 82 45 115 34 74 42 94 47 120 9 51 26 101 37 115 7 8 23 44
36 80 13 36 29 72 35 80 7 8 20 42 29 75 9 33 26 76 36 96 28 51 103 249 182
479 21 63 43 119 47 125 5 5 16 34 25 62 10 29 22 55 27 58 5 4 9 14 9 24 0
21 58 166 110 277 21 44 43 96 48 115 19 62 41 116 71 175 16 33 35 79 42 104
7 25 16 50 19 55 12 16 90 204 117 280 14 39 38 95 54 126 15 30 35 84 44 120
9 35 23 74 30 85 20 31 91 205 99 242 8 32 29 47 51 35 7 -5 30 -23 51 -41 22
-18 63 -53 93 -78 30 -25 84 -66 120 -90 92 -61 140 -95 279 -199 67 -49 169
-124 227 -165 58 -41 118 -86 133 -99 15 -13 45 -35 67 -49 22 -14 65 -46 95
-71 30 -26 73 -60 95 -75 22 -16 54 -42 72 -59 38 -36 83 -45 76 -16 -4 13 4
28 20 43 14 13 37 46 51 72 14 27 39 67 55 89 16 22 57 84 91 138 33 53 65 97
70 97 6 0 10 5 10 11 0 12 68 129 106 181 24 32 33 37 84 43 65 8 1001 -12
1245 -25 192 -11 255 -21 321 -49 75 -32 78 -45 80 -306 3 -448 24 -1413 31
-1430 6 -17 -2 -18 -128 -11 -74 4 -428 9 -787 12 l-653 5 -32 -33 c-54 -57
-98 -110 -112 -139 -8 -15 -26 -36 -41 -48 -28 -22 -110 -131 -98 -131 4 0
-15 -18 -42 -39 -27 -22 -83 -72 -124 -110 -41 -39 -83 -74 -92 -77 -10 -3
-35 -35 -55 -72 -21 -37 -51 -78 -67 -92 -26 -21 -152 -141 -189 -180 -7 -6
-28 -26 -47 -43 -19 -18 -64 -61 -101 -97 -36 -36 -76 -75 -90 -87 -83 -76
-229 -257 -229 -282 1 -37 20 -96 41 -124 12 -17 22 -37 22 -44 0 -7 4 -13 8
-13 4 0 10 -16 13 -35 4 -19 18 -60 32 -92 14 -32 32 -71 39 -88 7 -16 26 -59
43 -95 16 -36 35 -85 42 -110 10 -41 86 -209 127 -285 9 -16 34 -62 55 -101
21 -39 44 -76 51 -83 10 -8 39 -2 118 25 57 20 138 44 179 54 104 26 234 77
256 101 15 17 18 42 21 187 3 165 24 354 47 422 11 33 14 35 56 34 25 -1 65
-7 90 -13 28 -8 227 -15 540 -21 656 -13 849 -24 965 -55 107 -28 121 -42 159
-151 15 -44 34 -92 43 -109 8 -16 19 -77 24 -134 5 -58 16 -127 24 -154 8 -28
18 -98 21 -156 l6 -106 -53 -80 c-62 -94 -368 -403 -433 -438 -40 -22 -49 -22
-386 -22 -325 0 -350 2 -425 22 -95 26 -94 27 -145 -77 -18 -36 -40 -81 -51
-101 -10 -20 -19 -43 -19 -50 0 -8 -6 -25 -13 -39 -7 -14 -19 -46 -26 -72
l-13 -47 48 -49 c27 -27 69 -64 94 -81 24 -18 91 -74 147 -126 57 -52 107 -95
111 -95 4 0 23 -16 42 -35 37 -38 132 -106 165 -119 23 -10 945 -21 978 -12
25 6 156 134 425 416 92 95 282 291 424 435 141 143 275 285 298 315 l42 55
-6 165 c-11 287 -25 599 -36 765 -5 88 -15 246 -21 350 -6 105 -15 192 -20
193 -5 2 -9 12 -9 22 0 52 -87 152 -367 421 -32 31 -98 98 -147 148 -50 50
-96 91 -103 91 -7 0 -13 5 -13 10 0 6 -11 15 -24 21 -13 6 -29 22 -35 35 -6
13 -17 24 -26 24 -8 0 -15 4 -15 10 0 13 -41 60 -53 60 -8 0 -28 20 -77 77
-11 13 -16 49 -17 148 -1 71 -7 335 -13 585 -6 250 -15 640 -20 865 -6 236
-14 429 -21 455 -6 25 -12 54 -13 66 -4 26 -81 141 -115 172 -99 87 -142 122
-151 122 -17 0 -325 222 -437 315 -23 19 -45 35 -50 35 -5 0 -38 24 -74 53
-35 29 -89 71 -119 94 -30 22 -66 51 -80 63 -14 13 -47 37 -75 55 -27 18 -66
47 -85 64 -19 17 -39 31 -43 31 -10 0 -164 116 -172 131 -4 6 -15 13 -25 17
-10 4 -46 31 -79 60 -67 59 -92 78 -201 152 -83 56 -228 179 -229 195 -1 6
-23 21 -50 34 -27 13 -72 42 -100 65 -69 57 -136 106 -146 106 -10 0 -129 75
-158 100 -22 19 -51 41 -154 119 -32 24 -66 52 -75 62 -10 9 -40 30 -68 45
-27 15 -50 30 -50 34 0 13 -140 119 -212 161 -57 34 -88 44 -162 55 -120 19
-586 33 -1073 34 -357 0 -395 2 -413 17 -19 17 -20 29 -20 363 0 190 4 350 8
355 17 23 55 35 113 35 94 0 385 28 469 46 101 21 158 48 200 94 l36 39 2 353
c2 376 7 470 24 505 8 17 8 33 -1 60 -9 28 -13 190 -14 598 -2 536 -3 562 -22
600 -44 89 -143 157 -275 190 -116 29 -144 33 -192 31 -27 -1 -48 2 -48 6 0 4
-19 8 -43 8 -41 0 -98 8 -214 31 l-51 10 -1 322 c-1 343 -6 437 -26 477 -7 14
-15 42 -18 63 -3 21 -19 54 -34 73 -69 86 -104 120 -140 138 -21 11 -51 30
-68 41 -16 12 -54 30 -83 40 -51 16 -149 17 -1653 16 -880 -1 -1606 -4 -1614
-8 -8 -3 -15 0 -15 5 0 6 -8 18 -17 28 -16 16 -18 50 -21 378 l-2 361 23 26
c12 14 45 31 72 39 45 13 142 77 199 132 44 43 104 133 126 187 16 42 22 86
27 188 10 225 -24 322 -161 463 -32 33 -75 70 -95 82 -20 12 -42 28 -48 34
-24 24 -127 55 -207 64 -114 13 -156 16 -159 14z m196 -269 c62 -13 74 -20
128 -72 84 -82 109 -137 109 -245 0 -129 -34 -220 -109 -293 -40 -39 -52 -46
-104 -60 -60 -16 -247 -30 -207 -16 21 8 18 9 -23 10 -42 1 -89 16 -163 52
-12 6 -27 27 -35 46 -7 19 -23 43 -35 52 -43 34 -54 73 -54 195 0 63 3 116 8
118 11 5 65 79 81 111 8 15 20 27 26 27 7 0 18 7 26 16 15 19 84 56 119 65 46
12 164 9 233 -6z m-4106 -2951 c-3 -3 -12 -4 -19 -1 -8 3 -5 6 6 6 11 1 17 -2
13 -5z m8013 -184 c109 -15 167 -27 205 -44 17 -8 44 -17 60 -20 127 -25 148
-33 159 -57 15 -33 14 -1876 -1 -1903 -15 -27 -73 -44 -188 -57 -55 -6 -105
-15 -110 -20 -12 -9 -70 -17 -133 -18 -29 -1 -41 -5 -36 -12 3 -6 0 -15 -7
-20 -21 -13 -79 -11 -80 4 -3 63 -5 2154 -2 2160 3 5 15 6 27 3 11 -2 59 -10
106 -16z m-7869 -32 c4 -125 -2 -2131 -6 -2138 -9 -14 -107 -11 -190 4 -38 8
-62 14 -52 15 26 1 11 21 -16 20 -12 0 -42 5 -67 11 -25 6 -74 17 -110 25
-125 25 -144 42 -155 140 -4 33 -9 452 -10 930 -4 970 -9 900 68 934 69 31 79
33 392 74 17 2 56 5 88 6 53 1 57 -1 58 -21z m5719 -2299 c7 -11 25 -73 41
-137 17 -65 41 -139 54 -167 13 -27 33 -95 45 -150 31 -143 52 -217 68 -243 8
-12 16 -37 18 -54 3 -25 28 -126 59 -243 11 -43 -7 -50 -123 -49 -125 1 -162
8 -162 29 0 8 -5 14 -11 12 -7 -1 -13 13 -14 31 -1 19 -6 37 -12 40 -10 7 -37
146 -48 254 -7 68 -28 70 -46 6 -6 -23 -14 -48 -19 -57 -17 -34 -29 -68 -40
-116 -7 -27 -21 -65 -31 -83 -11 -18 -19 -41 -19 -52 0 -10 -7 -21 -16 -24 -8
-3 -12 -10 -9 -16 8 -12 29 -12 -390 -10 -192 1 -357 6 -366 11 -10 5 -21 19
-24 31 -4 13 -12 37 -19 53 -7 17 -21 53 -31 80 -9 28 -25 73 -34 100 -10 28
-24 82 -31 120 -7 39 -17 74 -21 79 -10 11 -40 -12 -37 -28 1 -6 -5 -23 -15
-37 -16 -25 -39 -135 -52 -254 -8 -71 -23 -125 -41 -143 -10 -10 -125 -13
-566 -13 -304 -1 -562 -1 -574 0 -33 2 -44 42 -44 161 0 112 -14 200 -37 235
-7 11 -13 27 -13 37 0 25 -22 68 -31 62 -5 -3 -9 1 -10 8 -1 20 -27 -68 -48
-162 -10 -47 -26 -110 -35 -140 -9 -30 -21 -78 -27 -106 -6 -27 -19 -61 -29
-75 l-19 -24 -358 -3 c-319 -2 -362 -1 -390 14 -35 18 -63 67 -63 111 0 32
-72 245 -95 280 -9 12 -19 23 -24 23 -11 0 -16 -22 -56 -269 -17 -105 -32
-149 -55 -155 -19 -6 -167 -10 -238 -8 -46 2 -54 5 -62 28 -8 19 -5 34 11 66
11 22 27 72 35 110 8 39 21 83 29 99 8 15 15 35 15 44 0 9 7 29 15 45 15 28
23 62 65 255 11 50 31 124 45 165 14 41 28 101 32 133 7 70 30 105 59 89 10
-6 51 -44 89 -84 39 -41 129 -137 201 -214 217 -229 293 -304 309 -304 9 0 69
53 134 118 65 64 200 197 300 295 199 194 200 194 251 138 14 -15 33 -32 43
-38 22 -11 111 -89 183 -158 28 -27 86 -79 129 -115 43 -36 103 -89 134 -118
31 -29 73 -64 93 -78 l36 -26 154 154 c297 296 408 388 467 388 12 0 65 -42
128 -103 59 -57 142 -134 183 -171 41 -38 128 -122 192 -187 64 -66 124 -119
132 -119 9 0 28 15 43 32 16 18 39 44 53 58 14 14 41 45 60 70 32 41 113 128
329 351 41 42 78 85 84 95 10 21 36 44 49 44 4 0 12 -9 18 -21z m2576 -1323
c87 -16 178 -59 233 -110 101 -96 171 -210 171 -278 0 -11 7 -26 15 -34 37
-37 5 -256 -48 -333 -96 -140 -145 -182 -272 -234 -109 -44 -124 -47 -225 -48
-103 -1 -181 19 -213 52 -10 10 -23 19 -30 19 -26 0 -109 69 -167 139 -92 112
-93 114 -93 276 0 138 1 141 31 195 17 30 42 78 56 107 30 57 81 116 141 159
22 16 46 35 53 42 7 6 22 12 32 12 10 0 21 4 24 9 6 8 97 29 151 33 44 4 97 2
141 -6z m-8497 -11 c61 -16 139 -61 155 -89 6 -11 19 -28 29 -38 10 -10 22
-29 27 -41 6 -12 14 -29 18 -37 25 -43 32 -62 32 -81 0 -11 7 -27 15 -36 8 -8
13 -19 10 -23 -3 -5 4 -30 15 -55 17 -38 21 -66 21 -161 0 -99 -3 -121 -22
-162 -29 -58 -71 -121 -98 -146 -11 -10 -18 -23 -14 -29 3 -6 1 -7 -5 -3 -6 4
-18 -4 -27 -18 -9 -14 -30 -28 -46 -31 -16 -4 -31 -11 -34 -16 -4 -5 -15 -9
-26 -9 -10 0 -19 -5 -19 -11 0 -6 -7 -9 -15 -5 -8 3 -21 -2 -30 -10 -20 -20
-170 -35 -245 -24 -51 8 -118 34 -130 50 -7 10 -91 50 -105 50 -34 0 -154 153
-159 203 -1 4 -8 12 -16 17 -12 7 -16 41 -18 172 l-3 163 46 92 c26 51 51 93
55 93 4 0 13 12 19 28 23 56 164 137 286 165 47 11 233 6 284 -8z m7565 -1112
c47 -7 109 -65 145 -133 34 -65 20 -143 -33 -192 -10 -10 -22 -18 -26 -18 -3
0 -17 -10 -29 -21 -19 -18 -39 -23 -110 -27 l-86 -5 -38 38 c-20 20 -37 43
-37 49 0 7 -8 21 -19 30 -16 14 -18 29 -15 94 2 70 5 81 35 116 53 64 118 85
213 69z m-6694 -24 c70 -34 109 -91 110 -160 0 -67 -9 -103 -33 -130 -24 -26
-77 -63 -77 -54 0 4 -7 0 -14 -8 -20 -19 -113 -30 -155 -17 -19 5 -41 17 -50
27 -24 27 -81 115 -82 127 -6 90 -5 92 49 153 31 36 65 64 84 71 55 17 121 14
168 -9z m4355 -952 c622 -2 595 0 658 -60 12 -12 35 -31 49 -42 44 -35 58 -75
58 -172 0 -48 -5 -106 -11 -128 -16 -63 -30 -128 -31 -150 -1 -11 -6 -25 -11
-32 -5 -7 -6 -17 -2 -23 3 -5 2 -10 -2 -10 -7 0 -14 -26 -39 -150 -2 -14 -13
-68 -24 -120 -21 -106 -25 -129 -40 -249 -6 -46 -15 -91 -19 -100 -8 -15 -29
-105 -35 -153 -2 -13 -6 -30 -9 -38 -10 -26 -35 -132 -52 -225 -9 -49 -25
-110 -35 -135 -17 -40 -28 -88 -35 -145 -16 -124 -64 -383 -80 -431 -8 -25
-17 -62 -20 -82 -13 -102 -25 -136 -80 -222 -36 -56 -52 -70 -116 -105 l-74
-40 -1107 -3 c-1053 -2 -1181 0 -1281 26 -45 12 -107 52 -107 69 0 7 -11 15
-24 19 -31 7 -43 35 -50 116 -4 37 -13 86 -21 109 -8 23 -15 65 -15 95 0 57
-15 108 -29 100 -6 -4 -23 58 -21 76 0 2 -6 26 -14 53 -8 28 -16 91 -19 140
-3 50 -13 113 -21 140 -9 28 -16 71 -16 97 0 54 -20 111 -30 83 -8 -22 -50
189 -50 251 -1 27 -8 78 -16 114 -8 36 -19 101 -24 145 -5 44 -12 97 -14 118
-2 21 -12 49 -21 63 -23 35 -41 114 -48 204 -4 42 -13 95 -22 119 -8 24 -15
64 -15 90 0 51 -24 132 -32 110 -5 -14 -15 24 -23 91 -2 19 1 73 6 120 8 65
18 97 42 138 17 28 36 52 42 52 5 0 29 13 53 29 39 27 58 32 202 55 8 2 474 1
1035 -1 561 -2 1277 -5 1590 -6z m-2948 -549 c-3 -8 -6 -5 -6 6 -1 11 2 17 5
13 3 -3 4 -12 1 -19z m120 -520 c-3 -8 -6 -5 -6 6 -1 11 2 17 5 13 3 -3 4 -12
1 -19z m-4592 -751 c28 -14 46 -26 40 -27 -5 0 -3 -4 5 -10 12 -7 9 -11 -11
-19 -31 -11 -151 -98 -199 -143 -50 -47 -90 -101 -126 -166 -16 -31 -42 -76
-57 -99 -15 -24 -27 -45 -27 -48 0 -3 -13 -23 -29 -45 -57 -79 -61 -199 -8
-219 27 -10 72 -55 95 -93 9 -15 20 -28 24 -28 4 0 14 -12 22 -27 8 -16 44
-57 80 -93 87 -85 86 -102 -4 -112 -80 -10 -1310 -23 -1342 -15 -13 4 -52 38
-87 77 -48 54 -69 88 -87 138 -13 37 -24 77 -24 89 0 34 20 70 45 81 13 6 26
20 30 31 3 12 13 21 20 21 29 0 32 155 6 274 -6 27 -22 73 -36 102 -14 29 -25
69 -25 89 0 20 -9 53 -20 75 -23 45 -28 145 -7 152 6 2 55 1 107 -2 137 -8
620 4 628 15 11 16 22 17 392 24 519 11 535 10 595 -22z m13953 -19 c381 -1
454 -4 461 -16 13 -23 -16 -131 -89 -340 -52 -147 -59 -172 -65 -248 -7 -81 5
-109 64 -145 76 -48 77 -88 4 -173 -18 -22 -33 -44 -33 -49 0 -5 -15 -28 -32
-50 -18 -23 -34 -52 -35 -66 -1 -13 -6 -28 -11 -33 -13 -13 -1396 -10 -1400 2
-2 6 -10 10 -17 10 -45 0 -21 63 54 139 100 102 159 169 165 189 4 11 15 27
26 37 11 10 20 23 20 30 0 7 7 27 16 45 16 31 16 34 0 45 -9 7 -16 18 -16 26
0 38 -173 306 -215 333 -13 9 -52 41 -87 72 -35 31 -87 73 -117 93 -74 49 -83
66 -51 93 25 20 30 20 465 14 242 -4 644 -8 893 -8z m-10207 -323 c64 -10 117
-84 125 -174 6 -74 -9 -104 -84 -161 -40 -31 -52 -35 -106 -35 -58 0 -63 2
-103 43 -24 23 -43 46 -43 51 0 5 -6 11 -14 14 -9 4 -17 27 -21 60 -8 63 14
125 58 165 28 26 101 52 132 47 11 -2 36 -6 56 -10z m5362 -63 c39 -38 57 -83
57 -142 0 -50 -18 -79 -74 -121 -53 -40 -119 -57 -176 -44 -36 8 -88 57 -96
92 -4 13 -12 23 -20 23 -19 0 -18 67 1 134 29 100 96 134 210 109 45 -11 69
-23 98 -51z m3984 -758 c-3 -3 -12 -4 -19 -1 -8 3 -5 6 6 6 11 1 17 -2 13 -5z
m111 -1 c-10 -2 -28 -2 -40 0 -13 2 -5 4 17 4 22 1 32 -1 23 -4z m320 0 c-10
-2 -28 -2 -40 0 -13 2 -5 4 17 4 22 1 32 -1 23 -4z m80 0 c-10 -2 -28 -2 -40
0 -13 2 -5 4 17 4 22 1 32 -1 23 -4z m80 0 c-10 -2 -28 -2 -40 0 -13 2 -5 4
17 4 22 1 32 -1 23 -4z m260 0 c-42 -2 -114 -2 -160 0 -46 1 -11 3 77 3 88 0
125 -2 83 -3z m-9268 -677 c0 -29 -50 -125 -77 -146 -21 -16 -35 -20 -58 -15
-35 8 -67 10 -460 30 -159 8 -454 20 -655 25 -201 6 -382 15 -403 21 -20 5
-42 7 -47 4 -13 -8 -61 6 -54 16 3 5 -22 9 -55 9 -34 0 -61 4 -61 9 0 5 10 9
23 10 283 10 689 19 932 21 240 1 765 18 898 29 9 0 17 -5 17 -13z m4748 -16
c112 -2 226 -7 255 -12 29 -4 81 -10 117 -12 66 -5 80 -16 35 -28 -14 -3 -119
-11 -233 -17 -114 -6 -238 -13 -277 -16 -38 -2 -223 -7 -410 -10 -421 -7 -603
-13 -722 -25 -50 -5 -105 -7 -122 -4 -41 8 -72 44 -78 91 l-5 38 619 -1 c340
-1 709 -3 821 -4z m-6683 -30 c3 -5 1 -10 -4 -10 -6 0 -11 5 -11 10 0 6 2 10
4 10 3 0 8 -4 11 -10z m-330 -179 c50 -6 149 -13 220 -16 72 -3 166 -10 210
-15 44 -5 184 -11 310 -15 127 -3 318 -10 425 -15 424 -20 491 -23 666 -25 99
-1 194 -6 211 -9 l32 -7 -51 -97 c-28 -53 -54 -99 -57 -102 -4 -3 -28 -49 -55
-102 -26 -54 -52 -101 -58 -104 -11 -7 54 -7 -918 1 -421 3 -930 6 -1132 6
-238 0 -368 3 -368 10 0 17 37 83 60 107 12 13 23 29 24 35 5 29 129 230 163
265 7 7 13 19 13 26 0 17 51 63 74 68 29 5 130 0 231 -11z m8119 -21 c14 -17
35 -52 46 -78 11 -25 24 -49 28 -52 21 -15 62 -84 91 -152 18 -42 46 -89 63
-105 30 -28 58 -73 58 -92 0 -9 -375 -15 -890 -14 -96 0 -422 1 -725 2 -302 1
-594 0 -647 -1 -54 -2 -98 0 -98 3 0 4 -16 7 -36 6 -45 -1 -68 24 -103 113
-14 34 -43 90 -66 123 -23 34 -55 88 -73 120 l-31 57 42 0 c23 0 116 4 207 10
201 11 433 18 815 25 160 3 358 10 440 15 132 8 247 15 619 35 49 3 91 7 94
10 3 3 36 5 73 5 63 0 69 -2 93 -30z m4461 -15 c17 -8 43 -17 59 -21 28 -7 59
-28 95 -66 9 -9 28 -19 44 -23 15 -4 30 -11 33 -16 3 -5 13 -9 22 -9 9 0 37
-14 61 -30 24 -17 52 -30 61 -30 10 0 23 -6 29 -14 6 -7 24 -16 40 -19 32 -7
46 -30 32 -55 -22 -38 -344 -380 -441 -467 -25 -23 -70 -70 -100 -105 -30 -35
-66 -73 -79 -84 -44 -38 -173 -171 -199 -206 -51 -68 -145 -170 -156 -170 -6
0 -25 26 -43 58 -17 31 -40 66 -50 77 -19 21 -63 101 -63 115 0 4 -18 27 -39
50 -22 24 -45 55 -52 69 -7 14 -28 52 -47 83 -55 95 -47 124 53 196 55 39 69
52 194 171 46 45 92 83 100 86 9 3 25 20 36 37 10 18 27 39 37 46 10 7 18 18
18 23 0 14 120 155 213 252 78 82 76 81 142 52z m-17205 -45 c30 -25 68 -57
85 -71 67 -54 163 -163 158 -179 -1 -4 16 -28 38 -54 21 -27 39 -53 39 -58 0
-5 6 -8 12 -6 7 3 39 -22 70 -54 32 -33 63 -56 68 -53 6 3 10 -1 10 -9 0 -8 9
-20 20 -26 11 -6 18 -15 15 -21 -4 -5 1 -9 10 -9 8 0 19 -8 22 -17 10 -25 21
-35 74 -61 78 -40 97 -103 50 -164 -10 -13 -21 -33 -25 -45 -4 -13 -11 -23
-16 -23 -4 0 -11 -11 -14 -25 -4 -14 -31 -62 -60 -108 -30 -45 -60 -96 -67
-112 -8 -17 -24 -44 -36 -61 -13 -17 -23 -35 -23 -40 0 -14 -46 -54 -62 -54
-16 0 -27 11 -90 86 -24 28 -62 74 -85 102 -24 28 -52 65 -62 84 -11 18 -39
49 -63 68 -24 19 -88 80 -143 135 -55 55 -134 132 -175 171 -41 39 -123 121
-183 182 -59 61 -121 121 -138 133 -35 24 -38 70 -5 75 10 1 42 17 70 35 63
40 94 57 126 69 31 12 46 21 143 90 43 30 88 60 100 67 33 19 78 4 137 -47z
m9574 -26 c-1 -10 -6 -46 -13 -79 -13 -70 -37 -244 -46 -329 -3 -33 -10 -66
-14 -75 -5 -9 -11 -36 -15 -61 -4 -25 -9 -54 -11 -65 -28 -128 -47 -243 -61
-364 -17 -154 -29 -198 -54 -203 -8 -2 -384 -3 -835 -1 -914 4 -844 -2 -846
72 -1 84 -25 254 -49 344 -10 39 -20 68 -21 62 -1 -5 -5 15 -9 45 -4 30 -13
82 -19 115 -7 33 -15 78 -17 100 -3 22 -9 49 -14 60 -8 20 -34 271 -30 290 5
22 -1 46 -10 40 -5 -3 -12 6 -16 20 -3 14 -11 25 -18 25 -6 0 -2 6 9 13 15 9
259 13 1025 17 553 3 1019 2 1035 -1 22 -4 30 -10 29 -25z m-3218 -579 c4 -9
-7 -35 -22 -58 -35 -52 -51 -78 -60 -97 -4 -8 -18 -30 -31 -47 l-24 -33 -127
1 c-83 1 -115 4 -92 9 19 4 -98 9 -260 11 -220 2 -266 5 -180 9 95 5 75 6
-120 9 -129 1 -262 4 -295 6 -33 2 -150 6 -260 10 -110 3 -218 8 -240 11 -22
2 -215 6 -429 9 -213 2 -391 6 -393 9 -3 3 12 37 33 76 28 51 46 73 64 77 13
3 520 4 1125 1 927 -5 1185 -3 1293 10 7 1 15 -5 18 -13z m6827 -4 c13 -5 34
-31 47 -57 13 -27 33 -62 43 -77 11 -16 16 -31 12 -35 -4 -4 -208 -8 -453 -9
-246 -1 -514 -4 -597 -7 -82 -3 -334 -6 -560 -8 -281 -1 -363 -4 -260 -8 99
-4 28 -6 -210 -6 l-359 -1 -23 25 c-13 14 -23 29 -23 33 0 5 -22 37 -50 71
-27 34 -49 63 -47 64 1 2 236 6 522 9 286 4 522 9 524 11 9 8 1412 3 1434 -5z
m-1550 -208 c-7 -2 -19 -2 -25 0 -7 3 -2 5 12 5 14 0 19 -2 13 -5z m114 1 c-3
-3 -12 -4 -19 -1 -8 3 -5 6 6 6 11 1 17 -2 13 -5z m-7717 -134 c107 -5 267
-13 355 -16 88 -3 187 -8 220 -10 33 -3 80 -6 105 -6 25 1 52 -2 60 -5 30 -12
50 -13 50 -3 0 7 7 7 20 0 14 -8 20 -8 20 0 0 6 4 9 9 5 5 -3 146 -8 313 -10
167 -3 362 -8 433 -11 72 -3 214 -6 318 -6 103 1 187 -3 187 -7 0 -10 -45 -78
-64 -97 -8 -7 -36 -50 -62 -95 -27 -45 -59 -98 -72 -118 -33 -54 -59 -103 -67
-131 -15 -50 -38 -90 -52 -90 -8 0 -12 -4 -9 -8 6 -11 -24 -11 -124 -1 -124
12 -421 23 -600 22 -256 -1 -310 -3 -310 -14 0 -13 -113 -8 -122 6 -5 6 -8 5
-8 -2 0 -7 -5 -13 -11 -13 -5 0 -7 5 -4 10 3 6 -1 10 -10 10 -9 0 -13 -4 -10
-10 8 -14 -1 -13 -25 3 -17 10 -22 9 -31 -3 -8 -11 -12 -12 -16 -2 -2 6 -16
12 -29 12 -13 0 -24 -6 -24 -12 0 -10 -2 -10 -8 -1 -9 14 -64 13 -74 -2 -5 -7
-8 -7 -8 0 0 6 -144 11 -405 13 -223 2 -422 5 -442 7 -21 2 -73 4 -115 4 -77
1 -78 1 -78 27 0 17 12 38 35 60 39 37 145 189 145 208 0 7 13 30 29 52 15 21
47 75 70 119 24 44 54 92 67 106 23 24 31 26 87 23 34 -2 150 -8 257 -14z
m9399 -16 c13 -9 36 -45 52 -81 16 -35 49 -92 74 -127 25 -35 45 -67 45 -71 0
-4 24 -39 53 -79 54 -73 107 -167 107 -191 0 -18 -33 -23 -220 -31 -146 -6
-1214 -10 -1730 -7 -129 1 -248 1 -265 -1 -88 -11 -215 -16 -238 -11 -16 4
-31 19 -39 36 -7 16 -16 29 -20 29 -5 0 -8 6 -8 13 0 6 -16 32 -35 56 -19 24
-35 47 -35 51 0 4 -25 41 -55 83 -30 43 -63 101 -72 130 -10 28 -31 68 -46 88
-33 44 -34 59 -4 60 42 2 284 7 572 13 377 7 726 17 794 21 29 3 189 9 355 16
165 6 303 13 305 15 2 2 90 4 195 4 161 0 195 -3 215 -16z m-6412 -20 c14 -4
30 -26 49 -67 32 -73 44 -211 23 -262 -7 -16 -11 -34 -10 -39 1 -5 -11 -25
-26 -45 -16 -20 -48 -70 -73 -111 -60 -103 -79 -123 -109 -115 -13 3 -33 17
-44 31 -10 14 -22 22 -25 19 -7 -7 -27 58 -44 140 -17 80 -14 146 6 190 31 65
106 177 150 223 39 41 58 48 103 36z m3184 -31 c27 -27 119 -197 119 -219 0
-6 10 -24 22 -39 25 -32 31 -122 11 -146 -6 -8 -29 -51 -52 -95 -44 -87 -82
-125 -104 -102 -44 46 -96 151 -116 236 -8 30 -19 52 -26 52 -20 0 -30 135
-15 217 6 37 21 83 32 102 19 31 24 33 61 28 26 -4 50 -15 68 -34z m321 -596
c15 -26 28 -49 28 -52 0 -13 54 -110 71 -128 31 -33 41 -89 30 -155 -6 -31
-13 -74 -16 -94 -5 -33 -29 -66 -76 -104 -21 -16 -73 19 -107 74 -92 146 -121
234 -87 262 10 8 13 21 9 33 -4 12 -2 17 4 13 6 -4 10 1 10 11 -1 10 11 44 25
76 15 32 27 64 27 72 0 18 29 47 43 42 6 -2 24 -25 39 -50z m-3864 -32 c16
-13 32 -38 35 -54 3 -16 12 -35 20 -42 18 -19 37 -75 37 -112 0 -74 -62 -200
-126 -257 -32 -28 -43 -31 -76 -27 -45 6 -67 29 -69 72 -3 40 -4 46 -14 75 -9
24 -9 24 -15 -10 -4 -22 -7 1 -8 60 -2 107 20 184 70 254 49 68 97 82 146 41z
m7247 -75 c18 -20 55 -116 59 -155 2 -11 8 -49 15 -85 17 -86 6 -120 -41 -121
-18 -1 -319 0 -668 1 -349 2 -896 4 -1215 5 -319 1 -592 5 -606 9 -26 7 -27 9
-28 104 -1 53 -6 101 -10 107 -12 16 -33 96 -27 102 3 3 139 7 303 9 164 1
381 5 483 8 503 15 850 21 1100 19 233 -2 437 3 583 15 23 2 39 -4 52 -18z
m-8210 -49 c-4 -14 -11 -62 -15 -106 -16 -146 -19 -167 -24 -172 -2 -3 -35 -8
-73 -13 -83 -11 -2411 -25 -2442 -15 -18 5 -21 14 -21 53 1 26 7 76 16 112 8
36 18 85 21 110 3 25 13 50 22 57 12 9 215 11 846 9 457 -2 925 -7 1040 -10
308 -10 561 -4 595 14 23 13 42 -9 35 -39z m22 -480 c32 -8 102 -139 106 -197
2 -37 1 -38 -38 -46 -22 -4 -89 -6 -150 -6 -81 1 -98 3 -65 8 25 4 -111 8
-302 8 -233 2 -349 -1 -353 -8 -5 -8 -12 -7 -23 2 -12 10 -16 10 -19 1 -3 -7
-17 -13 -31 -12 l-27 1 25 8 c24 8 24 8 -7 9 -17 1 -35 -3 -38 -9 -3 -5 -11
-10 -16 -10 -6 0 -7 5 -4 10 3 6 -1 10 -9 10 -9 0 -16 -6 -16 -12 0 -10 -2
-10 -8 -1 -8 13 -62 13 -62 -1 0 -4 -12 -5 -27 -1 -41 11 -886 6 -1000 -5
-280 -29 -339 -23 -380 37 -22 32 -78 148 -88 180 l-6 23 523 1 c288 1 640 5
783 8 336 10 1199 11 1232 2z m7418 -5 c88 0 296 3 463 7 329 8 321 10 282
-48 -11 -16 -34 -59 -51 -93 -18 -35 -49 -82 -70 -104 l-37 -40 -94 7 c-51 4
-100 11 -108 16 -43 22 -398 30 -1396 31 l-851 1 9 48 c12 64 54 155 81 175
20 15 94 15 817 8 437 -4 867 -8 955 -8z m-390 -401 c99 -2 275 -8 390 -12
116 -4 274 -8 353 -8 129 0 142 -2 142 -17 0 -16 -11 -18 -82 -20 -46 0 -96
-2 -113 -3 -104 -4 -661 -16 -995 -20 -217 -3 -590 -10 -828 -16 -238 -6 -439
-8 -447 -5 -23 9 -19 72 6 97 l22 22 686 -7 c377 -4 767 -9 866 -11z m-6815
-17 c27 -30 26 -66 -2 -76 -13 -4 -205 -4 -428 -1 -223 4 -596 8 -830 9 -524
4 -1226 22 -1236 33 -5 4 -2 12 5 16 7 5 273 12 590 15 317 4 740 10 941 15
201 4 494 8 652 9 284 2 287 2 308 -20z"/>
<path d="M19201 18114 c-12 -14 -11 -16 4 -12 10 1 20 9 23 16 5 17 -10 15
-27 -4z"/>
<path d="M14096 14106 c-78 -49 -116 -116 -116 -207 0 -60 16 -98 63 -148 83
-90 188 -103 282 -35 30 21 42 40 65 102 7 19 16 29 20 23 19 -32 -5 120 -26
162 -13 27 -24 54 -24 60 0 22 -153 68 -220 66 -3 0 -22 -10 -44 -23z"/>
<path d="M12498 9723 c7 -3 16 -2 19 1 4 3 -2 6 -13 5 -11 0 -14 -3 -6 -6z"/>
<path d="M18023 9723 c9 -2 25 -2 35 0 9 3 1 5 -18 5 -19 0 -27 -2 -17 -5z"/>
<path d="M12448 8043 c7 -3 16 -2 19 1 4 3 -2 6 -13 5 -11 0 -14 -3 -6 -6z"/>
<path d="M5745 22876 c-16 -7 -45 -31 -63 -52 -72 -84 -131 -162 -179 -234
-58 -88 -102 -150 -160 -224 -22 -29 -48 -66 -56 -82 -9 -16 -46 -71 -84 -122
-110 -149 -147 -202 -164 -236 -9 -17 -29 -53 -44 -79 -34 -59 -30 -77 32
-143 41 -44 55 -52 96 -57 67 -9 93 7 152 95 28 40 53 75 56 78 4 3 16 23 28
45 57 105 81 139 106 153 26 13 33 12 84 -9 62 -25 104 -53 94 -63 -3 -3 1 -6
9 -6 15 0 83 -49 192 -139 22 -19 55 -40 73 -47 18 -8 47 -27 65 -43 18 -15
51 -40 73 -54 22 -14 140 -99 262 -189 122 -90 277 -201 344 -248 67 -47 124
-91 127 -98 7 -18 86 -52 122 -52 20 0 41 13 71 42 141 140 120 218 -103 368
-40 27 -84 57 -98 66 -14 10 -43 29 -65 43 -22 14 -61 43 -86 63 -25 21 -48
38 -51 38 -10 0 -125 79 -138 95 -7 8 -17 15 -22 15 -5 0 -28 16 -51 35 -22
19 -46 35 -53 35 -6 0 -14 7 -18 15 -3 8 -12 15 -19 15 -8 0 -22 10 -33 21
-10 12 -59 49 -109 82 -82 55 -163 114 -175 128 -3 3 -30 20 -60 38 -79 48
-176 128 -189 157 -18 39 28 116 147 247 51 56 81 118 82 169 0 31 -7 42 -49
77 -44 37 -98 71 -111 71 -3 -1 -18 -7 -35 -14z"/>
<path d="M24565 22635 c-82 -24 -300 -138 -345 -179 -14 -13 -38 -31 -55 -40
-43 -23 -66 -39 -89 -58 -11 -10 -32 -24 -48 -30 -15 -7 -28 -16 -28 -20 0 -4
-26 -21 -57 -38 -71 -38 -265 -180 -355 -261 -69 -62 -105 -121 -157 -259 -37
-98 -23 -356 23 -429 15 -23 23 -41 19 -41 -5 0 -3 -4 3 -8 5 -4 18 -28 28
-54 34 -91 269 -308 334 -308 10 0 22 -4 27 -9 24 -23 145 -54 226 -59 75 -4
98 -1 165 22 183 61 459 232 814 504 133 103 265 229 287 274 61 127 58 109
58 314 l0 191 -45 89 c-109 218 -238 347 -397 399 -107 35 -290 35 -408 0z
m372 -346 c112 -55 168 -143 180 -287 5 -64 3 -76 -26 -138 -42 -90 -114 -157
-304 -286 -60 -40 -119 -80 -130 -88 -215 -146 -383 -250 -402 -250 -8 0 -15
-4 -15 -8 0 -18 -104 -42 -180 -42 -90 0 -131 12 -182 51 -20 16 -40 29 -45
29 -11 0 -67 87 -84 130 -9 22 -14 74 -14 135 0 96 1 102 30 141 17 22 55 62
86 90 67 59 250 199 310 237 24 15 103 65 174 112 304 198 460 243 602 174z"/>
<path d="M4728 21241 c-76 -38 -178 -114 -178 -132 0 -8 -93 -144 -120 -177
-6 -7 -30 -56 -53 -110 l-42 -97 0 -185 c0 -203 -5 -182 76 -330 24 -44 98
-123 174 -184 48 -39 210 -141 245 -154 38 -14 261 -120 290 -137 14 -8 59
-31 100 -51 281 -136 335 -153 507 -161 115 -5 231 7 258 26 6 4 26 14 45 21
41 16 147 89 173 119 9 12 34 45 54 74 20 28 46 66 59 82 43 57 98 179 95 208
-1 10 2 24 8 31 16 19 30 147 22 193 -4 22 -7 47 -5 56 1 9 -2 19 -7 23 -5 3
-7 10 -4 15 4 5 1 9 -4 9 -6 0 -11 18 -11 40 0 46 -20 72 -75 94 -42 18 -87
12 -111 -15 -9 -11 -22 -19 -29 -19 -6 0 -20 -10 -31 -23 -16 -19 -19 -40 -22
-164 -1 -78 -7 -155 -13 -170 -20 -54 -82 -138 -129 -174 -87 -68 -103 -73
-230 -73 -128 0 -182 14 -320 83 -41 21 -104 48 -140 61 -36 13 -83 35 -105
50 -22 15 -71 40 -110 56 -38 16 -97 47 -130 70 -33 23 -80 51 -105 64 -43 22
-134 99 -173 148 -24 29 -58 120 -47 127 4 2 10 35 13 72 3 48 14 84 34 123
73 140 156 238 221 266 20 8 40 20 44 27 12 19 9 79 -7 135 -13 41 -25 59 -62
87 -25 19 -53 35 -62 35 -9 0 -51 -18 -93 -39z"/>
<path d="M25865 21228 c-20 -17 -71 -72 -113 -122 -42 -50 -79 -93 -83 -96 -3
-3 -10 -13 -15 -23 -10 -18 -71 -87 -161 -183 -28 -31 -54 -61 -56 -67 -3 -7
-51 -63 -108 -126 -57 -63 -148 -166 -202 -229 -53 -63 -107 -122 -120 -131
-40 -31 -151 -87 -207 -106 -30 -10 -68 -26 -85 -36 -42 -26 -95 -49 -110 -49
-8 0 -15 -3 -17 -8 -1 -4 -35 -20 -74 -35 -83 -32 -152 -80 -165 -114 -5 -13
-9 -50 -9 -81 0 -46 4 -60 20 -72 11 -8 20 -20 20 -26 0 -7 12 -22 26 -33 35
-27 103 -28 152 -1 20 10 84 37 142 59 124 47 183 72 265 111 33 16 101 46
150 67 l90 38 615 2 c338 1 639 5 668 8 l52 6 0 63 c0 50 -7 79 -32 135 -44
97 -67 106 -245 97 -71 -3 -193 -8 -273 -12 -80 -3 -229 -12 -332 -20 -103 -8
-191 -14 -197 -14 -16 0 -23 38 -10 62 6 13 26 37 43 54 17 17 47 49 66 70
134 151 225 253 292 330 42 49 96 112 121 140 82 95 97 186 44 274 -22 37 -90
100 -108 100 -5 0 -25 -14 -44 -32z"/>
<path d="M21656 21014 c-41 -22 -58 -55 -71 -144 -13 -94 -74 -160 -154 -168
-39 -3 -59 2 -112 28 -35 18 -74 41 -85 52 -13 12 -42 21 -75 25 l-54 5 -70
-68 c-74 -73 -135 -156 -135 -184 0 -32 23 -85 50 -115 66 -73 74 -107 40
-177 -11 -23 -20 -47 -20 -54 0 -7 -17 -31 -38 -52 -40 -40 -48 -43 -167 -57
-27 -4 -63 -11 -79 -17 l-28 -11 4 -146 c4 -153 14 -194 53 -215 11 -6 23 -15
26 -19 3 -5 39 -15 80 -23 91 -19 121 -34 138 -71 8 -15 22 -44 32 -64 32 -62
20 -106 -49 -181 -30 -33 -36 -46 -39 -97 -4 -58 -4 -60 32 -88 20 -15 49 -50
65 -78 16 -27 42 -63 58 -78 28 -27 33 -28 86 -22 51 7 60 11 96 55 55 65 89
80 170 73 104 -10 142 -53 154 -176 6 -51 11 -63 44 -94 68 -65 74 -67 208
-69 l123 -1 37 38 c33 34 38 45 41 96 2 32 6 67 7 78 2 11 4 25 5 32 1 15 85
74 124 88 16 6 54 8 84 5 44 -5 60 -12 84 -38 46 -49 74 -64 122 -64 53 0 81
17 175 100 55 49 73 72 78 99 10 52 -10 104 -61 159 -49 54 -55 82 -25 123 10
16 27 50 37 76 24 65 52 82 151 95 106 14 108 15 122 53 27 78 20 341 -10 371
-5 5 -46 13 -89 17 -117 10 -140 21 -186 87 -32 47 -39 65 -39 103 0 40 7 54
48 105 l48 58 -4 83 c-3 94 -4 95 -133 193 -89 69 -105 74 -163 52 -75 -29
-112 -46 -112 -53 0 -4 -32 -10 -70 -14 -84 -8 -124 4 -142 46 -7 16 -16 29
-20 29 -5 0 -7 3 -6 8 1 4 -6 20 -16 35 -14 20 -19 44 -17 81 1 43 -3 57 -22
78 -23 25 -29 26 -158 29 -120 4 -138 2 -173 -17z m315 -654 c54 -17 81 -34
143 -91 91 -84 119 -130 146 -234 26 -102 25 -159 -4 -247 -40 -122 -62 -161
-117 -214 -66 -63 -112 -87 -209 -108 -41 -10 -91 -21 -110 -26 -46 -12 -149
1 -180 23 -13 9 -30 17 -37 17 -19 0 -104 60 -141 100 -70 73 -149 236 -135
277 2 7 -1 21 -7 32 -6 12 -7 21 -3 21 5 0 9 26 11 58 3 57 49 167 91 217 9
11 28 37 41 57 14 20 36 42 50 48 14 6 42 23 63 38 88 60 268 75 398 32z"/>
</g>
</svg>
